<svg width="196" height="98" viewBox="0 0 196 98" fill="none" xmlns="http://www.w3.org/2000/svg">
<path d="M14.4628 88.1449C13.9588 88.3293 13.3722 88.5382 12.7032 88.7715C12.0342 89.0048 11.3546 89.2249 10.6644 89.4317C9.97792 89.6485 9.3395 89.8249 8.74915 89.9609C8.50771 89.3634 8.19987 88.5845 7.82566 87.6241C7.44775 86.6536 7.04034 85.6025 6.60342 84.4707C6.1729 83.3252 5.75848 82.2081 5.36017 81.1193C4.7295 79.3955 4.08814 77.5955 3.43609 75.7195C2.78035 73.8334 2.12178 71.9083 1.46038 69.9442C1.66839 69.8567 2.00242 69.7231 2.46245 69.5433C2.93257 69.3599 3.45813 69.1562 4.03914 68.9322C4.61645 68.6981 5.1805 68.4746 5.73126 68.2617C6.28202 68.0488 6.7439 67.8741 7.1169 67.7376C7.53513 68.6934 8.00229 69.8141 8.51837 71.0998C9.04085 72.3717 9.57403 73.7197 10.1179 75.1438C10.6682 76.5542 11.1978 77.9549 11.7067 79.3461C11.9686 80.0618 12.2199 80.7643 12.4606 81.4535C12.7013 82.1427 12.9277 82.8085 13.1399 83.451C13.3585 84.0797 13.5509 84.6837 13.7171 85.263C13.8897 85.8285 14.0375 86.3574 14.1604 86.8496C14.2934 87.3382 14.3942 87.7699 14.4628 88.1449ZM35.2629 79.5237C35.0399 79.9139 34.531 80.3972 33.736 80.9738C32.9448 81.5605 32.0401 82.0401 31.0219 82.4126C29.7316 82.8846 28.6422 82.9688 27.7539 82.6652C26.8655 82.3615 26.1072 81.7417 25.479 80.8056C24.8471 79.8595 24.273 78.6807 23.7567 77.2694C23.3031 76.0294 22.8761 74.8312 22.4758 73.6746C22.0718 72.5079 21.6895 71.3847 21.3288 70.3051C20.9782 69.2217 20.6442 68.1838 20.3268 67.1912C20.0157 66.1848 19.7213 65.2238 19.4435 64.3081C19.1656 63.3925 18.9044 62.5222 18.6598 61.6973C19.5348 61.3086 20.3454 60.9778 21.0914 60.7048C21.5652 60.5315 22.0376 60.3701 22.5087 60.2206C22.9899 60.0674 23.532 59.9091 24.1352 59.7456C24.4361 60.7556 24.7542 61.828 25.0893 62.9627C25.4244 64.0975 25.7627 65.2253 26.1042 66.3462C26.4458 67.4672 26.772 68.5309 27.0831 69.5372C27.3941 70.5436 27.6728 71.4304 27.9191 72.1975C28.1618 72.9545 28.3551 73.5296 28.4989 73.9228C28.7091 74.4974 28.9192 75.0092 29.1292 75.4582C29.3493 75.9035 29.5847 76.2345 29.8355 76.4514C30.0964 76.6646 30.3831 76.714 30.6956 76.5997C31.0081 76.4853 31.243 76.3308 31.4004 76.1361C31.5678 75.9377 31.6802 75.7137 31.7375 75.4641C31.8634 75.5895 32.095 75.8477 32.4323 76.2386C32.7797 76.6259 33.1538 77.0548 33.5546 77.5254C33.9655 77.9923 34.3327 78.4181 34.6562 78.8026C34.9761 79.1771 35.1784 79.4174 35.2629 79.5237ZM44.3139 77.1039C41.6223 78.0886 39.3132 78.1505 37.3865 77.2894C35.4662 76.4146 34.0192 74.6465 33.0456 71.9851C32.3744 70.1504 32.1841 68.5054 32.4747 67.0504C32.7616 65.5852 33.4383 64.3261 34.5047 63.273C35.5673 62.2098 36.9354 61.3721 38.6088 60.7599C40.2621 60.155 41.7815 60.0278 43.167 60.3782C44.5589 60.7148 45.7787 61.4401 46.8264 62.5542C47.8704 63.6582 48.7058 65.0671 49.3328 66.7808C49.886 68.293 50.0699 69.7173 49.8845 71.0539C49.6991 72.3905 49.1411 73.5834 48.2105 74.6325C47.2862 75.6679 45.9874 76.4917 44.3139 77.1039ZM42.1313 71.7473C42.5043 71.6108 42.83 71.4231 43.1083 71.1841C43.393 70.9313 43.6103 70.6347 43.76 70.2941C43.9198 69.9499 44.0002 69.5604 44.0012 69.1257C43.9985 68.6809 43.9031 68.2015 43.715 67.6874C43.4642 67.0018 43.139 66.4408 42.7392 66.0041C42.3357 65.5573 41.8908 65.2629 41.4044 65.1208C40.9144 64.9686 40.4073 64.9884 39.8831 65.1801C39.248 65.4125 38.8016 65.7701 38.5439 66.253C38.2963 66.7322 38.1841 67.2534 38.2072 67.8164C38.2303 68.3795 38.3303 68.9029 38.5074 69.3868C38.843 70.3042 39.3318 70.9998 39.9738 71.4736C40.6157 71.9474 41.3349 72.0386 42.1313 71.7473ZM55.9881 53.8359C56.9306 53.6626 57.8199 53.5315 58.6561 53.4428C59.4924 53.354 60.1902 53.293 60.7495 53.2598C61.3153 53.2129 61.661 53.1893 61.7866 53.189C61.9032 54.1637 62.0143 55.186 62.12 56.2561C62.2221 57.3161 62.3132 58.4086 62.3933 59.5338C62.4799 60.6451 62.5481 61.7689 62.598 62.9051C62.6442 64.0312 62.6666 65.1546 62.6651 66.2753C62.67 67.3822 62.6418 68.4613 62.5806 69.5124C61.9558 69.8667 61.1797 70.2135 60.2523 70.5528C59.7886 70.7225 59.3294 70.8733 58.8748 71.0053C58.4165 71.1273 58.0237 71.2253 57.6964 71.2993C56.8226 70.4417 55.9491 69.5382 55.076 68.5888C54.2093 67.6257 53.331 66.6154 52.4412 65.5579C51.5514 64.5004 50.6463 63.3856 49.726 62.2135C48.8158 61.0377 47.8784 59.8033 46.9138 58.5102C47.0577 58.4347 47.3247 58.2742 47.7149 58.0286C48.1051 57.7829 48.5402 57.5037 49.0201 57.191C49.5065 56.8645 49.9777 56.5435 50.4338 56.228C50.8899 55.9126 51.2576 55.6523 51.5369 55.4472C51.8984 55.9665 52.3214 56.5604 52.806 57.229C53.2869 57.8874 53.7872 58.5674 54.3067 59.2689C54.8326 59.9566 55.3356 60.6127 55.8155 61.2373C56.2954 61.8618 56.712 62.4067 57.065 62.8719C57.4245 63.3233 57.6782 63.642 57.8263 63.8278L57.678 63.985C57.6237 63.399 57.5616 62.8388 57.4918 62.3043C57.4219 61.7697 57.3415 61.2219 57.2506 60.6608C57.1697 60.096 57.0671 59.4877 56.943 58.8359C56.8289 58.1804 56.6922 57.4475 56.5329 56.6371C56.3699 55.8166 56.1883 54.8829 55.9881 53.8359ZM82.8752 60.1331C82.6927 60.6342 82.4318 61.124 82.0925 61.6025C81.7633 62.0773 81.3419 62.5343 80.8282 62.9737C80.321 63.3993 79.7146 63.804 79.0092 64.1878C78.3075 64.5817 77.503 64.9446 76.5957 65.2766C75.0634 65.8372 73.591 66.0615 72.1784 65.9496C70.7722 65.824 69.5217 65.3271 68.4268 64.4589C67.332 63.5907 66.4747 62.3098 65.8551 60.6162C65.2134 58.8621 64.9955 57.2044 65.2016 55.6431C65.4177 54.0781 66.0231 52.7022 67.0177 51.5153C68.0122 50.3285 69.3664 49.4216 71.0802 48.7946C73.2375 48.0053 75.1596 47.9479 76.8466 48.6224C78.5298 49.2868 79.7513 50.6573 80.5111 52.734C80.6586 53.1372 80.7744 53.5006 80.8585 53.8242C80.9389 54.1377 81.0052 54.4906 81.0573 54.883C80.8923 54.932 80.5308 55.0528 79.9726 55.2456C79.4246 55.4347 78.811 55.6477 78.1319 55.8847C77.4628 56.1181 76.8492 56.3311 76.2911 56.5239C75.733 56.7166 75.3682 56.8444 75.1968 56.9071C74.4206 57.191 73.7127 57.49 73.0732 57.804C72.4401 58.1042 71.9499 58.3578 71.6027 58.5649C71.647 58.6858 71.6981 58.81 71.7561 58.9374C71.8206 59.051 71.8932 59.1558 71.9741 59.252C72.1883 59.4937 72.4514 59.666 72.7634 59.769C73.0754 59.8721 73.4212 59.9113 73.8008 59.8867C74.1768 59.852 74.5613 59.7628 74.9545 59.6189C75.2368 59.5157 75.5066 59.3941 75.764 59.2542C76.0215 59.1143 76.2679 58.9441 76.5032 58.7438C76.7449 58.5296 76.9686 58.282 77.1744 58.001C77.3903 57.7162 77.5978 57.3774 77.797 56.9845C77.8759 57.0128 78.1168 57.1247 78.5198 57.3201C78.9329 57.5119 79.4121 57.7595 79.9575 58.0629C80.5028 58.3664 81.0423 58.7005 81.5758 59.0654C82.1057 59.4202 82.5388 59.7761 82.8752 60.1331ZM70.6317 55.1139C70.8955 54.9602 71.2468 54.7802 71.6857 54.5739C72.1246 54.3676 72.6515 54.152 73.2665 53.927C73.6193 53.7979 73.9538 53.6813 74.27 53.577C74.5862 53.4728 74.8117 53.4017 74.9464 53.3639C74.8985 53.2328 74.8179 53.0908 74.7048 52.9379C74.5421 52.7117 74.3248 52.5397 74.0532 52.4219C73.7879 52.2904 73.4938 52.2208 73.171 52.2131C72.8444 52.1954 72.5048 52.2511 72.1519 52.3802C71.658 52.5609 71.2921 52.8262 71.0543 53.1761C70.8129 53.5159 70.6668 53.8665 70.6162 54.228C70.5756 54.5857 70.5808 54.881 70.6317 55.1139ZM102.157 55.6506L95.6216 57.7502C94.7745 55.5912 93.9211 53.4459 93.0613 51.3144C92.2116 49.1792 91.3586 47.0509 90.5025 44.9294C89.6427 42.7979 88.7746 40.6752 87.8983 38.5611C88.9576 38.0822 90.038 37.6298 91.1395 37.2039C92.2373 36.768 93.2953 36.3638 94.3135 35.9913C95.5434 35.5413 96.6758 35.1842 97.7107 34.9199C98.7456 34.6556 99.5963 34.4815 100.263 34.3976C100.658 35.2589 101.045 36.1459 101.425 37.0586C101.805 37.9713 102.116 38.7604 102.36 39.4257C101.959 39.5494 101.373 39.7293 100.603 39.9656C99.828 40.1918 98.9898 40.447 98.0879 40.7313C97.1824 41.0054 96.3314 41.2882 95.535 41.5795C95.6105 41.7234 95.6952 41.8924 95.7891 42.0867C95.8793 42.2708 95.9733 42.4651 96.0709 42.6694C96.1749 42.8599 96.267 43.0491 96.3471 43.237C96.8008 43.071 97.3695 42.8915 98.0532 42.6985C98.7333 42.4954 99.3988 42.3148 100.05 42.1568C100.7 41.9987 101.198 41.8908 101.543 41.8333C101.812 42.5692 102.087 43.3372 102.369 44.1373C102.646 44.9273 102.918 45.7939 103.183 46.7371C102.815 46.8258 102.372 46.9422 101.853 47.0863C101.341 47.2166 100.802 47.3681 100.236 47.5407C99.6808 47.7096 99.146 47.8881 98.6319 48.0762C99.0214 48.8596 99.4205 49.6851 99.8294 50.5528C100.238 51.4205 100.642 52.29 101.041 53.1614C101.436 54.0227 101.808 54.8525 102.157 55.6506ZM117.537 50.4868C115.703 51.158 114.126 51.3175 112.809 50.9651C111.487 50.6027 110.306 49.8117 109.266 48.5921C108.183 47.3195 107.185 45.6216 106.271 43.4984C105.353 41.3652 104.382 38.8973 103.356 36.0948C103.261 35.8327 103.165 35.5706 103.069 35.3085C102.983 35.0427 102.89 34.7737 102.791 34.5016C102.698 34.2156 102.604 33.9296 102.511 33.6437C102.414 33.3477 102.316 33.0466 102.215 32.7405C102.721 32.4983 103.23 32.2662 103.743 32.0441C104.263 31.8084 104.76 31.6038 105.233 31.4304C105.848 31.2055 106.471 31.0007 107.1 30.816C107.736 30.6176 108.316 30.4514 108.838 30.3174C109.04 31.0553 109.266 31.8467 109.518 32.6918C109.777 33.5231 110.054 34.3759 110.351 35.2503C110.648 36.1246 110.954 36.9902 111.267 37.8471C111.614 38.7947 111.936 39.614 112.235 40.3049C112.543 40.9921 112.84 41.5523 113.124 41.9856C113.454 42.482 113.783 42.8189 114.111 42.9961C114.445 43.1596 114.804 43.1713 115.187 43.0312C115.711 42.8394 116.042 42.5242 116.178 42.0855C116.315 41.6469 116.319 41.1255 116.189 40.5214C116.069 39.9136 115.881 39.2569 115.622 38.5512C115.486 38.1782 115.293 37.6659 115.043 37.0143C114.79 36.3527 114.509 35.6324 114.201 34.8535C113.89 34.0644 113.58 33.2974 113.274 32.5524C112.963 31.7973 112.686 31.133 112.441 30.5593C112.194 29.9756 112.008 29.5633 111.886 29.3223C112.38 29.1416 112.967 28.9497 113.647 28.7466C114.327 28.5435 114.999 28.3492 115.663 28.1635C116.336 27.9742 116.921 27.8231 117.417 27.7103C117.909 27.5873 118.217 27.5207 118.338 27.5104C118.604 27.9849 118.865 28.4952 119.121 29.0413C119.375 29.5774 119.62 30.1391 119.858 30.7265C120.102 31.3001 120.337 31.8944 120.562 32.5093C121.307 34.5457 121.896 36.5016 122.331 38.3772C122.766 40.2527 122.932 41.9866 122.828 43.5789C122.735 45.1675 122.271 46.5546 121.436 47.7402C120.611 48.9222 119.312 49.8377 117.537 50.4868ZM129.021 46.4054C128.795 45.9739 128.483 45.3394 128.085 44.5019C127.693 43.6507 127.241 42.679 126.727 41.5868C126.219 40.4809 125.687 39.3213 125.128 38.1082C124.58 36.8913 124.036 35.6846 123.495 34.4879C122.951 33.2811 122.443 32.1582 121.971 31.1191C121.51 30.0764 121.107 29.1779 120.763 28.4238C120.428 27.666 120.194 27.1346 120.059 26.8294C120.525 26.602 121.099 26.329 121.783 26.0103C122.466 25.6917 123.199 25.3665 123.98 25.0348C124.758 24.693 125.515 24.3875 126.251 24.1183C128.157 23.4213 129.848 23.014 131.325 22.8965C132.799 22.7689 134.098 22.9621 135.223 23.4763C136.359 23.9867 137.361 24.8372 138.231 26.0277C139.101 27.2183 139.887 28.7712 140.587 30.6866C141.388 32.8742 141.731 34.749 141.616 36.311C141.502 37.8731 140.949 39.2356 139.957 40.3986C138.961 41.5515 137.545 42.6011 135.708 43.5475C133.881 44.4902 131.652 45.4428 129.021 46.4054ZM132.396 38.0555C133.293 37.7272 133.941 37.3417 134.339 36.8989C134.743 36.4423 134.951 35.932 134.962 35.3679C134.979 34.7901 134.86 34.1534 134.606 33.4578C134.289 32.5909 133.869 31.7558 133.346 30.9525C132.824 30.1492 132.229 29.5382 131.561 29.1195C130.89 28.6906 130.171 28.6164 129.405 28.8967C129.254 28.952 129.093 29.011 128.921 29.0737C128.75 29.1364 128.616 29.1912 128.519 29.2382C128.882 30.0427 129.291 30.9732 129.746 32.0298C130.207 33.0725 130.672 34.1254 131.141 35.1883C131.606 36.2411 132.025 37.1969 132.396 38.0555ZM151.881 37.4079C151.703 37.4844 151.319 37.6534 150.729 37.915C150.149 38.173 149.521 38.4255 148.846 38.6726C148.382 38.8422 147.898 39.0023 147.393 39.1528C146.901 39.3096 146.403 39.4463 145.897 39.5629C145.841 39.286 145.703 38.7365 145.482 37.9143C145.261 37.0921 144.989 36.1287 144.665 35.0243C144.347 33.906 144.012 32.7543 143.658 31.5692C143.304 30.3841 142.962 29.275 142.629 28.2421C142.297 27.2092 142.017 26.3802 141.788 25.7552C142.043 25.6391 142.409 25.4825 142.885 25.2853C143.372 25.0845 143.894 24.8707 144.451 24.644C145.008 24.4173 145.542 24.2048 146.052 24.0067C146.559 23.7984 146.963 23.639 147.266 23.5283C147.462 23.8453 147.724 24.3895 148.052 25.1611C148.376 25.9225 148.713 26.7821 149.064 27.7398C149.396 28.6471 149.725 29.5952 150.053 30.5841C150.377 31.563 150.673 32.512 150.94 33.4314C151.214 34.3369 151.435 35.1422 151.601 35.8471C151.768 36.552 151.861 37.0723 151.881 37.4079ZM144.036 22.8069C142.977 23.1942 141.959 23.2237 140.982 22.8954C140.015 22.5635 139.343 21.8834 138.967 20.8551C138.716 20.1696 138.677 19.5153 138.849 18.8923C139.021 18.2692 139.336 17.7252 139.795 17.2603C140.26 16.7816 140.8 16.4297 141.415 16.2048C142.403 15.8433 143.344 15.8534 144.238 16.235C145.142 16.6129 145.776 17.3009 146.141 18.2989C146.484 19.2364 146.449 20.1408 146.037 21.0119C145.63 21.8693 144.963 22.4676 144.036 22.8069ZM161.453 34.1974C161.07 34.3375 160.594 34.5058 160.026 34.7023C159.472 34.9051 158.9 35.1085 158.312 35.3123C157.861 35.4544 157.328 35.621 156.712 35.812C156.109 36.0095 155.699 36.1368 155.48 36.1941C155.264 35.3242 154.977 34.3205 154.618 33.1831C154.269 32.042 153.865 30.7955 153.404 29.4437C152.944 28.0919 152.443 26.658 151.899 25.1422C151.363 23.6126 150.796 22.0313 150.198 20.3981C150.65 20.1643 151.198 19.9124 151.842 19.6425C152.482 19.3624 153.125 19.1044 153.77 18.8683C154.244 18.695 154.703 18.5441 155.148 18.4158C155.589 18.2774 155.985 18.1725 156.336 18.1012C156.365 18.1818 156.43 18.3583 156.529 18.6304C156.625 18.8926 156.727 19.1867 156.835 19.513C156.95 19.8255 157.048 20.1096 157.13 20.3654C157.179 19.9361 157.394 19.417 157.778 18.8082C158.161 18.1994 158.674 17.6174 159.316 17.0623C159.965 16.4933 160.698 16.0595 161.515 15.7607C163.057 15.1965 164.356 15.0756 165.411 15.3982C166.477 15.7171 167.398 16.4545 168.175 17.6104C168.959 18.7525 169.703 20.2862 170.407 22.2117C170.629 22.8166 170.878 23.5598 171.154 24.4416C171.438 25.3095 171.716 26.2251 171.988 27.1885C172.267 28.1381 172.5 29.0414 172.688 29.8985C172.443 30.0109 172.056 30.1699 171.525 30.3754C170.998 30.591 170.437 30.8077 169.843 31.0253C169.197 31.2613 168.584 31.4743 168.002 31.6644C167.423 31.8645 167.005 32.0006 166.745 32.0727C166.703 31.6766 166.609 31.0595 166.462 30.2216C166.312 29.3736 166.107 28.4371 165.846 27.4123C165.596 26.3838 165.301 25.4059 164.961 24.4784C164.703 23.7727 164.42 23.185 164.11 22.7151C163.808 22.2315 163.438 21.9094 163.003 21.7488C162.573 21.5745 162.041 21.6035 161.406 21.8358C161.012 21.9797 160.637 22.2028 160.279 22.5052C159.917 22.7976 159.589 23.1348 159.294 23.5169C159.006 23.8852 158.761 24.2608 158.558 24.6436C159.115 26.1658 159.582 27.5378 159.961 28.7596C160.346 29.9676 160.658 31.0248 160.898 31.9314C161.139 32.8379 161.324 33.5933 161.453 34.1974ZM183.057 21.3557C180.86 22.1597 179.017 22.5136 177.531 22.4175C176.05 22.3076 174.874 21.9036 174.001 21.2055C173.135 20.4937 172.521 19.6438 172.16 18.6559C171.68 17.3454 171.638 16.1207 172.033 14.9818C172.428 13.8429 173.164 12.8248 174.242 11.9276C175.329 11.0268 176.68 10.2813 178.293 9.69118C180.853 8.75441 182.932 8.59398 184.529 9.20991C186.126 9.82584 187.236 10.9856 187.859 12.6893C188.357 14.0502 188.48 15.2913 188.227 16.4125C187.981 17.5199 187.416 18.4922 186.534 19.3294C185.648 20.1566 184.489 20.832 183.057 21.3557ZM186.698 33.2769C185.086 33.867 183.552 34.251 182.096 34.429C180.645 34.6171 179.372 34.4655 178.278 33.9743C177.194 33.4793 176.39 32.5161 175.866 31.0846C175.553 30.2277 175.556 29.3294 175.875 28.3897C176.2 27.4362 176.819 26.5183 177.731 25.6361C178.653 24.7502 179.844 23.9771 181.306 23.3167C181.902 23.0413 182.529 22.7718 183.187 22.5082C183.852 22.2309 184.718 21.8968 185.787 21.5058C187.39 20.9194 188.834 20.8198 190.118 21.2071C191.399 21.5843 192.342 22.5995 192.947 24.2528C193.478 25.7044 193.519 27.0039 193.07 28.1511C192.635 29.3048 191.847 30.3074 190.707 31.1588C189.577 32.0066 188.241 32.7126 186.698 33.2769ZM185.504 29.6846C186.059 29.4818 186.515 29.2461 186.874 28.9776C187.244 28.7054 187.502 28.411 187.649 28.0943C187.799 27.7877 187.814 27.4681 187.692 27.1354C187.578 26.8229 187.395 26.6041 187.143 26.4789C186.906 26.3602 186.624 26.3089 186.298 26.3251C185.987 26.3477 185.659 26.4217 185.317 26.5471C185.125 26.6172 184.893 26.702 184.621 26.8016C184.359 26.8975 184.087 26.9971 183.804 27.1003C183.532 27.1999 183.285 27.2903 183.063 27.3714C182.721 27.4968 182.444 27.6322 182.235 27.7775C182.029 27.9329 181.897 28.1184 181.838 28.334C181.784 28.5597 181.819 28.844 181.945 29.1867C182.059 29.4992 182.274 29.729 182.591 29.876C182.921 30.0295 183.332 30.0906 183.824 30.0593C184.319 30.0382 184.879 29.9133 185.504 29.6846ZM179.715 25.9046C178.081 26.1252 176.9 26.1 176.173 25.829C175.441 25.548 174.963 25.1 174.738 24.485C174.553 23.981 174.504 23.5189 174.591 23.0987C174.683 22.6647 174.834 22.2953 175.043 21.9904C175.247 21.6754 175.443 21.4439 175.629 21.2959L180.077 21.6917C179.805 21.9169 179.621 22.1497 179.527 22.3902C179.428 22.6206 179.41 22.8215 179.473 22.9928C179.554 23.2146 179.754 23.3701 180.072 23.4594C180.39 23.5486 180.802 23.5011 181.306 23.3167L179.715 25.9046ZM180.973 17.1117C181.397 16.9568 181.751 16.77 182.037 16.5511C182.322 16.3323 182.512 16.0687 182.605 15.7604C182.698 15.4521 182.669 15.0913 182.517 14.6779C182.403 14.3654 182.204 14.1352 181.922 13.9871C181.649 13.8354 181.339 13.7544 180.993 13.7441C180.646 13.7338 180.311 13.7876 179.989 13.9056C179.434 14.1085 178.929 14.4135 178.472 14.8207C178.025 15.2241 177.91 15.7233 178.128 16.318C178.338 16.8926 178.711 17.2248 179.247 17.3146C179.783 17.4043 180.358 17.3367 180.973 17.1117ZM186.256 11.4929L181.9 9.89737C181.857 9.46733 181.929 8.96095 182.116 8.37822C182.299 7.78542 182.555 7.20576 182.885 6.63927C183.226 6.06908 183.594 5.60843 183.992 5.25732C184.255 5.44665 184.621 5.71281 185.089 6.05581C185.564 6.38504 186.053 6.72067 186.555 7.06268C187.057 7.4047 187.487 7.68771 187.843 7.9117C187.615 8.13225 187.396 8.378 187.187 8.64896C186.974 8.90983 186.792 9.19357 186.641 9.50018C186.487 9.7967 186.374 10.1124 186.302 10.4473C186.23 10.7822 186.215 11.1307 186.256 11.4929Z" fill="black" fill-opacity="0.54"/>
</svg>
