<svg width="197" height="98" viewBox="0 0 197 98" fill="none" xmlns="http://www.w3.org/2000/svg">
<path d="M14.8501 88.2723C14.3461 88.4567 13.7595 88.6656 13.0905 88.8989C12.4215 89.1323 11.7419 89.3523 11.0517 89.5591C10.3652 89.776 9.72677 89.9524 9.13642 90.0884C8.89497 89.4909 8.58714 88.7119 8.21292 87.7515C7.83502 86.7811 7.42761 85.7299 6.99069 84.5982C6.56017 83.4526 6.14575 82.3355 5.74743 81.2468C5.11677 79.5229 4.47541 77.723 3.82336 75.8469C3.16762 73.9608 2.50905 72.0357 1.84765 70.0717C2.05566 69.9841 2.38968 69.8505 2.84972 69.6708C3.31984 69.4873 3.8454 69.2836 4.4264 69.0597C5.00372 68.8256 5.56776 68.6021 6.11853 68.3892C6.66929 68.1762 7.13117 68.0015 7.50416 67.8651C7.92239 68.8208 8.38955 69.9415 8.90564 71.2272C9.42812 72.4991 9.9613 73.8471 10.5052 75.2713C11.0554 76.6816 11.585 78.0824 12.094 79.4735C12.3559 80.1893 12.6071 80.8917 12.8478 81.5809C13.0886 82.2701 13.315 82.936 13.5272 83.5784C13.7458 84.2071 13.9382 84.8111 14.1044 85.3904C14.277 85.9559 14.4247 86.4848 14.5477 86.9771C14.6807 87.4656 14.7815 87.8974 14.8501 88.2723ZM35.6502 79.6511C35.4272 80.0413 34.9182 80.5247 34.1233 81.1013C33.3321 81.6879 32.4274 82.1675 31.4092 82.54C30.1188 83.0121 29.0295 83.0963 28.1411 82.7926C27.2528 82.489 26.4945 81.8691 25.8663 80.933C25.2344 79.9869 24.6603 78.8082 24.144 77.3968C23.6903 76.1569 23.2634 74.9586 22.8631 73.802C22.4591 72.6353 22.0768 71.5122 21.7161 70.4325C21.3655 69.3492 21.0315 68.3112 20.714 67.3186C20.403 66.3122 20.1086 65.3512 19.8307 64.4356C19.5529 63.5199 19.2917 62.6497 19.047 61.8247C19.9221 61.436 20.7326 61.1052 21.4786 60.8323C21.9524 60.6589 22.4249 60.4975 22.896 60.348C23.3772 60.1949 23.9193 60.0365 24.5224 59.873C24.8234 60.8831 25.1414 61.9555 25.4766 63.0902C25.8117 64.2249 26.15 65.3527 26.4915 66.4737C26.833 67.5946 27.1593 68.6583 27.4703 69.6647C27.7814 70.671 28.0601 71.5578 28.3064 72.3249C28.5491 73.082 28.7423 73.6571 28.8862 74.0502C29.0964 74.6249 29.3065 75.1367 29.5165 75.5856C29.7365 76.0309 29.972 76.362 30.2228 76.5788C30.4836 76.792 30.7703 76.8414 31.0828 76.7271C31.3953 76.6128 31.6303 76.4582 31.7876 76.2635C31.9551 76.0651 32.0674 75.8411 32.1247 75.5915C32.2506 75.7169 32.4822 75.9751 32.8196 76.3661C33.167 76.7533 33.5411 77.1822 33.9419 77.6529C34.3527 78.1198 34.7199 78.5455 35.0435 78.9301C35.3634 79.3045 35.5656 79.5449 35.6502 79.6511ZM44.7012 77.2314C42.0096 78.2161 39.7005 78.2779 37.7738 77.4168C35.8535 76.542 34.4065 74.7739 33.4329 72.1125C32.7616 70.2778 32.5713 68.6329 32.862 67.1778C33.1489 65.7126 33.8256 64.4535 34.8919 63.4004C35.9546 62.3372 37.3227 61.4996 38.9961 60.8873C40.6494 60.2825 42.1688 60.1553 43.5543 60.5056C44.9462 60.8422 46.166 61.5676 47.2136 62.6817C48.2576 63.7856 49.0931 65.1945 49.7201 66.9083C50.2733 68.4204 50.4572 69.8448 50.2718 71.1814C50.0864 72.5179 49.5284 73.7108 48.5977 74.76C47.6735 75.7953 46.3746 76.6191 44.7012 77.2314ZM42.5186 71.8747C42.8916 71.7382 43.2173 71.5505 43.4956 71.3115C43.7803 71.0588 43.9975 70.7621 44.1473 70.4216C44.3071 70.0773 44.3875 69.6879 44.3885 69.2532C44.3858 68.8084 44.2904 68.3289 44.1023 67.8148C43.8515 67.1293 43.5262 66.5682 43.1264 66.1315C42.723 65.6848 42.278 65.3903 41.7917 65.2482C41.3017 65.096 40.7945 65.1158 40.2703 65.3076C39.6352 65.5399 39.1888 65.8976 38.9312 66.3804C38.6836 66.8597 38.5713 67.3808 38.5944 67.9439C38.6175 68.5069 38.7176 69.0304 38.8946 69.5143C39.2303 70.4316 39.7191 71.1272 40.361 71.601C41.003 72.0748 41.7222 72.1661 42.5186 71.8747ZM56.3754 53.9634C57.3179 53.79 58.2072 53.659 59.0434 53.5702C59.8796 53.4815 60.5774 53.4205 61.1368 53.3873C61.7026 53.3403 62.0483 53.3167 62.1739 53.3165C62.2905 54.2911 62.4016 55.3135 62.5073 56.3835C62.6093 57.4435 62.7004 58.5361 62.7806 59.6612C62.8671 60.7726 62.9353 61.8963 62.9853 63.0325C63.0315 64.1586 63.0538 65.2821 63.0524 66.4028C63.0573 67.5097 63.0291 68.5887 62.9679 69.6398C62.3431 69.9941 61.567 70.3409 60.6396 70.6802C60.1758 70.8499 59.7167 71.0007 59.262 71.1328C58.8037 71.2547 58.4109 71.3527 58.0837 71.4267C57.2098 70.5691 56.3364 69.6656 55.4633 68.7163C54.5966 67.7532 53.7183 66.7429 52.8285 65.6854C51.9386 64.6278 51.0336 63.513 50.1133 62.3409C49.203 61.1652 48.2656 59.9307 47.3011 58.6377C47.4449 58.5622 47.7119 58.4016 48.1022 58.156C48.4924 57.9104 48.9274 57.6312 49.4074 57.3184C49.8937 56.9919 50.365 56.6709 50.8211 56.3555C51.2772 56.04 51.6449 55.7797 51.9242 55.5747C52.2856 56.094 52.7086 56.6879 53.1933 57.3564C53.6742 58.0149 54.1744 58.6949 54.694 59.3963C55.2199 60.0841 55.7228 60.7402 56.2028 61.3647C56.6827 61.9892 57.0992 62.5341 57.4523 62.9993C57.8118 63.4507 58.0655 63.7694 58.2135 63.9553L58.0653 64.1124C58.0109 63.5265 57.9489 62.9662 57.879 62.4317C57.8092 61.8972 57.7288 61.3494 57.6378 60.7883C57.5569 60.2235 57.4544 59.6152 57.3302 58.9634C57.2162 58.3079 57.0795 57.5749 56.9201 56.7645C56.7571 55.944 56.5756 55.0103 56.3754 53.9634ZM83.2624 60.2606C83.08 60.7617 82.8191 61.2514 82.4798 61.7299C82.1506 62.2047 81.7291 62.6618 81.2155 63.1012C80.7082 63.5268 80.1019 63.9315 79.3965 64.3153C78.6948 64.7092 77.8902 65.0721 76.983 65.404C75.4507 65.9646 73.9782 66.189 72.5657 66.0771C71.1595 65.9514 69.909 65.4545 68.8141 64.5863C67.7192 63.7181 66.862 62.4372 66.2424 60.7436C65.6007 58.9895 65.3828 57.3318 65.5889 55.7705C65.805 54.2055 66.4104 52.8296 67.4049 51.6428C68.3995 50.4559 69.7537 49.549 71.4674 48.922C73.6248 48.1328 75.5469 48.0754 77.2338 48.7498C78.9171 49.4142 80.1386 50.7847 80.8984 52.8614C81.0459 53.2646 81.1617 53.628 81.2458 53.9516C81.3262 54.2651 81.3924 54.6181 81.4446 55.0105C81.2796 55.0594 80.918 55.1803 80.3599 55.373C79.8118 55.5621 79.1982 55.7751 78.5191 56.0122C77.8501 56.2455 77.2365 56.4585 76.6784 56.6513C76.1202 56.8441 75.7555 56.9718 75.5841 57.0345C74.8079 57.3185 74.1 57.6175 73.4605 57.9314C72.8273 58.2317 72.3372 58.4853 71.99 58.6923C72.0342 58.8133 72.0854 58.9374 72.1434 59.0648C72.2078 59.1784 72.2805 59.2833 72.3614 59.3794C72.5755 59.6211 72.8386 59.7935 73.1506 59.8965C73.4627 59.9995 73.8085 60.0387 74.1881 60.0141C74.5641 59.9795 74.9486 59.8902 75.3418 59.7464C75.624 59.6431 75.8939 59.5215 76.1513 59.3816C76.4088 59.2417 76.6551 59.0716 76.8904 58.8712C77.1321 58.657 77.3559 58.4094 77.5617 58.1284C77.7776 57.8437 77.9851 57.5049 78.1842 57.112C78.2632 57.1402 78.5041 57.2521 78.9071 57.4476C79.3202 57.6394 79.7994 57.887 80.3447 58.1904C80.8901 58.4938 81.4295 58.828 81.9631 59.1928C82.493 59.5476 82.9261 59.9035 83.2624 60.2606ZM71.0189 55.2413C71.2827 55.0876 71.6341 54.9077 72.073 54.7014C72.5119 54.4951 73.0388 54.2794 73.6537 54.0545C74.0066 53.9254 74.3411 53.8087 74.6573 53.7045C74.9735 53.6002 75.1989 53.5292 75.3337 53.4913C75.2857 53.3602 75.2052 53.2183 75.0921 53.0653C74.9293 52.8391 74.7121 52.6671 74.4404 52.5493C74.1751 52.4178 73.8811 52.3482 73.5582 52.3406C73.2317 52.3229 72.892 52.3786 72.5392 52.5077C72.0452 52.6884 71.6794 52.9537 71.4416 53.3036C71.2001 53.6434 71.0541 53.994 71.0034 54.3554C70.9629 54.7132 70.968 55.0085 71.0189 55.2413ZM102.545 55.778L96.0088 57.8776C95.1618 55.7186 94.3084 53.5733 93.4486 51.4418C92.5988 49.3066 91.7459 47.1783 90.8898 45.0569C90.03 42.9254 89.1619 40.8026 88.2856 38.6886C89.3448 38.2096 90.4252 37.7572 91.5268 37.3313C92.6246 36.8954 93.6826 36.4912 94.7008 36.1187C95.9307 35.6687 97.063 35.3116 98.0979 35.0473C99.1328 34.783 99.9836 34.6089 100.65 34.5251C101.045 35.3864 101.433 36.2734 101.812 37.1861C102.192 38.0988 102.503 38.8878 102.747 39.5531C102.346 39.6768 101.761 39.8568 100.99 40.0931C100.215 40.3193 99.3771 40.5745 98.4752 40.8587C97.5696 41.1329 96.7187 41.4156 95.9223 41.707C95.9977 41.8508 96.0824 42.0199 96.1764 42.2141C96.2666 42.3983 96.3605 42.5925 96.4581 42.7968C96.5621 42.9874 96.6542 43.1766 96.7344 43.3644C97.188 43.1985 97.7567 43.019 98.4405 42.826C99.1206 42.6229 99.7861 42.4423 100.437 42.2842C101.088 42.1261 101.586 42.0183 101.93 41.9607C102.199 42.6967 102.475 43.4647 102.756 44.2647C103.034 45.0547 103.305 45.9213 103.57 46.8645C103.202 46.9533 102.759 47.0697 102.24 47.2138C101.728 47.3441 101.189 47.4955 100.624 47.6681C100.068 47.8371 99.5333 48.0156 99.0192 48.2037C99.4086 48.987 99.8078 49.8125 100.217 50.6802C100.626 51.5479 101.029 52.4175 101.428 53.2889C101.823 54.1502 102.195 54.9799 102.545 55.778ZM117.925 50.6142C116.09 51.2854 114.514 51.4449 113.196 51.0925C111.875 50.7301 110.694 49.9391 109.653 48.7196C108.57 47.4469 107.572 45.749 106.658 43.6259C105.74 41.4926 104.769 39.0248 103.744 36.2223C103.648 35.9602 103.552 35.6981 103.456 35.436C103.37 35.1702 103.278 34.9012 103.178 34.629C103.085 34.343 102.992 34.0571 102.898 33.7711C102.802 33.4751 102.703 33.174 102.602 32.8679C103.108 32.6257 103.617 32.3936 104.131 32.1716C104.65 31.9358 105.147 31.7312 105.621 31.5579C106.236 31.3329 106.858 31.1281 107.488 30.9435C108.124 30.745 108.703 30.5788 109.225 30.4448C109.427 31.1827 109.653 31.9742 109.906 32.8193C110.164 33.6506 110.442 34.5034 110.739 35.3777C111.036 36.2521 111.341 37.1177 111.654 37.9746C112.001 38.9222 112.324 39.7414 112.622 40.4323C112.931 41.1196 113.227 41.6798 113.511 42.113C113.842 42.6095 114.171 42.9463 114.498 43.1236C114.832 43.2871 115.191 43.2988 115.574 43.1586C116.098 42.9668 116.429 42.6516 116.566 42.213C116.702 41.7743 116.706 41.253 116.576 40.6488C116.457 40.041 116.268 39.3843 116.01 38.6786C115.873 38.3056 115.68 37.7934 115.43 37.1418C115.177 36.4801 114.896 35.7598 114.588 34.9809C114.277 34.1919 113.968 33.4249 113.661 32.6799C113.35 31.9248 113.073 31.2604 112.829 30.6868C112.581 30.1031 112.396 29.6907 112.273 29.4498C112.767 29.2691 113.354 29.0772 114.034 28.8741C114.715 28.671 115.386 28.4766 116.05 28.291C116.724 28.1017 117.309 27.9506 117.804 27.8377C118.297 27.7148 118.604 27.6482 118.726 27.6378C118.991 28.1124 119.252 28.6227 119.509 29.1688C119.762 29.7048 120.007 30.2665 120.245 30.8539C120.489 31.4275 120.724 32.0218 120.949 32.6368C121.694 34.6731 122.284 36.629 122.718 38.5046C123.153 40.3801 123.319 42.1141 123.216 43.7064C123.122 45.295 122.658 46.6821 121.823 47.8677C120.998 49.0496 119.699 49.9651 117.925 50.6142ZM129.409 46.5328C129.182 46.1013 128.87 45.4668 128.472 44.6294C128.081 43.7782 127.628 42.8065 127.114 41.7143C126.607 40.6083 126.074 39.4488 125.516 38.2356C124.968 37.0188 124.423 35.812 123.883 34.6153C123.338 33.4086 122.83 32.2856 122.359 31.2466C121.897 30.2038 121.494 29.3054 121.15 28.5513C120.815 27.7935 120.581 27.262 120.446 26.9569C120.912 26.7294 121.486 26.4564 122.17 26.1377C122.853 25.8191 123.586 25.4939 124.368 25.1622C125.146 24.8205 125.903 24.515 126.638 24.2458C128.544 23.5487 130.235 23.1414 131.712 23.0239C133.186 22.8963 134.485 23.0896 135.611 23.6037C136.746 24.1141 137.749 24.9646 138.619 26.1552C139.489 27.3457 140.274 28.8987 140.975 30.814C141.775 33.0016 142.118 34.8764 142.004 36.4385C141.889 38.0005 141.336 39.363 140.344 40.526C139.349 41.6789 137.932 42.7286 136.096 43.6749C134.269 44.6176 132.04 45.5703 129.409 46.5328ZM132.783 38.1829C133.68 37.8547 134.328 37.4691 134.726 37.0263C135.131 36.5697 135.338 36.0594 135.349 35.4954C135.366 34.9176 135.248 34.2809 134.993 33.5853C134.676 32.7183 134.256 31.8832 133.734 31.0799C133.211 30.2766 132.616 29.6656 131.949 29.2469C131.277 28.8181 130.559 28.7438 129.793 29.0241C129.641 29.0794 129.48 29.1385 129.309 29.2012C129.137 29.2639 129.003 29.3187 128.906 29.3656C129.269 30.1702 129.678 31.1007 130.133 32.1572C130.594 33.2 131.06 34.2528 131.529 35.3157C131.994 36.3686 132.412 37.3243 132.783 38.1829ZM152.268 37.5354C152.09 37.6118 151.706 37.7809 151.116 38.0425C150.536 38.3004 149.908 38.5529 149.233 38.8C148.769 38.9697 148.285 39.1297 147.78 39.2802C147.289 39.4371 146.79 39.5738 146.284 39.6903C146.228 39.4135 146.09 38.8639 145.869 38.0417C145.649 37.2195 145.376 36.2562 145.052 35.1517C144.735 34.0334 144.399 32.8818 144.045 31.6966C143.692 30.5115 143.349 29.4025 143.017 28.3696C142.685 27.3366 142.404 26.5077 142.175 25.8826C142.43 25.7666 142.796 25.61 143.272 25.4128C143.759 25.2119 144.281 24.9981 144.838 24.7714C145.395 24.5447 145.929 24.3323 146.439 24.1341C146.946 23.9259 147.351 23.7664 147.653 23.6558C147.849 23.9727 148.111 24.5169 148.439 25.2885C148.763 26.05 149.101 26.9096 149.451 27.8673C149.783 28.7746 150.113 29.7227 150.44 30.7116C150.764 31.6904 151.06 32.6395 151.328 33.5588C151.602 34.4644 151.822 35.2696 151.988 35.9746C152.155 36.6795 152.248 37.1998 152.268 37.5354ZM144.423 22.9343C143.365 23.3216 142.347 23.3511 141.369 23.0228C140.402 22.6909 139.73 22.0108 139.354 20.9826C139.103 20.2971 139.064 19.6428 139.236 19.0197C139.408 18.3967 139.724 17.8527 140.182 17.3877C140.647 16.909 141.187 16.5572 141.802 16.3322C142.79 15.9708 143.731 15.9808 144.625 16.3624C145.529 16.7404 146.164 17.4283 146.529 18.4263C146.872 19.3639 146.837 20.2682 146.424 21.1393C146.017 21.9967 145.35 22.595 144.423 22.9343ZM161.84 34.3248C161.457 34.465 160.982 34.6333 160.413 34.8297C159.859 35.0326 159.288 35.2359 158.699 35.4397C158.248 35.5819 157.715 35.7484 157.099 35.9395C156.497 36.1369 156.086 36.2643 155.867 36.3216C155.652 35.4516 155.364 34.448 155.005 33.3106C154.657 32.1694 154.252 30.923 153.792 29.5711C153.331 28.2193 152.83 26.7855 152.287 25.2696C151.75 23.7401 151.183 22.1587 150.585 20.5256C151.037 20.2918 151.585 20.0399 152.229 19.7699C152.87 19.4898 153.512 19.2318 154.158 18.9958C154.631 18.8224 155.091 18.6716 155.535 18.5432C155.976 18.4048 156.372 18.2999 156.723 18.2286C156.753 18.3093 156.817 18.4857 156.917 18.7579C157.013 19.02 157.115 19.3142 157.223 19.6405C157.337 19.953 157.435 20.2371 157.517 20.4928C157.566 20.0635 157.782 19.5445 158.165 18.9357C158.548 18.3269 159.061 17.7449 159.704 17.1897C160.353 16.6208 161.085 16.1869 161.902 15.8882C163.444 15.3239 164.743 15.2031 165.799 15.5256C166.864 15.8446 167.785 16.5819 168.562 17.7378C169.346 18.8799 170.09 20.4137 170.794 22.3391C171.016 22.944 171.265 23.6873 171.542 24.569C171.825 25.4369 172.103 26.3526 172.375 27.3159C172.654 28.2655 172.887 29.1689 173.075 30.026C172.831 30.1383 172.443 30.2973 171.912 30.5029C171.385 30.7185 170.825 30.9351 170.23 31.1527C169.585 31.3887 168.971 31.6018 168.389 31.7918C167.811 31.992 167.392 32.1281 167.132 32.2001C167.09 31.804 166.996 31.187 166.85 30.349C166.699 29.501 166.494 28.5646 166.233 27.5398C165.983 26.5113 165.688 25.5333 165.349 24.6059C165.09 23.9002 164.807 23.3124 164.498 22.8425C164.195 22.3589 163.826 22.0368 163.39 21.8762C162.96 21.7019 162.428 21.7309 161.793 21.9633C161.4 22.1071 161.024 22.3302 160.666 22.6327C160.304 22.925 159.976 23.2622 159.682 23.6443C159.394 24.0126 159.148 24.3882 158.945 24.771C159.502 26.2933 159.97 27.6653 160.348 28.887C160.733 30.095 161.045 31.1523 161.286 32.0588C161.526 32.9654 161.711 33.7207 161.84 34.3248ZM183.445 21.4831C181.247 22.2871 179.405 22.6411 177.918 22.5449C176.437 22.435 175.261 22.031 174.388 21.333C173.522 20.6212 172.908 19.7713 172.547 18.7834C172.067 17.4728 172.025 16.2481 172.42 15.1092C172.815 13.9703 173.551 12.9523 174.629 12.0551C175.717 11.1542 177.067 10.4087 178.68 9.81862C181.24 8.88185 183.319 8.72142 184.916 9.33735C186.513 9.95328 187.623 11.1131 188.247 12.8168C188.744 14.1777 188.867 15.4187 188.614 16.5399C188.368 17.6474 187.803 18.6197 186.921 19.4569C186.035 20.284 184.876 20.9594 183.445 21.4831ZM187.086 33.4043C185.473 33.9944 183.939 34.3785 182.484 34.5565C181.032 34.7446 179.76 34.593 178.665 34.1017C177.581 33.6068 176.777 32.6435 176.254 31.212C175.94 30.3552 175.943 29.4569 176.262 28.5171C176.588 27.5636 177.206 26.6458 178.118 25.7636C179.04 24.8777 180.232 24.1045 181.693 23.4441C182.29 23.1687 182.917 22.8993 183.575 22.6357C184.239 22.3583 185.106 22.0242 186.174 21.6333C187.777 21.0468 189.221 20.9473 190.505 21.3345C191.786 21.7117 192.729 22.7269 193.334 24.3802C193.865 25.8319 193.906 27.1313 193.457 28.2786C193.022 29.4322 192.235 30.4348 191.094 31.2863C189.964 32.134 188.628 32.8401 187.086 33.4043ZM185.892 29.8121C186.446 29.6092 186.903 29.3736 187.262 29.1051C187.631 28.8329 187.889 28.5385 188.036 28.2218C188.187 27.9152 188.201 27.5955 188.079 27.2628C187.965 26.9503 187.782 26.7315 187.531 26.6064C187.293 26.4876 187.011 26.4363 186.686 26.4526C186.374 26.4752 186.047 26.5492 185.704 26.6746C185.512 26.7446 185.28 26.8295 185.008 26.9291C184.746 27.0249 184.474 27.1245 184.192 27.2278C183.92 27.3274 183.673 27.4177 183.451 27.4989C183.108 27.6243 182.832 27.7596 182.622 27.9049C182.416 28.0603 182.284 28.2458 182.226 28.4615C182.171 28.6872 182.206 28.9714 182.332 29.3142C182.446 29.6267 182.662 29.8564 182.978 30.0035C183.309 30.1569 183.72 30.218 184.211 30.1868C184.706 30.1656 185.267 30.0407 185.892 29.8121ZM180.102 26.0321C178.468 26.2526 177.288 26.2274 176.56 25.9564C175.828 25.6754 175.35 25.2274 175.125 24.6125C174.941 24.1084 174.892 23.6463 174.978 23.2261C175.071 22.7921 175.221 22.4227 175.43 22.1178C175.635 21.8029 175.83 21.5714 176.016 21.4233L180.464 21.8191C180.192 22.0443 180.009 22.2772 179.914 22.5176C179.815 22.748 179.797 22.9489 179.86 23.1203C179.941 23.3421 180.141 23.4976 180.459 23.5868C180.778 23.6761 181.189 23.6285 181.693 23.4441L180.102 26.0321ZM181.36 17.2392C181.784 17.0843 182.138 16.8974 182.424 16.6786C182.71 16.4598 182.899 16.1962 182.992 15.8879C183.085 15.5795 183.056 15.2187 182.905 14.8054C182.79 14.4929 182.592 14.2626 182.309 14.1146C182.036 13.9629 181.727 13.8819 181.38 13.8715C181.033 13.8612 180.699 13.9151 180.376 14.0331C179.822 14.2359 179.316 14.5409 178.859 14.9481C178.412 15.3516 178.298 15.8507 178.515 16.4455C178.726 17.0201 179.099 17.3523 179.634 17.442C180.17 17.5318 180.745 17.4642 181.36 17.2392ZM186.643 11.6203L182.287 10.0248C182.244 9.59477 182.316 9.08839 182.503 8.50566C182.686 7.91286 182.943 7.33321 183.273 6.76671C183.613 6.19652 183.981 5.73587 184.379 5.38477C184.642 5.57409 185.008 5.84025 185.477 6.18326C185.952 6.51249 186.44 6.84811 186.942 7.19013C187.445 7.53214 187.874 7.81515 188.23 8.03914C188.002 8.25969 187.784 8.50544 187.574 8.7764C187.361 9.03727 187.179 9.32101 187.028 9.62762C186.874 9.92415 186.761 10.2398 186.689 10.5747C186.617 10.9096 186.602 11.2581 186.643 11.6203Z" fill="black" fill-opacity="0.54"/>
</svg>
