<svg width="198" height="34" viewBox="0 0 198 34" fill="none" xmlns="http://www.w3.org/2000/svg">
<path d="M6.81401 24.5761C6.2773 24.5738 5.65473 24.5658 4.94632 24.552C4.2379 24.5382 3.52418 24.5083 2.80517 24.4623C2.08611 24.427 1.42618 24.3705 0.82538 24.2928C0.806677 23.6486 0.788805 22.8113 0.771762 21.7807C0.754765 20.7394 0.738137 19.6122 0.721878 18.3991C0.716399 17.1753 0.716149 15.9838 0.721128 14.8245C0.729011 12.9889 0.753318 11.0783 0.79405 9.0926C0.834827 7.09615 0.886501 5.06219 0.94907 2.9907C1.17454 2.98093 1.53418 2.97174 2.02801 2.96313C2.53256 2.95456 3.09616 2.94625 3.7188 2.93819C4.34148 2.91939 4.94804 2.90589 5.53847 2.8977C6.1289 2.8895 6.6227 2.88625 7.01987 2.88796C7.07981 3.92946 7.12827 5.14267 7.16526 6.52758C7.21303 7.9018 7.24438 9.35109 7.2593 10.8755C7.285 12.3891 7.29467 13.8866 7.28831 15.368C7.28504 16.1301 7.27646 16.8761 7.26259 17.606C7.24873 18.3359 7.2296 19.0389 7.20523 19.7151C7.19164 20.3806 7.16208 21.0138 7.11656 21.6147C7.08183 22.205 7.03654 22.7522 6.9807 23.2565C6.9356 23.7608 6.88003 24.2007 6.81401 24.5761ZM29.3138 23.7228C28.9691 24.0111 28.3238 24.2874 27.3781 24.5517C26.4323 24.8268 25.4173 24.962 24.3331 24.9573C22.9591 24.9514 21.9084 24.6517 21.181 24.0582C20.4536 23.4647 19.9581 22.6199 19.6944 21.5238C19.4308 20.417 19.3023 19.1122 19.3087 17.6094C19.3144 16.2891 19.3306 15.0171 19.3573 13.7935C19.3841 12.5592 19.416 11.3731 19.4531 10.2354C19.5009 9.0978 19.5485 8.00845 19.5959 6.96741C19.6541 5.91567 19.7121 4.91225 19.7699 3.95712C19.8277 3.002 19.8852 2.09518 19.9426 1.23667C20.8982 1.17637 21.7732 1.14792 22.5675 1.15133C23.072 1.1535 23.5711 1.16638 24.0648 1.18997C24.5693 1.2136 25.1326 1.25359 25.755 1.30994C25.6861 2.36162 25.6115 3.47769 25.5313 4.65814C25.4511 5.83859 25.3763 7.0137 25.3068 8.18346C25.2374 9.35322 25.1736 10.464 25.1154 11.5157C25.0572 12.5674 25.0103 13.4958 24.9746 14.3007C24.939 15.0949 24.9203 15.7013 24.9185 16.12C24.9159 16.7318 24.935 17.2847 24.9758 17.7787C25.0273 18.2727 25.133 18.665 25.2928 18.9555C25.4633 19.246 25.7149 19.392 26.0477 19.3935C26.3804 19.3949 26.6544 19.3317 26.8697 19.2038C27.0957 19.0759 27.2789 18.905 27.4193 18.6909C27.4938 18.8522 27.6212 19.1748 27.8016 19.6586C27.9928 20.1425 28.1944 20.6747 28.4066 21.2553C28.6296 21.8359 28.8259 22.3628 28.9956 22.8358C29.1654 23.2981 29.2715 23.5938 29.3138 23.7228ZM38.6415 24.6001C35.7755 24.5878 33.5888 23.8431 32.0816 22.366C30.5852 20.8782 29.843 18.7174 29.8552 15.8835C29.8636 13.9299 30.257 12.3214 31.0353 11.0581C31.8136 9.78401 32.8858 8.83861 34.2517 8.22188C35.6177 7.59441 37.1916 7.2845 38.9735 7.29215C40.7339 7.29971 42.2028 7.70856 43.3801 8.51871C44.5682 9.31816 45.4598 10.4223 46.0549 11.8311C46.65 13.2291 46.9437 14.8405 46.9358 16.6654C46.9289 18.2755 46.6062 19.675 45.9678 20.8638C45.3293 22.0526 44.3915 22.9771 43.1542 23.6373C41.9276 24.2868 40.4234 24.6078 38.6415 24.6001ZM38.457 18.8188C38.8542 18.8205 39.2248 18.7577 39.5689 18.6303C39.9237 18.4923 40.2305 18.2897 40.4893 18.0224C40.7588 17.7552 40.9696 17.418 41.1216 17.0107C41.2737 16.5927 41.3509 16.11 41.3532 15.5626C41.3564 14.8326 41.2464 14.1935 41.0233 13.645C40.8003 13.0859 40.4855 12.6552 40.0789 12.3529C39.6723 12.0398 39.1899 11.8821 38.6318 11.8797C37.9555 11.8768 37.4126 12.0569 37.0032 12.4201C36.6044 12.7834 36.318 13.233 36.144 13.769C35.9699 14.305 35.8818 14.8306 35.8796 15.3458C35.8754 16.3227 36.0919 17.1448 36.5292 17.8122C36.9664 18.4796 37.609 18.8151 38.457 18.8188ZM57.6759 6.84112C58.6198 7.00619 59.4992 7.19245 60.3142 7.39991C61.1291 7.60736 61.8046 7.79275 62.3406 7.95607C62.8874 8.1087 63.2197 8.20674 63.3376 8.25018C63.1081 9.20457 62.8569 10.2018 62.5841 11.2419C62.3113 12.2712 62.0169 13.3273 61.701 14.4101C61.3958 15.4823 61.0692 16.5597 60.721 17.6424C60.3729 18.7143 60.0034 19.7755 59.6124 20.8258C59.2322 21.8654 58.8308 22.8673 58.408 23.8316C57.699 23.9466 56.8507 24.002 55.8632 23.9978C55.3694 23.9957 54.8864 23.9775 54.4143 23.9433C53.9421 23.8983 53.5398 23.8536 53.2072 23.8093C52.686 22.7014 52.181 21.5506 51.6924 20.357C51.2145 19.1527 50.7422 17.9001 50.2755 16.5992C49.8087 15.2983 49.3476 13.9384 48.8921 12.5195C48.4474 11.1007 47.9975 9.61736 47.5426 8.06963C47.7037 8.04886 48.0099 7.99113 48.4611 7.89646C48.9124 7.80179 49.4174 7.69124 49.9761 7.56483C50.5456 7.42773 51.0991 7.29056 51.6364 7.15331C52.1737 7.01607 52.6089 6.89986 52.9421 6.80468C53.1005 7.41723 53.2907 8.12116 53.5127 8.91646C53.7348 9.70104 53.9674 10.5125 54.2107 11.3508C54.4648 12.1785 54.7083 12.9685 54.9412 13.7209C55.1742 14.4733 55.3753 15.129 55.5446 15.6879C55.7248 16.2362 55.8519 16.6231 55.9261 16.8489L55.7325 16.9447C55.8852 16.3764 56.0217 15.8295 56.1421 15.3041C56.2624 14.7786 56.3774 14.237 56.4872 13.6793C56.6076 13.1216 56.723 12.5156 56.8331 11.8612C56.954 11.207 57.0806 10.4722 57.2129 9.65693C57.3453 8.83095 57.4996 7.89234 57.6759 6.84112ZM80.6973 22.0917C80.352 22.4982 79.9371 22.8667 79.4527 23.1974C78.9789 23.5281 78.4249 23.8102 77.7906 24.0437C77.167 24.2664 76.4578 24.4351 75.663 24.5498C74.8681 24.6752 73.9876 24.7358 73.0215 24.7317C71.3899 24.7247 69.9313 24.4232 68.6457 23.8273C67.3709 23.2207 66.3711 22.32 65.6463 21.1254C64.9215 19.9308 64.5629 18.4318 64.5707 16.6284C64.5787 14.7606 64.9507 13.1306 65.6866 11.7382C66.4332 10.346 67.4791 9.26628 68.8242 8.49917C70.1693 7.73206 71.7543 7.35243 73.5791 7.36026C75.8763 7.37013 77.6985 7.98446 79.0458 9.20324C80.3932 10.4113 81.0621 12.1209 81.0526 14.3322C81.0508 14.7616 81.033 15.1426 80.9994 15.4752C80.9658 15.7971 80.9053 16.1511 80.8177 16.5371C80.646 16.5257 80.265 16.5133 79.6747 16.5C79.0951 16.4868 78.4457 16.4733 77.7265 16.4595C77.0181 16.4457 76.3687 16.4322 75.7784 16.4189C75.188 16.4056 74.8016 16.3986 74.6191 16.3978C73.7926 16.3943 73.0249 16.4285 72.3162 16.5006C71.6181 16.562 71.0704 16.6295 70.6729 16.7029C70.6724 16.8317 70.6771 16.9659 70.6873 17.1055C70.7082 17.2344 70.7399 17.358 70.7823 17.4763C70.8991 17.7773 71.0859 18.0304 71.3426 18.2354C71.5993 18.4405 71.91 18.5975 72.2745 18.7064C72.639 18.8046 73.0306 18.8546 73.4493 18.8564C73.7498 18.8576 74.0451 18.8374 74.3351 18.7958C74.6251 18.7541 74.9153 18.6802 75.2056 18.5741C75.5066 18.4573 75.8025 18.3029 76.0932 18.1109C76.3945 17.919 76.7069 17.6735 77.0302 17.3743C77.0944 17.4282 77.2814 17.6169 77.5913 17.9402C77.912 18.2637 78.2753 18.6624 78.6811 19.1365C79.087 19.6105 79.4767 20.1113 79.8501 20.6389C80.2236 21.1558 80.506 21.6401 80.6973 22.0917ZM70.962 13.1296C71.2628 13.0772 71.6548 13.0306 72.138 12.9897C72.6212 12.9488 73.1903 12.9298 73.845 12.9326C74.2207 12.9342 74.575 12.9411 74.9077 12.9533C75.2404 12.9654 75.4765 12.9772 75.616 12.9885C75.6166 12.849 75.5905 12.6878 75.5376 12.5051C75.4636 12.2365 75.3197 11.9997 75.1059 11.7948C74.9028 11.5792 74.6513 11.4118 74.3512 11.2924C74.0512 11.1623 73.7134 11.0964 73.3377 11.0948C72.8117 11.0926 72.3764 11.2142 72.0319 11.4596C71.6874 11.6942 71.4285 11.9722 71.2554 12.2935C71.093 12.6149 70.9952 12.8935 70.962 13.1296ZM100.335 24.5913L93.4771 24.2882C93.4334 21.9693 93.3789 19.6612 93.3137 17.3637C93.2591 15.0663 93.1992 12.7742 93.1339 10.4875C93.0686 8.19001 92.9926 5.89787 92.9058 3.61105C94.0654 3.53015 95.2357 3.48151 96.4166 3.46511C97.5975 3.43798 98.73 3.42674 99.8142 3.4314C101.124 3.43702 102.31 3.49579 103.372 3.60769C104.434 3.7196 105.292 3.8521 105.946 4.00519C106.018 4.95013 106.072 5.91648 106.111 6.90422C106.15 7.89196 106.168 8.74006 106.165 9.44852C105.746 9.42526 105.134 9.39042 104.329 9.34403C103.525 9.2869 102.65 9.23484 101.706 9.18785C100.761 9.13012 99.865 9.09943 99.017 9.09579C99.0378 9.2569 99.0584 9.44484 99.079 9.65962C99.0996 9.86366 99.1201 10.0784 99.1406 10.304C99.1719 10.5188 99.1925 10.7282 99.2023 10.9322C99.6854 10.9343 100.281 10.9637 100.989 11.0204C101.698 11.0663 102.384 11.1283 103.049 11.2063C103.715 11.2843 104.219 11.3563 104.562 11.4222C104.559 12.2058 104.55 13.0215 104.535 13.8695C104.521 14.7067 104.474 15.6136 104.395 16.5901C104.019 16.5455 103.563 16.5007 103.027 16.4554C102.501 16.3995 101.943 16.3541 101.353 16.3194C100.773 16.2847 100.21 16.2662 99.6625 16.2638C99.7553 17.1337 99.8427 18.0465 99.9244 19.0023C100.006 19.958 100.083 20.9137 100.154 21.8694C100.225 22.8143 100.285 23.7216 100.335 24.5913ZM116.551 25.0957C114.597 25.0873 113.064 24.6889 111.951 23.9005C110.838 23.1014 110.006 21.9492 109.454 20.444C108.881 18.8743 108.535 16.9353 108.416 14.6269C108.297 12.3077 108.244 9.65604 108.257 6.67191C108.258 6.39281 108.26 6.11372 108.261 5.83463C108.273 5.55558 108.279 5.27115 108.281 4.98132C108.293 4.68081 108.305 4.38029 108.317 4.07978C108.329 3.76853 108.341 3.45191 108.353 3.12993C108.911 3.07866 109.47 3.03812 110.028 3.00831C110.597 2.96782 111.134 2.94865 111.638 2.95082C112.293 2.95363 112.948 2.97791 113.603 3.02366C114.268 3.05872 114.869 3.10424 115.405 3.16022C115.338 3.92208 115.275 4.743 115.218 5.62298C115.171 6.49228 115.135 7.38845 115.11 8.31151C115.084 9.23457 115.069 10.1523 115.065 11.0647C115.061 12.0737 115.079 12.954 115.119 13.7056C115.169 14.4573 115.252 15.0856 115.368 15.5906C115.505 16.1709 115.697 16.6011 115.942 16.8812C116.199 17.1507 116.531 17.2863 116.939 17.288C117.497 17.2904 117.916 17.1098 118.197 16.746C118.478 16.3822 118.662 15.8946 118.751 15.2831C118.85 14.6717 118.901 13.9902 118.904 13.2388C118.906 12.8417 118.903 12.2942 118.895 11.5964C118.888 10.8879 118.875 10.115 118.857 9.27761C118.839 8.42951 118.816 7.60285 118.787 6.79764C118.759 5.98169 118.729 5.26236 118.7 4.63963C118.67 4.00617 118.64 3.55519 118.609 3.28669C119.135 3.28895 119.752 3.31307 120.46 3.35905C121.169 3.40503 121.866 3.45633 122.553 3.51295C123.251 3.56962 123.851 3.63124 124.356 3.69781C124.86 3.75365 125.171 3.79793 125.289 3.83064C125.373 4.36772 125.44 4.93694 125.491 5.53829C125.542 6.1289 125.577 6.74092 125.596 7.37434C125.625 7.99707 125.639 8.63583 125.636 9.29062C125.627 11.4589 125.5 13.498 125.255 15.4077C125.011 17.3173 124.564 19.0007 123.913 20.4578C123.274 21.915 122.356 23.0543 121.161 23.8757C119.977 24.6972 118.44 25.1038 116.551 25.0957ZM128.738 25.2608C128.675 24.7775 128.603 24.074 128.521 23.1505C128.45 22.2163 128.363 21.1479 128.261 19.9452C128.17 18.7318 128.073 17.4593 127.972 16.1278C127.881 14.7963 127.79 13.4756 127.699 12.1656C127.608 10.8449 127.522 9.61539 127.441 8.47718C127.371 7.33902 127.305 6.35653 127.244 5.52972C127.194 4.70295 127.159 4.12313 127.139 3.79028C127.655 3.73882 128.288 3.6825 129.04 3.62132C129.792 3.56014 130.591 3.5099 131.44 3.47061C132.288 3.42058 133.104 3.39725 133.887 3.40061C135.916 3.40933 137.644 3.61533 139.07 4.01863C140.496 4.4112 141.647 5.04411 142.523 5.91737C143.41 6.79068 144.055 7.93667 144.457 9.35535C144.859 10.774 145.055 12.5031 145.046 14.5426C145.036 16.872 144.706 18.7491 144.056 20.174C143.406 21.5989 142.414 22.6842 141.079 23.4299C139.745 24.1648 138.052 24.6567 136.001 24.9055C133.96 25.1544 131.539 25.2728 128.738 25.2608ZM134.804 18.6046C135.76 18.6087 136.501 18.4723 137.028 18.1955C137.566 17.908 137.938 17.5017 138.144 16.9766C138.361 16.4408 138.471 15.8025 138.475 15.0619C138.479 14.1387 138.375 13.2098 138.165 12.2749C137.954 11.3401 137.608 10.5604 137.128 9.93574C136.648 9.30034 136 8.98089 135.184 8.97739C135.023 8.97669 134.851 8.97596 134.669 8.97517C134.486 8.97439 134.341 8.97913 134.234 8.98941C134.294 9.8699 134.354 10.8846 134.414 12.0334C134.484 13.1716 134.554 14.3205 134.625 15.4801C134.695 16.629 134.755 17.6705 134.804 18.6046ZM153.299 24.7705C153.106 24.7804 152.687 24.8054 152.043 24.8456C151.409 24.8858 150.733 24.9044 150.014 24.9013C149.52 24.8992 149.01 24.8809 148.484 24.8464C147.969 24.8227 147.454 24.7776 146.939 24.711C146.983 24.4321 147.045 23.8688 147.124 23.0211C147.202 22.1734 147.282 21.1754 147.362 20.0272C147.453 18.8682 147.538 17.6717 147.619 16.4376C147.699 15.2035 147.763 14.0444 147.811 12.9604C147.858 11.8765 147.884 11.0017 147.887 10.3362C148.166 10.3159 148.563 10.2961 149.078 10.2769C149.604 10.2577 150.168 10.2386 150.769 10.2197C151.37 10.2009 151.945 10.1872 152.492 10.1788C153.04 10.1597 153.475 10.1509 153.797 10.1522C153.87 10.5175 153.927 11.1189 153.966 11.9564C154.005 12.7831 154.023 13.7063 154.019 14.7261C154.014 15.6922 153.994 16.6958 153.957 17.7369C153.921 18.7672 153.868 19.7599 153.8 20.715C153.742 21.6594 153.669 22.491 153.58 23.2098C153.491 23.9287 153.397 24.4489 153.299 24.7705ZM151.019 8.35302C149.892 8.34818 148.927 8.022 148.125 7.37448C147.333 6.72701 146.94 5.85583 146.944 4.76093C146.947 4.031 147.138 3.40385 147.516 2.87948C147.894 2.35511 148.379 1.95465 148.97 1.67809C149.573 1.39085 150.201 1.24863 150.856 1.25145C151.908 1.25596 152.787 1.59251 153.492 2.26108C154.209 2.92969 154.565 3.79535 154.56 4.85804C154.556 5.85633 154.209 6.69213 153.519 7.36544C152.84 8.02807 152.006 8.35726 151.019 8.35302ZM163.391 25.0876C162.983 25.0858 162.478 25.0783 161.877 25.065C161.287 25.0624 160.68 25.0545 160.058 25.041C159.585 25.0176 159.027 24.9883 158.383 24.9533C157.75 24.9292 157.321 24.9058 157.096 24.8834C157.196 23.9929 157.276 22.952 157.334 21.7607C157.404 20.5695 157.458 19.2601 157.496 17.8326C157.535 16.405 157.563 14.8862 157.58 13.2761C157.609 11.6553 157.627 9.97547 157.634 8.23651C158.139 8.17427 158.74 8.12855 159.438 8.09934C160.136 8.0594 160.828 8.04091 161.515 8.04386C162.02 8.04603 162.503 8.0642 162.964 8.09839C163.426 8.12184 163.834 8.16116 164.188 8.21635C164.187 8.30223 164.186 8.49008 164.185 8.7799C164.184 9.05899 164.177 9.37027 164.165 9.71372C164.164 10.0465 164.157 10.347 164.145 10.6153C164.34 10.2297 164.723 9.81809 165.294 9.38043C165.864 8.94277 166.548 8.57536 167.343 8.27821C168.15 7.97037 168.988 7.81832 169.857 7.82206C171.499 7.82911 172.759 8.16729 173.637 8.8366C174.525 9.50595 175.132 10.5176 175.459 11.8716C175.797 13.2148 175.961 14.9116 175.953 16.9618C175.95 17.6059 175.925 18.3894 175.878 19.3124C175.842 20.2246 175.784 21.1798 175.705 22.1777C175.636 23.165 175.541 24.0931 175.419 24.9621C175.151 24.9824 174.732 24.9967 174.163 25.005C173.594 25.024 172.993 25.0322 172.359 25.0295C171.672 25.0265 171.023 25.013 170.411 24.9889C169.8 24.9755 169.359 24.9576 169.091 24.9349C169.189 24.5489 169.316 23.9376 169.469 23.101C169.623 22.2536 169.756 21.3042 169.868 20.2527C169.991 19.2012 170.054 18.1817 170.058 17.1941C170.062 16.4427 170 15.793 169.874 15.245C169.758 14.6863 169.524 14.256 169.171 13.9539C168.828 13.6411 168.319 13.4833 167.643 13.4804C167.224 13.4786 166.795 13.5572 166.354 13.7164C165.913 13.8647 165.488 14.0669 165.079 14.3227C164.681 14.5679 164.32 14.8347 163.997 15.1232C163.99 16.7441 163.952 18.1931 163.882 19.4702C163.823 20.7366 163.748 21.8365 163.658 22.7701C163.568 23.7036 163.479 24.4761 163.391 25.0876ZM188.111 20.5564C185.771 20.5464 183.921 20.2379 182.56 19.6309C181.21 19.0132 180.248 18.2255 179.672 17.2676C179.107 16.2991 178.827 15.2889 178.832 14.2369C178.838 12.8414 179.224 11.6784 179.99 10.7478C180.756 9.81718 181.8 9.11855 183.123 8.65191C184.456 8.18532 185.981 7.95571 187.698 7.96309C190.425 7.9748 192.43 8.54697 193.713 9.6796C194.996 10.8122 195.634 12.2856 195.626 14.0997C195.62 15.5488 195.304 16.7551 194.677 17.7185C194.061 18.6712 193.194 19.3867 192.075 19.865C190.957 20.3325 189.636 20.563 188.111 20.5564ZM187.382 33C185.664 32.9926 184.092 32.8194 182.666 32.4805C181.24 32.1524 180.099 31.5678 179.244 30.7269C178.399 29.8859 177.981 28.7033 177.987 27.1791C177.991 26.2667 178.306 25.4254 178.932 24.6552C179.569 23.8743 180.468 23.2287 181.629 22.7184C182.801 22.2082 184.187 21.8975 185.787 21.7863C186.442 21.7354 187.124 21.7008 187.833 21.6824C188.552 21.6532 189.481 21.6411 190.619 21.646C192.325 21.6533 193.714 22.0619 194.784 22.8715C195.854 23.6705 196.385 24.9502 196.377 26.7106C196.371 28.2563 195.957 29.489 195.138 30.4087C194.329 31.3391 193.242 32.0053 191.877 32.4074C190.522 32.8095 189.024 33.007 187.382 33ZM187.511 29.2166C188.101 29.2191 188.611 29.1569 189.041 29.0299C189.482 28.903 189.826 28.7166 190.074 28.4708C190.322 28.2357 190.447 27.9411 190.448 27.5868C190.45 27.2541 190.354 26.9853 190.162 26.7805C189.98 26.5865 189.734 26.4405 189.423 26.3426C189.123 26.2554 188.79 26.2111 188.425 26.2095C188.221 26.2086 187.974 26.2076 187.685 26.2063C187.405 26.2051 187.116 26.2039 186.815 26.2026C186.525 26.2013 186.262 26.2002 186.026 26.1992C185.661 26.1976 185.355 26.2285 185.108 26.2919C184.861 26.3659 184.672 26.4939 184.543 26.6759C184.413 26.8685 184.347 27.1474 184.346 27.5123C184.344 27.8451 184.467 28.1354 184.712 28.3834C184.969 28.6421 185.333 28.8423 185.805 28.9838C186.276 29.1362 186.845 29.2137 187.511 29.2166ZM183.396 23.6599C181.788 23.2988 180.689 22.8647 180.101 22.3576C179.513 21.8398 179.22 21.2536 179.223 20.5988C179.225 20.0621 179.34 19.6117 179.567 19.2477C179.805 18.873 180.074 18.579 180.376 18.3656C180.677 18.1414 180.941 17.9923 181.167 17.9181L185.2 19.8354C184.867 19.9521 184.614 20.1067 184.441 20.2991C184.269 20.4809 184.182 20.663 184.181 20.8455C184.18 21.0816 184.314 21.2969 184.581 21.4913C184.849 21.6856 185.251 21.784 185.787 21.7863L183.396 23.6599ZM187.632 15.8527C188.083 15.8546 188.481 15.8026 188.825 15.6968C189.169 15.5909 189.438 15.4096 189.632 15.1528C189.826 14.896 189.924 14.5475 189.926 14.1074C189.928 13.7747 189.822 13.4897 189.608 13.2527C189.405 13.0156 189.143 12.832 188.821 12.7018C188.5 12.5716 188.167 12.5058 187.824 12.5043C187.233 12.5018 186.653 12.612 186.083 12.835C185.524 13.058 185.243 13.4862 185.241 14.1195C185.238 14.7314 185.472 15.1725 185.943 15.4429C186.415 15.7132 186.978 15.8498 187.632 15.8527ZM194.539 12.4204L191.009 9.41036C191.118 8.99218 191.362 8.54238 191.74 8.06095C192.117 7.56879 192.559 7.11447 193.066 6.698C193.583 6.28157 194.089 5.97781 194.583 5.78671C194.765 6.05585 195.015 6.43264 195.335 6.91707C195.666 7.39081 196.007 7.87532 196.359 8.37062C196.712 8.86592 197.016 9.28051 197.272 9.61438C196.982 9.74194 196.691 9.89635 196.4 10.0776C196.11 10.2481 195.841 10.4509 195.593 10.686C195.345 10.9103 195.129 11.167 194.945 11.4561C194.762 11.7451 194.626 12.0666 194.539 12.4204Z" fill="black" fill-opacity="0.54"/>
</svg>
