<svg width="16" height="16" viewBox="0 0 16 16" fill="none" xmlns="http://www.w3.org/2000/svg">
<path d="M14.7265 6.33175C14.4643 6.05772 14.1931 5.77535 14.0908 5.52706C13.9963 5.29963 13.9907 4.92268 13.9851 4.55754C13.9747 3.87874 13.9636 3.10952 13.4287 2.57468C12.8939 2.03985 12.1247 2.02872 11.4459 2.01829C11.0807 2.01272 10.7038 2.00716 10.4764 1.91257C10.2288 1.81033 9.94569 1.53909 9.67167 1.27689C9.19178 0.815774 8.64651 0.293457 7.92041 0.293457C7.19431 0.293457 6.64974 0.815774 6.16915 1.27689C5.89513 1.53909 5.61276 1.81033 5.36446 1.91257C5.13843 2.00716 4.76008 2.01272 4.39494 2.01829C3.71614 2.02872 2.94692 2.03985 2.41208 2.57468C1.87725 3.10952 1.8696 3.87874 1.85569 4.55754C1.85012 4.92268 1.84456 5.29963 1.74997 5.52706C1.64774 5.77466 1.37649 6.05772 1.11429 6.33175C0.653177 6.81164 0.130859 7.35691 0.130859 8.08301C0.130859 8.8091 0.653177 9.35368 1.11429 9.83427C1.37649 10.1083 1.64774 10.3907 1.74997 10.639C1.84456 10.8664 1.85012 11.2433 1.85569 11.6085C1.86612 12.2873 1.87725 13.0565 2.41208 13.5913C2.94692 14.1262 3.71614 14.1373 4.39494 14.1477C4.76008 14.1533 5.13704 14.1589 5.36446 14.2534C5.61206 14.3557 5.89513 14.6269 6.16915 14.8891C6.64904 15.3502 7.19431 15.8726 7.92041 15.8726C8.64651 15.8726 9.19108 15.3502 9.67167 14.8891C9.94569 14.6269 10.2281 14.3557 10.4764 14.2534C10.7038 14.1589 11.0807 14.1533 11.4459 14.1477C12.1247 14.1373 12.8939 14.1262 13.4287 13.5913C13.9636 13.0565 13.9747 12.2873 13.9851 11.6085C13.9907 11.2433 13.9963 10.8664 14.0908 10.639C14.1931 10.3914 14.4643 10.1083 14.7265 9.83427C15.1876 9.35437 15.71 8.8091 15.71 8.08301C15.71 7.35691 15.1876 6.81234 14.7265 6.33175ZM11.096 6.80747L7.20127 10.7022C7.14959 10.754 7.08823 10.795 7.02068 10.823C6.95314 10.851 6.88074 10.8654 6.80762 10.8654C6.7345 10.8654 6.6621 10.851 6.59455 10.823C6.52701 10.795 6.46564 10.754 6.41397 10.7022L4.74478 9.03306C4.69308 8.98136 4.65208 8.91999 4.6241 8.85245C4.59612 8.7849 4.58172 8.71251 4.58172 8.6394C4.58172 8.5663 4.59612 8.49391 4.6241 8.42636C4.65208 8.35882 4.69308 8.29745 4.74478 8.24575C4.84918 8.14135 4.99078 8.0827 5.13843 8.0827C5.21154 8.0827 5.28393 8.0971 5.35147 8.12508C5.41901 8.15305 5.48038 8.19406 5.53208 8.24575L6.80762 9.52199L10.3087 6.02017C10.3604 5.96847 10.4218 5.92747 10.4894 5.89949C10.5569 5.87151 10.6293 5.85711 10.7024 5.85711C10.7755 5.85711 10.8479 5.87151 10.9154 5.89949C10.983 5.92747 11.0443 5.96847 11.096 6.02017C11.1477 6.07186 11.1887 6.13323 11.2167 6.20078C11.2447 6.26832 11.2591 6.34071 11.2591 6.41382C11.2591 6.48693 11.2447 6.55932 11.2167 6.62686C11.1887 6.6944 11.1477 6.75577 11.096 6.80747Z" fill="#229ED9"/>
</svg>
