<svg width="136" height="154" viewBox="0 0 136 154" fill="none" xmlns="http://www.w3.org/2000/svg">
<path d="M15.9401 41.167C16.1298 41.5766 16.2027 42.0306 16.1507 42.479C16.0988 42.9273 15.9241 43.3527 15.6458 43.708C15.3675 44.0634 14.9965 44.3351 14.5737 44.4931C14.1509 44.651 13.6927 44.6892 13.2495 44.6033C12.8064 44.5175 12.3956 44.3109 12.0624 44.0064C11.7292 43.7019 11.4865 43.3114 11.3611 42.8778C11.2358 42.4442 11.2326 41.9843 11.3519 41.549C11.4712 41.1137 11.7084 40.7198 12.0373 40.4107L9.54928 34.98L4.99684 37.0657C3.89489 37.5819 3.03984 38.5104 2.61597 39.651C2.1921 40.7917 2.23333 42.0532 2.73079 43.1637L51.4513 149.507C51.9675 150.609 52.8959 151.464 54.0366 151.888C55.1772 152.311 56.4387 152.27 57.5493 151.773L131.768 117.77C132.87 117.253 133.725 116.325 134.149 115.184C134.573 114.044 134.532 112.782 134.034 111.672L85.3138 5.3287C84.7977 4.22674 83.8692 3.37169 82.7285 2.94782C81.5879 2.52395 80.3264 2.56519 79.2158 3.06265L73.9106 5.4932L76.3987 10.9239C76.9769 10.863 77.5579 11.0096 78.038 11.3376C78.518 11.6655 78.8659 12.1535 79.0195 12.7142C79.173 13.275 79.1222 13.8721 78.8762 14.3989C78.6301 14.9256 78.2048 15.3478 77.6763 15.59C77.1477 15.8321 76.5502 15.8785 75.9906 15.7209C75.431 15.5632 74.9456 15.2117 74.6212 14.7293C74.2968 14.2468 74.1544 13.6647 74.2196 13.087C74.2847 12.5092 74.5531 11.9734 74.9768 11.5753L72.4888 6.14463L64.9193 9.61254L67.4073 15.0432C67.9855 14.9823 68.5665 15.129 69.0466 15.4569C69.5267 15.7849 69.8746 16.2728 70.0281 16.8336C70.1816 17.3943 70.1308 17.9914 69.8848 18.5182C69.6388 19.045 69.2135 19.4671 68.6849 19.7093C68.1563 19.9515 67.5589 19.9979 66.9993 19.8402C66.4396 19.6825 65.9543 19.3311 65.6299 18.8486C65.3054 18.3661 65.1631 17.784 65.2282 17.2063C65.2934 16.6286 65.5617 16.0928 65.9854 15.6946L63.4974 10.264L55.9279 13.7319L58.416 19.1625C58.9942 19.1017 59.5752 19.2483 60.0553 19.5763C60.5353 19.9042 60.8832 20.3922 61.0368 20.9529C61.1903 21.5137 61.1395 22.1108 60.8934 22.6376C60.6474 23.1643 60.2221 23.5865 59.6935 23.8287C59.165 24.0708 58.5675 24.1172 58.0079 23.9595C57.4483 23.8019 56.9629 23.4504 56.6385 22.9679C56.3141 22.4855 56.1717 21.9034 56.2369 21.3256C56.302 20.7479 56.5704 20.2121 56.9941 19.814L54.506 14.3833L46.9366 17.8512L49.4246 23.2819C50.0028 23.221 50.5838 23.3676 51.0639 23.6956C51.544 24.0236 51.8919 24.5115 52.0454 25.0723C52.1989 25.633 52.1481 26.2301 51.9021 26.7569C51.6561 27.2837 51.2308 27.7058 50.7022 27.948C50.1736 28.1902 49.5762 28.2366 49.0166 28.0789C48.4569 27.9212 47.9716 27.5698 47.6472 27.0873C47.3227 26.6048 47.1804 26.0227 47.2455 25.445C47.3107 24.8672 47.579 24.3315 48.0027 23.9333L45.5147 18.5027L37.9452 21.9706L40.4333 27.4012C41.0115 27.3404 41.5925 27.487 42.0726 27.815C42.5526 28.1429 42.9005 28.6308 43.054 29.1916C43.2076 29.7524 43.1568 30.3495 42.9107 30.8762C42.6647 31.403 42.2394 31.8252 41.7108 32.0673C41.1823 32.3095 40.5848 32.3559 40.0252 32.1982C39.4656 32.0406 38.9802 31.6891 38.6558 31.2066C38.3314 30.7242 38.189 30.1421 38.2542 29.5643C38.3193 28.9866 38.5877 28.4508 39.0114 28.0527L36.5233 22.622L28.9539 26.0899L31.4419 31.5206C32.0201 31.4597 32.6011 31.6063 33.0812 31.9343C33.5613 32.2623 33.9091 32.7502 34.0627 33.311C34.2162 33.8717 34.1654 34.4688 33.9194 34.9956C33.6733 35.5224 33.2481 35.9445 32.7195 36.1867C32.1909 36.4288 31.5935 36.4752 31.0339 36.3176C30.4742 36.1599 29.9889 35.8085 29.6645 35.326C29.34 34.8435 29.1977 34.2614 29.2628 33.6837C29.3279 33.1059 29.5963 32.5701 30.02 32.172L27.532 26.7414L19.9625 30.2093L22.4505 35.6399C23.0288 35.579 23.6098 35.7257 24.0899 36.0536C24.5699 36.3816 24.9178 36.8695 25.0713 37.4303C25.2249 37.9911 25.1741 38.5882 24.928 39.1149C24.682 39.6417 24.2567 40.0639 23.7281 40.306C23.1996 40.5482 22.6021 40.5946 22.0425 40.4369C21.4829 40.2793 20.9975 39.9278 20.6731 39.4453C20.3487 38.9628 20.2063 38.3808 20.2715 37.803C20.3366 37.2253 20.605 36.6895 21.0287 36.2914L18.5406 30.8607L10.9712 34.3286L13.4592 39.7593C13.9679 39.7057 14.4806 39.8126 14.9255 40.0651C15.3704 40.3175 15.7252 40.7028 15.9401 41.167ZM122.993 107.008L55.1422 138.094L54.8685 137.496L122.719 106.411L122.993 107.008ZM119.845 100.138L51.9945 131.223L51.7208 130.626L119.571 99.5404L119.845 100.138ZM116.697 93.2673L48.8468 124.353L48.5731 123.755L116.423 92.6699L116.697 93.2673ZM113.55 86.3969L45.6992 117.482L45.4255 116.885L113.276 85.7994L113.55 86.3969ZM110.402 79.5264L42.5515 110.612L42.2778 110.014L110.128 78.929L110.402 79.5264ZM107.254 72.6559L39.4038 103.741L39.1301 103.144L106.98 72.0585L107.254 72.6559ZM104.107 65.7854L36.2561 96.8708L35.9824 96.2733L103.833 65.188L104.107 65.7854ZM100.959 58.915L33.1085 90.0003L32.8348 89.4029L100.685 58.3175L100.959 58.915ZM97.8112 52.0445L29.9608 83.1298L29.6871 82.5324L97.5375 51.4471L97.8112 52.0445ZM94.6635 45.174L26.8131 76.2594L26.5394 75.6619L94.3898 44.5766L94.6635 45.174ZM91.5158 38.3036L23.6655 69.3889L23.3918 68.7915L91.2421 37.7061L91.5158 38.3036ZM88.3682 31.4331L20.5178 62.5184L20.2441 61.921L88.0944 30.8357L88.3682 31.4331ZM84.9468 23.9652L85.2205 24.5626L17.3701 55.6479L17.0964 55.0505L84.9468 23.9652Z" fill="#E6E6E6"/>
<path d="M11.4834 43.2088C11.6697 43.62 11.966 43.9716 12.3395 44.2251C12.7129 44.4786 13.1492 44.624 13.6 44.6453C14.0509 44.6667 14.4989 44.5631 14.8946 44.346C15.2904 44.129 15.6185 43.8069 15.8429 43.4152C16.0672 43.0236 16.1791 42.5775 16.1661 42.1263C16.1531 41.6752 16.0158 41.2363 15.7692 40.8582C15.5227 40.4801 15.1766 40.1774 14.769 39.9835C14.3614 39.7896 13.9082 39.712 13.4593 39.7592L13.5086 39.8668L12.0867 40.5182L12.0374 40.4107C11.6647 40.7609 11.4108 41.2191 11.3115 41.7209C11.2121 42.2226 11.2722 42.7429 11.4834 43.2088Z" fill="#B3B3B3"/>
<path d="M9.15302 34.1138L9.54989 34.98L12.0379 40.4107L12.0845 40.5123L13.5063 39.8608L13.4598 39.7593L10.9718 34.3286L10.5749 33.4623L9.15302 34.1138Z" fill="#B3B3B3"/>
<path d="M21.0782 36.3989L21.0289 36.2913C20.6052 36.6895 20.3369 37.2253 20.2717 37.803C20.2066 38.3808 20.349 38.9628 20.6734 39.4453C20.9978 39.9278 21.4831 40.2793 22.0428 40.4369C22.6024 40.5946 23.1998 40.5482 23.7284 40.306C24.257 40.0639 24.6823 39.6417 24.9283 39.1149C25.1744 38.5881 25.2251 37.9911 25.0716 37.4303C24.9181 36.8695 24.5702 36.3816 24.0901 36.0536C23.61 35.7257 23.029 35.579 22.4508 35.6399L22.5001 35.7474L21.0782 36.3989Z" fill="#B3B3B3"/>
<path d="M21.0753 36.393L22.4972 35.7416L22.4507 35.64L19.9627 30.2093L19.5658 29.3431L18.1439 29.9945L18.5408 30.8608L21.0288 36.2914L21.0753 36.393Z" fill="#B3B3B3"/>
<path d="M30.0697 32.2793L30.0204 32.1718C29.5967 32.5699 29.3283 33.1057 29.2632 33.6834C29.1981 34.2612 29.3404 34.8433 29.6649 35.3258C29.9893 35.8082 30.4746 36.1597 31.0343 36.3173C31.5939 36.475 32.1913 36.4286 32.7199 36.1864C33.2485 35.9443 33.6737 35.5221 33.9198 34.9954C34.1658 34.4686 34.2166 33.8715 34.0631 33.3107C33.9095 32.75 33.5617 32.262 33.0816 31.9341C32.6015 31.6061 32.0205 31.4595 31.4423 31.5203L31.4916 31.6279L30.0697 32.2793Z" fill="#B3B3B3"/>
<path d="M30.0675 32.2734L31.4894 31.622L31.4428 31.5204L28.9548 26.0898L28.5579 25.2235L27.136 25.8749L27.5329 26.7412L30.021 32.1719L30.0675 32.2734Z" fill="#B3B3B3"/>
<path d="M39.0612 28.16L39.0119 28.0525C38.5882 28.4507 38.3199 28.9864 38.2547 29.5642C38.1896 30.1419 38.332 30.724 38.6564 31.2065C38.9808 31.689 39.4661 32.0404 40.0258 32.1981C40.5854 32.3557 41.1828 32.3094 41.7114 32.0672C42.24 31.825 42.6653 31.4029 42.9113 30.8761C43.1574 30.3493 43.2081 29.7522 43.0546 29.1915C42.9011 28.6307 42.5532 28.1428 42.0731 27.8148C41.593 27.4868 41.012 27.3402 40.4338 27.4011L40.4831 27.5086L39.0612 28.16Z" fill="#B3B3B3"/>
<path d="M39.0583 28.1541L40.4802 27.5027L40.4337 27.4011L37.9457 21.9704L37.5488 21.1042L36.1269 21.7556L36.5238 22.6219L39.0118 28.0525L39.0583 28.1541Z" fill="#B3B3B3"/>
<path d="M48.0527 24.0408L48.0034 23.9333C47.5797 24.3314 47.3113 24.8672 47.2462 25.4449C47.1811 26.0227 47.3234 26.6047 47.6478 27.0872C47.9722 27.5697 48.4576 27.9212 49.0172 28.0788C49.5768 28.2365 50.1743 28.1901 50.7029 27.9479C51.2314 27.7058 51.6567 27.2836 51.9028 26.7568C52.1488 26.2301 52.1996 25.633 52.0461 25.0722C51.8925 24.5114 51.5447 24.0235 51.0646 23.6955C50.5845 23.3676 50.0035 23.2209 49.4253 23.2818L49.4745 23.3894L48.0527 24.0408Z" fill="#B3B3B3"/>
<path d="M48.0498 24.0348L49.4717 23.3834L49.4251 23.2818L46.9371 17.8512L46.5402 16.9849L45.1183 17.6364L45.5152 18.5026L48.0033 23.9333L48.0498 24.0348Z" fill="#B3B3B3"/>
<path d="M57.0435 19.9215L56.9943 19.8139C56.5706 20.2121 56.3022 20.7479 56.2371 21.3256C56.172 21.9033 56.3143 22.4854 56.6387 22.9679C56.9632 23.4504 57.4485 23.8018 58.0081 23.9595C58.5677 24.1172 59.1652 24.0708 59.6938 23.8286C60.2223 23.5864 60.6476 23.1643 60.8937 22.6375C61.1397 22.1107 61.1905 21.5136 61.037 20.9529C60.8834 20.3921 60.5356 19.9042 60.0555 19.5762C59.5754 19.2483 58.9944 19.1016 58.4162 19.1625L58.4654 19.27L57.0435 19.9215Z" fill="#B3B3B3"/>
<path d="M57.0413 19.9153L58.4632 19.2638L58.4166 19.1623L55.9286 13.7316L55.5317 12.8654L54.1099 13.5168L54.5067 14.3831L56.9948 19.8137L57.0413 19.9153Z" fill="#B3B3B3"/>
<path d="M66.0357 15.8019L65.9864 15.6944C65.5627 16.0925 65.2943 16.6283 65.2292 17.206C65.1641 17.7838 65.3064 18.3659 65.6309 18.8483C65.9553 19.3308 66.4406 19.6823 67.0003 19.8399C67.5599 19.9976 68.1573 19.9512 68.6859 19.709C69.2145 19.4669 69.6397 19.0447 69.8858 18.5179C70.1318 17.9912 70.1826 17.3941 70.0291 16.8333C69.8756 16.2725 69.5277 15.7846 69.0476 15.4567C68.5675 15.1287 67.9865 14.9821 67.4083 15.0429L67.4576 15.1505L66.0357 15.8019Z" fill="#B3B3B3"/>
<path d="M66.0321 15.7963L67.454 15.1448L67.4075 15.0433L64.9195 9.6126L64.5226 8.74634L63.1007 9.39777L63.4976 10.264L65.9856 15.6947L66.0321 15.7963Z" fill="#B3B3B3"/>
<path d="M75.0445 11.6743L74.9952 11.5668C74.5715 11.9649 74.3031 12.5007 74.238 13.0785C74.1729 13.6562 74.3152 14.2383 74.6396 14.7208C74.9641 15.2032 75.4494 15.5547 76.0091 15.7124C76.5687 15.87 77.1661 15.8236 77.6947 15.5815C78.2233 15.3393 78.6485 14.9171 78.8946 14.3904C79.1406 13.8636 79.1914 13.2665 79.0379 12.7057C78.8843 12.145 78.5365 11.6571 78.0564 11.3291C77.5763 11.0011 76.9953 10.8545 76.4171 10.9154L76.4664 11.0229L75.0445 11.6743Z" fill="#B3B3B3"/>
<path d="M75.0237 11.6769L76.4456 11.0255L76.399 10.9239L73.911 5.49328L73.5141 4.62701L72.0922 5.27844L72.4891 6.14471L74.9771 11.5754L75.0237 11.6769Z" fill="#B3B3B3"/>
<path d="M84.9469 23.9653L17.0966 55.0506L17.3703 55.648L85.2206 24.5627L84.9469 23.9653Z" fill="#B3B3B3"/>
<path d="M88.0947 30.8358L20.2443 61.9211L20.518 62.5185L88.3684 31.4332L88.0947 30.8358Z" fill="#B3B3B3"/>
<path d="M91.2424 37.7063L23.3921 68.7916L23.6658 69.389L91.5161 38.3037L91.2424 37.7063Z" fill="#B3B3B3"/>
<path d="M94.3902 44.5767L26.5399 75.662L26.8136 76.2594L94.6639 45.1741L94.3902 44.5767Z" fill="#B3B3B3"/>
<path d="M97.538 51.4472L29.6876 82.5325L29.9613 83.1299L97.8117 52.0446L97.538 51.4472Z" fill="#B3B3B3"/>
<path d="M100.685 58.3176L32.8347 89.403L33.1084 90.0004L100.959 58.9151L100.685 58.3176Z" fill="#B3B3B3"/>
<path d="M103.833 65.1881L35.9825 96.2734L36.2562 96.8709L104.107 65.7856L103.833 65.1881Z" fill="#B3B3B3"/>
<path d="M106.981 72.0585L39.1302 103.144L39.404 103.741L107.254 72.6559L106.981 72.0585Z" fill="#B3B3B3"/>
<path d="M110.128 78.929L42.278 110.014L42.5517 110.612L110.402 79.5264L110.128 78.929Z" fill="#B3B3B3"/>
<path d="M113.276 85.7995L45.4258 116.885L45.6995 117.482L113.55 86.3969L113.276 85.7995Z" fill="#B3B3B3"/>
<path d="M116.424 92.6699L48.5735 123.755L48.8473 124.353L116.698 93.2674L116.424 92.6699Z" fill="#B3B3B3"/>
<path d="M119.571 99.5404L51.7206 130.626L51.9944 131.223L119.845 100.138L119.571 99.5404Z" fill="#B3B3B3"/>
<path d="M122.719 106.411L54.8684 137.496L55.1421 138.094L122.992 107.008L122.719 106.411Z" fill="#B3B3B3"/>
</svg>
