<svg width="160" height="192" viewBox="0 0 160 192" fill="none" xmlns="http://www.w3.org/2000/svg">
<path d="M0.100647 157.66L112.18 191.422L159.487 34.2569L47.4082 0.51709L0.100647 157.66ZM31.3424 75.0652L74.3834 88.025L73.6373 90.4954L30.5908 77.5355L31.3424 75.0652ZM29.7452 80.3375L72.7863 93.2918L72.0402 95.8119L28.9991 82.8576L29.7452 80.3375ZM72.0844 121.527C72.3188 120.746 72.7796 120.052 73.4085 119.533C74.0373 119.014 74.8059 118.693 75.6172 118.611C76.4285 118.529 77.2459 118.689 77.9661 119.071C78.6864 119.453 79.2771 120.041 79.6635 120.759C80.05 121.477 80.2148 122.293 80.1372 123.105C80.0596 123.917 79.7431 124.687 79.2276 125.319C78.7121 125.951 78.0209 126.415 77.2412 126.654C76.4616 126.893 75.6287 126.896 74.8477 126.661C73.8063 126.345 72.9317 125.631 72.4142 124.674C71.8968 123.716 71.7782 122.594 72.0844 121.549V121.527ZM28.1536 85.6044L71.1946 98.5642L70.454 101.035L27.413 88.0747L28.1536 85.6044ZM26.5619 90.8988L69.6029 103.853L68.8569 106.324L25.8158 93.3692L26.5619 90.8988ZM17.0175 122.655C17.1778 122.102 17.3712 121.549 17.5702 121.041H17.5094C17.879 120.069 18.3262 119.128 18.8468 118.228C20.9065 114.376 23.9621 111.147 27.6949 108.878C31.4277 106.609 35.701 105.383 40.0689 105.329C43.8406 105.293 47.5692 106.133 50.9619 107.781C54.3545 109.429 57.3188 111.842 59.6219 114.829C61.0405 116.532 62.1514 118.47 62.9047 120.554C64.366 124.164 64.9406 128.072 64.5802 131.95C64.2198 135.827 62.935 139.562 60.8335 142.841C58.732 146.12 55.8751 148.847 52.5022 150.794C49.1293 152.741 45.3388 153.851 41.4485 154.031C37.5582 154.21 33.6815 153.455 30.1433 151.828C26.6052 150.2 23.5089 147.748 21.1138 144.677C18.7188 141.606 17.0949 138.006 16.3783 134.178C15.6618 130.35 15.8734 126.406 16.9954 122.677L17.0175 122.655ZM107.211 180.921L8.42921 151.183L9.16977 148.712L107.963 178.451L107.211 180.921ZM110.24 170.863L109.444 173.51L60.0475 158.644L60.8488 155.996L64.0653 156.964L69.0834 140.295L74.5548 141.953L69.5366 158.622L71.0785 159.086L77.6662 137.195L83.1375 138.853L76.5499 160.744L78.6168 161.368L82.5407 148.314L88.012 149.972L84.0826 163.015L86.5972 163.772L94.4726 137.598L99.9439 139.256L92.0685 165.43L94.4891 166.16L100.049 147.684L105.52 149.342L99.9605 167.818L102.956 168.719L106.056 158.423L111.528 160.081L108.427 170.377L110.24 170.863ZM85.9229 125.722C86.1565 124.94 86.6166 124.246 87.2451 123.726C87.8736 123.206 88.6423 122.884 89.4537 122.801C90.2652 122.718 91.0831 122.877 91.8038 123.259C92.5246 123.641 93.1158 124.229 93.5027 124.947C93.8896 125.665 94.0548 126.481 93.9774 127.294C93.9 128.106 93.5834 128.876 93.0678 129.508C92.5521 130.14 91.8606 130.605 91.0806 130.844C90.3007 131.083 89.4674 131.085 88.6862 130.85C88.1685 130.695 87.6865 130.439 87.2678 130.097C86.8492 129.755 86.5021 129.333 86.2465 128.857C85.9909 128.381 85.8317 127.858 85.7781 127.32C85.7244 126.783 85.7774 126.239 85.934 125.722H85.9229ZM99.767 129.889C100.001 129.108 100.462 128.414 101.091 127.895C101.72 127.376 102.489 127.055 103.3 126.972C104.111 126.89 104.929 127.05 105.649 127.433C106.369 127.815 106.96 128.402 107.346 129.12C107.733 129.838 107.897 130.655 107.82 131.467C107.742 132.278 107.426 133.049 106.91 133.681C106.395 134.312 105.704 134.777 104.924 135.016C104.144 135.255 103.311 135.258 102.53 135.023C102.012 134.867 101.53 134.61 101.112 134.267C100.693 133.925 100.346 133.503 100.09 133.026C99.8346 132.549 99.6755 132.027 99.6219 131.489C99.5684 130.95 99.6214 130.407 99.7781 129.889H99.767ZM120.674 136.156C120.44 136.937 119.979 137.631 119.35 138.15C118.721 138.669 117.953 138.99 117.141 139.072C116.33 139.155 115.513 138.994 114.792 138.612C114.072 138.23 113.481 137.642 113.095 136.924C112.709 136.206 112.544 135.39 112.621 134.578C112.699 133.767 113.015 132.996 113.531 132.364C114.046 131.732 114.738 131.268 115.517 131.029C116.297 130.79 117.13 130.787 117.911 131.022C118.429 131.177 118.912 131.434 119.332 131.776C119.751 132.118 120.099 132.54 120.356 133.017C120.612 133.493 120.773 134.016 120.827 134.555C120.882 135.093 120.83 135.637 120.674 136.156ZM124.598 123.124L72.5928 107.484L73.3334 105.014L125.344 120.682L124.598 123.124ZM126.19 117.835L74.1513 102.168L74.8919 99.7026L126.93 115.365L126.19 117.835ZM127.781 112.541L75.7485 96.9173L76.4946 94.4469L128.533 110.109L127.781 112.541ZM129.373 107.252L77.3346 91.5841L78.0807 89.1137L130.119 104.782L129.373 107.252ZM131.998 98.5752L33.2159 68.8367L46.5239 24.624L145.312 54.3626L131.998 98.5752ZM49.0496 16.2292L147.832 45.9677L147.091 48.4381L48.3035 18.7051L49.0496 16.2292Z" fill="#E6E6E6"/>
<path d="M49.0497 16.2185L48.3059 18.6899L147.093 48.4216L147.837 45.9502L49.0497 16.2185Z" fill="#CCCCCC"/>
<path d="M9.17399 148.686L8.43018 151.158L107.218 180.89L107.962 178.418L9.17399 148.686Z" fill="#CCCCCC"/>
<path d="M46.5248 24.5978L33.2158 68.8186L132.003 98.5503L145.312 54.3295L46.5248 24.5978Z" fill="#CCCCCC"/>
<path d="M31.3407 75.044L30.5969 77.5154L73.6376 90.4692L74.3814 87.9978L31.3407 75.044Z" fill="#CCCCCC"/>
<path d="M29.751 80.3322L29.0072 82.8036L72.0478 95.7574L72.7916 93.286L29.751 80.3322Z" fill="#CCCCCC"/>
<path d="M28.156 85.6244L27.4122 88.0958L70.4528 101.05L71.1966 98.5781L28.156 85.6244Z" fill="#CCCCCC"/>
<path d="M26.5649 90.9234L25.821 93.3948L68.8617 106.349L69.6055 103.877L26.5649 90.9234Z" fill="#CCCCCC"/>
<path d="M78.0826 89.1135L77.3387 91.5849L129.376 107.246L130.12 104.775L78.0826 89.1135Z" fill="#CCCCCC"/>
<path d="M76.4936 94.4072L75.7498 96.8786L127.787 112.54L128.531 110.069L76.4936 94.4072Z" fill="#CCCCCC"/>
<path d="M74.9032 99.6955L74.1594 102.167L126.197 117.828L126.94 115.357L74.9032 99.6955Z" fill="#CCCCCC"/>
<path d="M73.3083 104.988L72.5645 107.459L124.602 123.12L125.345 120.649L73.3083 104.988Z" fill="#CCCCCC"/>
<path d="M33.3207 153.006C37.7202 154.332 42.4048 154.386 46.8338 153.163C51.2629 151.94 55.2556 149.489 58.3512 146.094C61.4469 142.698 63.5191 138.496 64.3287 133.973C65.1383 129.45 64.6522 124.791 62.9266 120.532L40.345 129.679L17.57 121.041C17.371 121.593 17.1776 122.107 17.0173 122.655C16.0947 125.718 15.7846 128.933 16.1046 132.116C16.4246 135.3 17.3686 138.389 18.8825 141.207C20.3964 144.026 22.4507 146.518 24.928 148.543C27.4054 150.567 30.2572 152.084 33.3207 153.006Z" fill="#CCCCCC"/>
<path d="M59.6448 114.807C57.3417 111.82 54.3774 109.407 50.9847 107.759C47.5921 106.11 43.8635 105.271 40.0917 105.307C50.5757 106.202 56.4781 110.872 59.6448 114.807Z" fill="#CCCCCC"/>
<path d="M40.0688 105.307C35.7008 105.361 31.4276 106.587 27.6948 108.856C23.962 111.125 20.9063 114.353 18.8467 118.206C21.306 113.851 27.4847 105.903 40.0688 105.307Z" fill="#CCCCCC"/>
<path d="M40.346 129.679L62.9276 120.532C62.1742 118.448 61.0634 116.51 59.6448 114.807C56.4781 110.872 50.5757 106.202 40.0917 105.307L40.346 129.679Z" fill="#B3B3B3"/>
<path d="M40.0861 105.307C27.5021 105.903 21.3234 113.851 18.864 118.206C18.3435 119.106 17.8962 120.047 17.5266 121.019H17.5874L40.3624 129.657L40.0861 105.307Z" fill="#808080"/>
<path d="M74.8413 126.683C75.6223 126.918 76.4552 126.915 77.2349 126.677C78.0145 126.438 78.7057 125.973 79.2212 125.341C79.7367 124.709 80.0533 123.939 80.1308 123.127C80.2084 122.315 80.0436 121.499 79.6571 120.781C79.2707 120.063 78.68 119.475 77.9598 119.093C77.2395 118.711 76.4221 118.551 75.6108 118.633C74.7996 118.715 74.0309 119.036 73.4021 119.555C72.7732 120.074 72.3125 120.768 72.078 121.549C71.9216 122.068 71.869 122.612 71.9233 123.151C71.9775 123.69 72.1376 124.213 72.3943 124.69C72.651 125.167 72.9993 125.588 73.4192 125.93C73.8391 126.272 74.3223 126.528 74.8413 126.683Z" fill="#808080"/>
<path d="M93.8252 128.093C94.0596 127.312 94.0572 126.479 93.8183 125.699C93.5793 124.92 93.1146 124.228 92.4827 123.713C91.8509 123.197 91.0805 122.881 90.2687 122.803C89.457 122.726 88.6405 122.89 87.9225 123.277C87.2045 123.663 86.6172 124.254 86.2349 124.974C85.8525 125.694 85.6924 126.512 85.7746 127.323C85.8569 128.134 86.1779 128.903 86.697 129.532C87.2161 130.161 87.91 130.622 88.691 130.856C89.2095 131.012 89.7538 131.065 90.2927 131.011C90.8316 130.956 91.3545 130.796 91.8315 130.54C92.3084 130.283 92.73 129.935 93.0721 129.515C93.4142 129.095 93.6701 128.612 93.8252 128.093Z" fill="#808080"/>
<path d="M102.535 135.051C103.316 135.285 104.149 135.283 104.929 135.044C105.709 134.805 106.4 134.34 106.915 133.708C107.431 133.076 107.747 132.306 107.825 131.494C107.903 130.683 107.738 129.866 107.351 129.148C106.965 128.43 106.374 127.843 105.654 127.46C104.934 127.078 104.116 126.918 103.305 127C102.494 127.082 101.725 127.403 101.096 127.922C100.467 128.442 100.007 129.136 99.7721 129.916C99.4593 130.964 99.5745 132.092 100.092 133.055C100.61 134.017 101.489 134.735 102.535 135.051Z" fill="#808080"/>
<path d="M117.91 131.044C117.13 130.809 116.297 130.812 115.517 131.051C114.737 131.29 114.046 131.755 113.531 132.386C113.015 133.018 112.699 133.789 112.621 134.6C112.543 135.412 112.708 136.229 113.095 136.947C113.481 137.665 114.072 138.252 114.792 138.634C115.512 139.017 116.33 139.177 117.141 139.094C117.952 139.012 118.721 138.691 119.35 138.172C119.979 137.653 120.439 136.959 120.674 136.178C120.987 135.131 120.871 134.002 120.353 133.04C119.835 132.077 118.957 131.36 117.91 131.044Z" fill="#808080"/>
<path d="M69.0819 140.268L64.0648 156.939L69.5368 158.585L74.5539 141.915L69.0819 140.268Z" fill="#CCCCCC"/>
<path d="M77.6685 137.162L71.0793 159.055L76.5513 160.702L83.1405 138.809L77.6685 137.162Z" fill="#CCCCCC"/>
<path d="M82.5463 148.277L78.6202 161.322L84.0922 162.969L88.0183 149.924L82.5463 148.277Z" fill="#CCCCCC"/>
<path d="M94.478 137.55L86.6003 163.725L92.0724 165.372L99.95 139.197L94.478 137.55Z" fill="#CCCCCC"/>
<path d="M100.051 147.627L94.4904 166.102L99.9624 167.749L105.523 149.274L100.051 147.627Z" fill="#CCCCCC"/>
<path d="M106.062 158.35L102.963 168.648L108.435 170.295L111.534 159.996L106.062 158.35Z" fill="#CCCCCC"/>
<path d="M99.9663 167.774L94.495 166.127L92.0743 165.397L86.603 163.75L84.0884 162.993L78.6171 161.346L76.5502 160.722L71.0789 159.075L69.5369 158.611L64.0656 156.964L60.8436 155.996L60.0478 158.644L109.444 173.51L110.24 170.863L108.433 170.321L102.962 168.674L99.9663 167.774Z" fill="#808080"/>
</svg>
