<svg width="116" height="60" viewBox="0 0 116 60" fill="none" xmlns="http://www.w3.org/2000/svg">
<path d="M38.2501 20.484C38.0068 19.4921 37.6231 18.6218 37.0991 17.8732C36.5751 17.1059 35.92 16.4602 35.134 15.9362C34.3667 15.3934 33.4683 14.9911 32.439 14.729C31.4284 14.4483 30.3148 14.308 29.0983 14.308C26.4782 14.308 24.2417 14.9349 22.3889 16.1888C20.5548 17.4428 19.1512 19.2488 18.178 21.6069C17.2235 23.965 16.7463 26.8098 16.7463 30.1411C16.7463 33.5098 17.2048 36.392 18.1218 38.7875C19.0389 41.1831 20.4051 43.0172 22.2205 44.2898C24.0358 45.5624 26.291 46.1988 28.986 46.1988C31.3629 46.1988 33.3373 45.8525 34.9094 45.1601C36.5002 44.4676 37.6886 43.485 38.4747 42.2124C39.2607 40.9398 39.6537 39.4426 39.6537 37.7207L42.3487 38.0015H29.2106V26.8846H54.7008V34.8573C54.7008 40.0976 53.5872 44.5799 51.3601 48.3042C49.1517 52.0099 46.1011 54.8546 42.2084 56.8384C38.3343 58.8035 33.8894 59.786 28.8737 59.786C23.2779 59.786 18.3651 58.5976 14.1355 56.2208C9.90582 53.8439 6.60258 50.4565 4.22574 46.0584C1.86762 41.6603 0.688558 36.4294 0.688558 30.3657C0.688558 25.612 1.4091 21.401 2.85017 17.7328C4.30996 14.0647 6.33121 10.9673 8.91392 8.44072C11.4966 5.89545 14.4817 3.97713 17.8692 2.68578C21.2566 1.37571 24.8874 0.720676 28.7615 0.720676C32.1676 0.720676 35.3305 1.20727 38.2501 2.18047C41.1884 3.13494 43.7804 4.50116 46.0263 6.27911C48.2908 8.03834 50.1156 10.1251 51.5005 12.5394C52.8854 14.9536 53.7276 17.6018 54.0271 20.484H38.2501Z" fill="white"/>
<path d="M99.3156 20.484C99.0723 19.4921 98.6887 18.6218 98.1647 17.8732C97.6406 17.1059 96.9856 16.4602 96.1996 15.9362C95.4322 15.3934 94.5339 14.9911 93.5046 14.729C92.4939 14.4483 91.3804 14.308 90.1639 14.308C87.5437 14.308 85.3073 14.9349 83.4545 16.1888C81.6204 17.4428 80.2167 19.2488 79.2435 21.6069C78.289 23.965 77.8118 26.8098 77.8118 30.1411C77.8118 33.5098 78.2703 36.392 79.1874 38.7875C80.1044 41.1831 81.4706 43.0172 83.286 44.2898C85.1014 45.5624 87.3566 46.1988 90.0516 46.1988C92.4284 46.1988 94.4029 45.8525 95.975 45.1601C97.5658 44.4676 98.7542 43.485 99.5402 42.2124C100.326 40.9398 100.719 39.4426 100.719 37.7207L103.414 38.0015H90.2762V26.8846H115.766V34.8573C115.766 40.0976 114.653 44.5799 112.426 48.3042C110.217 52.0099 107.167 54.8546 103.274 56.8384C99.3999 58.8035 94.955 59.786 89.9393 59.786C84.3434 59.786 79.4307 58.5976 75.201 56.2208C70.9714 53.8439 67.6681 50.4565 65.2913 46.0584C62.9332 41.6603 61.7541 36.4294 61.7541 30.3657C61.7541 25.612 62.4747 21.401 63.9157 17.7328C65.3755 14.0647 67.3968 10.9673 69.9795 8.44072C72.5622 5.89545 75.5473 3.97713 78.9347 2.68578C82.3222 1.37571 85.9529 0.720676 89.827 0.720676C93.2332 0.720676 96.3961 1.20727 99.3156 2.18047C102.254 3.13494 104.846 4.50116 107.092 6.27911C109.356 8.03834 111.181 10.1251 112.566 12.5394C113.951 14.9536 114.793 17.6018 115.093 20.484H99.3156Z" fill="#FC9800"/>
</svg>
