<svg width="196" height="98" viewBox="0 0 196 98" fill="none" xmlns="http://www.w3.org/2000/svg">
<path d="M14.4549 88.2111C13.9509 88.3955 13.3643 88.6043 12.6953 88.8377C12.0263 89.071 11.3466 89.2911 10.6565 89.4978C9.96999 89.7147 9.33157 89.8911 8.74122 90.0271C8.49977 89.4296 8.19194 88.6507 7.81772 87.6903C7.43981 86.7198 7.0324 85.6687 6.59549 84.5369C6.16496 83.3914 5.75054 82.2742 5.35223 81.1855C4.72157 79.4616 4.08021 77.6617 3.42815 75.7857C2.77241 73.8995 2.11384 71.9744 1.45245 70.0104C1.66046 69.9229 1.99448 69.7892 2.45452 69.6095C2.92463 69.4261 3.45019 69.2224 4.0312 68.9984C4.60852 68.7643 5.17256 68.5408 5.72332 68.3279C6.27409 68.1149 6.73597 67.9403 7.10896 67.8038C7.52719 68.7595 7.99435 69.8802 8.51044 71.1659C9.03292 72.4378 9.56609 73.7859 10.11 75.21C10.6602 76.6203 11.1898 78.0211 11.6988 79.4122C11.9606 80.128 12.2119 80.8305 12.4526 81.5197C12.6933 82.2088 12.9198 82.8747 13.132 83.5172C13.3506 84.1459 13.543 84.7499 13.7092 85.3291C13.8818 85.8947 14.0295 86.4235 14.1525 86.9158C14.2855 87.4043 14.3863 87.8361 14.4549 88.2111ZM35.255 79.5898C35.032 79.98 34.523 80.4634 33.7281 81.04C32.9369 81.6266 32.0322 82.1062 31.014 82.4787C29.7236 82.9508 28.6343 83.035 27.7459 82.7313C26.8576 82.4277 26.0993 81.8078 25.4711 80.8718C24.8392 79.9256 24.2651 78.7469 23.7488 77.3356C23.2951 76.0956 22.8682 74.8973 22.4679 73.7407C22.0639 72.574 21.6816 71.4509 21.3209 70.3712C20.9703 69.2879 20.6363 68.2499 20.3188 67.2573C20.0078 66.251 19.7134 65.2899 19.4355 64.3743C19.1577 63.4587 18.8965 62.5884 18.6518 61.7635C19.5269 61.3747 20.3374 61.0439 21.0834 60.771C21.5572 60.5977 22.0297 60.4362 22.5008 60.2867C22.982 60.1336 23.5241 59.9752 24.1272 59.8117C24.4282 60.8218 24.7462 61.8942 25.0814 63.0289C25.4165 64.1636 25.7548 65.2915 26.0963 66.4124C26.4378 67.5334 26.7641 68.597 27.0751 69.6034C27.3862 70.6098 27.6649 71.4965 27.9112 72.2637C28.1539 73.0207 28.3471 73.5958 28.491 73.989C28.7012 74.5636 28.9113 75.0754 29.1213 75.5243C29.3413 75.9696 29.5768 76.3007 29.8276 76.5176C30.0884 76.7307 30.3751 76.7802 30.6876 76.6658C31.0001 76.5515 31.2351 76.397 31.3924 76.2022C31.5599 76.0038 31.6722 75.7798 31.7295 75.5303C31.8554 75.6557 32.087 75.9138 32.4244 76.3048C32.7718 76.692 33.1459 77.121 33.5467 77.5916C33.9575 78.0585 34.3247 78.4842 34.6483 78.8688C34.9682 79.2433 35.1704 79.4836 35.255 79.5898ZM44.306 77.1701C41.6144 78.1548 39.3052 78.2166 37.3786 77.3556C35.4583 76.4807 34.0113 74.7126 33.0377 72.0513C32.3664 70.2165 32.1761 68.5716 32.4668 67.1165C32.7537 65.6513 33.4304 64.3922 34.4967 63.3391C35.5594 62.276 36.9275 61.4383 38.6009 60.8261C40.2542 60.2212 41.7736 60.094 43.1591 60.4444C44.551 60.781 45.7708 61.5063 46.8184 62.6204C47.8624 63.7244 48.6979 65.1332 49.3249 66.847C49.8781 68.3591 50.062 69.7835 49.8766 71.1201C49.6912 72.4567 49.1332 73.6495 48.2025 74.6987C47.2783 75.7341 45.9794 76.5579 44.306 77.1701ZM42.1234 71.8134C42.4964 71.677 42.8221 71.4892 43.1004 71.2502C43.3851 70.9975 43.6023 70.7008 43.7521 70.3603C43.9119 70.0161 43.9923 69.6266 43.9933 69.1919C43.9906 68.7471 43.8952 68.2676 43.7071 67.7535C43.4563 67.068 43.131 66.5069 42.7312 66.0702C42.3277 65.6235 41.8828 65.329 41.3965 65.1869C40.9065 65.0347 40.3993 65.0545 39.8751 65.2463C39.24 65.4786 38.7936 65.8363 38.536 66.3192C38.2884 66.7984 38.1761 67.3195 38.1992 67.8826C38.2223 68.4456 38.3224 68.9691 38.4994 69.453C38.8351 70.3704 39.3239 71.0659 39.9658 71.5397C40.6078 72.0136 41.327 72.1048 42.1234 71.8134ZM55.9802 53.9021C56.9227 53.7287 57.812 53.5977 58.6482 53.5089C59.4844 53.4202 60.1822 53.3592 60.7416 53.326C61.3074 53.2791 61.6531 53.2554 61.7787 53.2552C61.8953 54.2299 62.0064 55.2522 62.1121 56.3223C62.2141 57.3822 62.3052 58.4748 62.3854 59.5999C62.4719 60.7113 62.5401 61.8351 62.5901 62.9713C62.6363 64.0974 62.6586 65.2208 62.6572 66.3415C62.6621 67.4484 62.6339 68.5274 62.5727 69.5786C61.9479 69.9329 61.1718 70.2797 60.2444 70.619C59.7806 70.7886 59.3215 70.9395 58.8668 71.0715C58.4085 71.1935 58.0157 71.2914 57.6885 71.3654C56.8146 70.5078 55.9412 69.6043 55.0681 68.655C54.2013 67.6919 53.3231 66.6816 52.4333 65.6241C51.5434 64.5666 50.6384 63.4518 49.7181 62.2797C48.8078 61.1039 47.8704 59.8694 46.9059 58.5764C47.0497 58.5009 47.3167 58.3403 47.7069 58.0947C48.0972 57.8491 48.5322 57.5699 49.0122 57.2571C49.4985 56.9306 49.9698 56.6096 50.4259 56.2942C50.882 55.9787 51.2497 55.7185 51.529 55.5134C51.8904 56.0327 52.3134 56.6266 52.7981 57.2951C53.279 57.9536 53.7792 58.6336 54.2988 59.3351C54.8247 60.0228 55.3276 60.6789 55.8076 61.3034C56.2875 61.928 56.704 62.4728 57.0571 62.938C57.4166 63.3895 57.6703 63.7081 57.8183 63.894L57.6701 64.0511C57.6157 63.4652 57.5536 62.905 57.4838 62.3704C57.414 61.8359 57.3336 61.2881 57.2426 60.727C57.1617 60.1622 57.0592 59.5539 56.935 58.9021C56.821 58.2466 56.6843 57.5136 56.5249 56.7032C56.3619 55.8827 56.1803 54.949 55.9802 53.9021ZM82.8672 60.1993C82.6848 60.7004 82.4239 61.1902 82.0846 61.6686C81.7554 62.1434 81.3339 62.6005 80.8203 63.0399C80.313 63.4655 79.7067 63.8702 79.0013 64.254C78.2996 64.6479 77.495 65.0108 76.5878 65.3427C75.0555 65.9033 73.583 66.1277 72.1705 66.0158C70.7643 65.8901 69.5138 65.3932 68.4189 64.525C67.324 63.6568 66.4668 62.3759 65.8472 60.6823C65.2054 58.9283 64.9876 57.2706 65.1937 55.7092C65.4098 54.1442 66.0152 52.7683 67.0097 51.5815C68.0043 50.3946 69.3585 49.4877 71.0722 48.8608C73.2295 48.0715 75.1517 48.0141 76.8386 48.6886C78.5219 49.3529 79.7434 50.7234 80.5032 52.8001C80.6507 53.2034 80.7665 53.5668 80.8506 53.8903C80.931 54.2038 80.9972 54.5568 81.0494 54.9492C80.8844 54.9981 80.5228 55.119 79.9647 55.3117C79.4166 55.5008 78.803 55.7139 78.1239 55.9509C77.4549 56.1842 76.8413 56.3973 76.2832 56.59C75.725 56.7828 75.3603 56.9105 75.1889 56.9732C74.4127 57.2572 73.7048 57.5562 73.0653 57.8702C72.4321 58.1704 71.942 58.424 71.5948 58.631C71.639 58.752 71.6902 58.8762 71.7482 59.0035C71.8126 59.1171 71.8853 59.222 71.9662 59.3181C72.1803 59.5598 72.4434 59.7322 72.7554 59.8352C73.0675 59.9382 73.4133 59.9774 73.7929 59.9529C74.1689 59.9182 74.5534 59.8289 74.9466 59.6851C75.2288 59.5818 75.4987 59.4603 75.7561 59.3204C76.0135 59.1805 76.2599 59.0103 76.4952 58.8099C76.7369 58.5958 76.9607 58.3482 77.1665 58.0671C77.3823 57.7824 77.5899 57.4436 77.789 57.0507C77.868 57.079 78.1089 57.1908 78.5119 57.3863C78.925 57.5781 79.4042 57.8257 79.9495 58.1291C80.4949 58.4325 81.0343 58.7667 81.5679 59.1316C82.0978 59.4864 82.5309 59.8423 82.8672 60.1993ZM70.6237 55.18C70.8875 55.0264 71.2389 54.8464 71.6778 54.6401C72.1167 54.4338 72.6436 54.2182 73.2585 53.9932C73.6114 53.8641 73.9459 53.7474 74.2621 53.6432C74.5783 53.5389 74.8037 53.4679 74.9385 53.43C74.8905 53.299 74.81 53.157 74.6969 53.004C74.5341 52.7778 74.3169 52.6058 74.0452 52.4881C73.7799 52.3565 73.4859 52.2869 73.163 52.2793C72.8365 52.2616 72.4968 52.3173 72.144 52.4464C71.65 52.6271 71.2842 52.8924 71.0464 53.2423C70.8049 53.5821 70.6589 53.9327 70.6082 54.2941C70.5677 54.6519 70.5728 54.9472 70.6237 55.18ZM102.149 55.7167L95.6136 57.8164C94.7666 55.6573 93.9132 53.512 93.0534 51.3805C92.2036 49.2453 91.3507 47.117 90.4946 44.9956C89.6348 42.8641 88.7667 40.7413 87.8904 38.6273C88.9496 38.1483 90.03 37.6959 91.1316 37.2701C92.2294 36.8341 93.2874 36.4299 94.3056 36.0574C95.5354 35.6075 96.6678 35.2503 97.7027 34.986C98.7376 34.7217 99.5884 34.5476 100.255 34.4638C100.65 35.3251 101.037 36.2121 101.417 37.1248C101.797 38.0375 102.108 38.8265 102.352 39.4919C101.951 39.6155 101.365 39.7955 100.595 40.0318C99.8201 40.258 98.9819 40.5132 98.08 40.7974C97.1744 41.0716 96.3235 41.3543 95.5271 41.6457C95.6025 41.7895 95.6872 41.9586 95.7812 42.1528C95.8714 42.337 95.9653 42.5312 96.0629 42.7355C96.1669 42.9261 96.259 43.1153 96.3392 43.3032C96.7928 43.1372 97.3615 42.9577 98.0453 42.7647C98.7254 42.5616 99.3909 42.381 100.042 42.2229C100.693 42.0648 101.19 41.957 101.535 41.8995C101.804 42.6354 102.08 43.4034 102.361 44.2035C102.638 44.9935 102.91 45.8601 103.175 46.8032C102.807 46.892 102.364 47.0084 101.845 47.1525C101.333 47.2828 100.794 47.4343 100.228 47.6069C99.6729 47.7758 99.1381 47.9543 98.624 48.1424C99.0134 48.9257 99.4126 49.7513 99.8215 50.619C100.23 51.4867 100.634 52.3562 101.033 53.2276C101.428 54.0889 101.8 54.9186 102.149 55.7167ZM117.529 50.5529C115.695 51.2242 114.118 51.3836 112.801 51.0313C111.479 50.6688 110.299 49.8778 109.258 48.6583C108.175 47.3856 107.177 45.6877 106.263 43.5646C105.345 41.4314 104.374 38.9635 103.349 36.161C103.253 35.8989 103.157 35.6368 103.061 35.3747C102.975 35.1089 102.882 34.8399 102.783 34.5677C102.69 34.2818 102.596 33.9958 102.503 33.7099C102.406 33.4138 102.308 33.1127 102.207 32.8066C102.713 32.5644 103.222 32.3323 103.735 32.1103C104.255 31.8745 104.752 31.67 105.225 31.4966C105.84 31.2716 106.463 31.0668 107.092 30.8822C107.728 30.6838 108.308 30.5175 108.83 30.3835C109.032 31.1214 109.258 31.9129 109.51 32.758C109.769 33.5893 110.046 34.4421 110.343 35.3164C110.64 36.1908 110.946 37.0564 111.259 37.9133C111.606 38.8609 111.928 39.6801 112.227 40.3711C112.536 41.0583 112.832 41.6185 113.116 42.0517C113.446 42.5482 113.775 42.885 114.103 43.0623C114.437 43.2258 114.796 43.2375 115.179 43.0973C115.703 42.9056 116.034 42.5904 116.17 42.1517C116.307 41.7131 116.311 41.1917 116.181 40.5876C116.062 39.9798 115.873 39.323 115.615 38.6174C115.478 38.2444 115.285 37.7321 115.035 37.0805C114.782 36.4189 114.501 35.6986 114.193 34.9196C113.882 34.1306 113.572 33.3636 113.266 32.6186C112.955 31.8635 112.678 31.1991 112.434 30.6255C112.186 30.0418 112.001 29.6295 111.878 29.3885C112.372 29.2078 112.959 29.0159 113.639 28.8128C114.319 28.6097 114.991 28.4153 115.655 28.2297C116.328 28.0404 116.913 27.8893 117.409 27.7764C117.901 27.6535 118.209 27.5869 118.331 27.5766C118.596 28.0511 118.857 28.5614 119.114 29.1075C119.367 29.6435 119.612 30.2052 119.85 30.7926C120.094 31.3663 120.329 31.9605 120.554 32.5755C121.299 34.6118 121.889 36.5678 122.323 38.4433C122.758 40.3189 122.924 42.0528 122.82 43.6451C122.727 45.2337 122.263 46.6208 121.428 47.8064C120.603 48.9883 119.304 49.9038 117.529 50.5529ZM129.013 46.4716C128.787 46.0401 128.475 45.4056 128.077 44.5681C127.685 43.7169 127.233 42.7452 126.719 41.653C126.211 40.547 125.679 39.3875 125.121 38.1743C124.572 36.9575 124.028 35.7507 123.487 34.554C122.943 33.3473 122.435 32.2244 121.964 31.1853C121.502 30.1425 121.099 29.2441 120.755 28.49C120.42 27.7322 120.186 27.2007 120.051 26.8956C120.517 26.6682 121.091 26.3951 121.775 26.0765C122.458 25.7578 123.191 25.4326 123.972 25.101C124.75 24.7592 125.507 24.4537 126.243 24.1845C128.149 23.4874 129.84 23.0801 131.317 22.9626C132.791 22.835 134.09 23.0283 135.215 23.5424C136.351 24.0529 137.354 24.9034 138.223 26.0939C139.093 27.2844 139.879 28.8374 140.579 30.7528C141.38 32.9403 141.723 34.8151 141.608 36.3772C141.494 37.9392 140.941 39.3018 139.949 40.4647C138.954 41.6177 137.537 42.6673 135.7 43.6137C133.873 44.5563 131.644 45.509 129.013 46.4716ZM132.388 38.1216C133.285 37.7934 133.933 37.4079 134.331 36.965C134.735 36.5084 134.943 35.9981 134.954 35.4341C134.971 34.8563 134.852 34.2196 134.598 33.524C134.281 32.657 133.861 31.8219 133.338 31.0186C132.816 30.2154 132.221 29.6044 131.553 29.1856C130.882 28.7568 130.164 28.6826 129.397 28.9628C129.246 29.0182 129.085 29.0772 128.913 29.1399C128.742 29.2026 128.608 29.2574 128.511 29.3044C128.874 30.1089 129.283 31.0394 129.738 32.0959C130.199 33.1387 130.664 34.1915 131.133 35.2545C131.599 36.3073 132.017 37.263 132.388 38.1216ZM151.873 37.4741C151.695 37.5506 151.311 37.7196 150.721 37.9812C150.141 38.2391 149.513 38.4916 148.838 38.7387C148.374 38.9084 147.89 39.0685 147.385 39.2189C146.893 39.3758 146.395 39.5125 145.889 39.629C145.833 39.3522 145.695 38.8027 145.474 37.9804C145.253 37.1582 144.981 36.1949 144.657 35.0904C144.339 33.9722 144.004 32.8205 143.65 31.6354C143.297 30.4502 142.954 29.3412 142.622 28.3083C142.289 27.2754 142.009 26.4464 141.78 25.8214C142.035 25.7053 142.401 25.5487 142.877 25.3515C143.364 25.1506 143.886 24.9368 144.443 24.7101C145 24.4834 145.534 24.271 146.044 24.0728C146.551 23.8646 146.955 23.7051 147.258 23.5945C147.454 23.9114 147.716 24.4557 148.044 25.2272C148.368 25.9887 148.705 26.8483 149.056 27.806C149.388 28.7133 149.718 29.6614 150.045 30.6503C150.369 31.6291 150.665 32.5782 150.932 33.4975C151.207 34.4031 151.427 35.2083 151.593 35.9133C151.76 36.6182 151.853 37.1385 151.873 37.4741ZM144.028 22.8731C142.969 23.2603 141.951 23.2898 140.974 22.9616C140.007 22.6296 139.335 21.9495 138.959 20.9213C138.708 20.2358 138.669 19.5815 138.841 18.9584C139.013 18.3354 139.328 17.7914 139.787 17.3264C140.252 16.8477 140.792 16.4959 141.407 16.2709C142.395 15.9095 143.336 15.9196 144.23 16.3012C145.134 16.6791 145.768 17.3671 146.133 18.3651C146.476 19.3026 146.441 20.2069 146.029 21.0781C145.622 21.9354 144.955 22.5338 144.028 22.8731ZM161.445 34.2635C161.062 34.4037 160.586 34.572 160.018 34.7684C159.464 34.9713 158.892 35.1746 158.304 35.3785C157.853 35.5206 157.32 35.6871 156.704 35.8782C156.102 36.0756 155.691 36.203 155.472 36.2603C155.256 35.3904 154.969 34.3867 154.61 33.2493C154.261 32.1082 153.857 30.8617 153.397 29.5099C152.936 28.158 152.435 26.7242 151.891 25.2084C151.355 23.6788 150.788 22.0974 150.19 20.4643C150.642 20.2305 151.19 19.9786 151.834 19.7086C152.474 19.4286 153.117 19.1705 153.762 18.9345C154.236 18.7611 154.695 18.6103 155.14 18.482C155.581 18.3435 155.977 18.2387 156.328 18.1674C156.357 18.248 156.422 18.4244 156.522 18.6966C156.617 18.9587 156.719 19.2529 156.827 19.5792C156.942 19.8917 157.04 20.1758 157.122 20.4315C157.171 20.0022 157.387 19.4832 157.77 18.8744C158.153 18.2656 158.666 17.6836 159.308 17.1284C159.957 16.5595 160.69 16.1256 161.507 15.8269C163.049 15.2626 164.348 15.1418 165.403 15.4644C166.469 15.7833 167.39 16.5207 168.167 17.6765C168.951 18.8186 169.695 20.3524 170.399 22.2779C170.621 22.8827 170.87 23.626 171.146 24.5077C171.43 25.3757 171.708 26.2913 171.98 27.2547C172.259 28.2042 172.492 29.1076 172.68 29.9647C172.435 30.0771 172.048 30.236 171.517 30.4416C170.99 30.6572 170.429 30.8738 169.835 31.0914C169.189 31.3275 168.576 31.5405 167.994 31.7306C167.416 31.9307 166.997 32.0668 166.737 32.1388C166.695 31.7427 166.601 31.1257 166.454 30.2878C166.304 29.4397 166.099 28.5033 165.838 27.4785C165.588 26.45 165.293 25.472 164.953 24.5446C164.695 23.8389 164.412 23.2511 164.103 22.7813C163.8 22.2976 163.431 21.9755 162.995 21.815C162.565 21.6406 162.033 21.6697 161.398 21.902C161.004 22.0458 160.629 22.269 160.271 22.5714C159.909 22.8637 159.581 23.201 159.287 23.583C158.998 23.9514 158.753 24.3269 158.55 24.7098C159.107 26.232 159.575 27.604 159.953 28.8257C160.338 30.0337 160.65 31.091 160.89 31.9975C161.131 32.9041 161.316 33.6594 161.445 34.2635ZM183.049 21.4219C180.852 22.2259 179.009 22.5798 177.523 22.4836C176.042 22.3737 174.866 21.9697 173.993 21.2717C173.127 20.5599 172.513 19.71 172.152 18.7221C171.672 17.4116 171.63 16.1868 172.025 15.048C172.42 13.9091 173.156 12.891 174.234 11.9938C175.321 11.0929 176.672 10.3474 178.285 9.75734C180.845 8.82057 182.924 8.66014 184.521 9.27607C186.118 9.892 187.228 11.0518 187.851 12.7555C188.349 14.1164 188.472 15.3575 188.219 16.4787C187.973 17.5861 187.408 18.5584 186.526 19.3956C185.64 20.2227 184.481 20.8981 183.049 21.4219ZM186.691 33.3431C185.078 33.9332 183.544 34.3172 182.088 34.4952C180.637 34.6833 179.364 34.5317 178.27 34.0404C177.186 33.5455 176.382 32.5823 175.858 31.1508C175.545 30.2939 175.548 29.3956 175.867 28.4558C176.193 27.5023 176.811 26.5845 177.723 25.7023C178.645 24.8164 179.836 24.0432 181.298 23.3828C181.894 23.1075 182.522 22.838 183.18 22.5744C183.844 22.2971 184.71 21.9629 185.779 21.572C187.382 20.9856 188.826 20.886 190.11 21.2733C191.391 21.6504 192.334 22.6657 192.939 24.3189C193.47 25.7706 193.511 27.0701 193.062 28.2173C192.627 29.371 191.839 30.3735 190.699 31.225C189.569 32.0728 188.233 32.7788 186.691 33.3431ZM185.496 29.7508C186.051 29.548 186.508 29.3123 186.867 29.0438C187.236 28.7716 187.494 28.4772 187.641 28.1605C187.791 27.8539 187.806 27.5342 187.684 27.2016C187.57 26.8891 187.387 26.6702 187.135 26.5451C186.898 26.4263 186.616 26.375 186.29 26.3913C185.979 26.4139 185.651 26.4879 185.309 26.6133C185.117 26.6834 184.885 26.7682 184.613 26.8678C184.351 26.9637 184.079 27.0632 183.797 27.1665C183.524 27.2661 183.277 27.3564 183.056 27.4376C182.713 27.563 182.437 27.6983 182.227 27.8436C182.021 27.999 181.889 28.1846 181.83 28.4002C181.776 28.6259 181.811 28.9101 181.937 29.2529C182.051 29.5654 182.266 29.7952 182.583 29.9422C182.914 30.0956 183.325 30.1567 183.816 30.1255C184.311 30.1044 184.871 29.9795 185.496 29.7508ZM179.707 25.9708C178.073 26.1913 176.892 26.1661 176.165 25.8952C175.433 25.6141 174.955 25.1661 174.73 24.5512C174.546 24.0472 174.497 23.585 174.583 23.1648C174.676 22.7309 174.826 22.3614 175.035 22.0565C175.239 21.7416 175.435 21.5101 175.621 21.3621L180.069 21.7578C179.797 21.9831 179.614 22.2159 179.519 22.4564C179.42 22.6867 179.402 22.8876 179.465 23.059C179.546 23.2808 179.746 23.4363 180.064 23.5256C180.383 23.6148 180.794 23.5672 181.298 23.3828L179.707 25.9708ZM180.965 17.1779C181.389 17.023 181.743 16.8361 182.029 16.6173C182.315 16.3985 182.504 16.1349 182.597 15.8266C182.69 15.5182 182.661 15.1574 182.509 14.7441C182.395 14.4316 182.197 14.2013 181.914 14.0533C181.641 13.9016 181.331 13.8206 180.985 13.8103C180.638 13.7999 180.303 13.8538 179.981 13.9718C179.426 14.1746 178.921 14.4796 178.464 14.8868C178.017 15.2903 177.903 15.7894 178.12 16.3842C178.33 16.9588 178.703 17.291 179.239 17.3807C179.775 17.4705 180.35 17.4029 180.965 17.1779ZM186.248 11.559L181.892 9.96353C181.849 9.53349 181.921 9.02711 182.108 8.44438C182.291 7.85158 182.548 7.27193 182.878 6.70543C183.218 6.13524 183.586 5.6746 183.984 5.32349C184.247 5.51281 184.613 5.77898 185.082 6.12198C185.556 6.45121 186.045 6.78683 186.547 7.12885C187.05 7.47086 187.479 7.75387 187.835 7.97786C187.607 8.19841 187.388 8.44416 187.179 8.71512C186.966 8.97599 186.784 9.25973 186.633 9.56634C186.479 9.86287 186.366 10.1786 186.294 10.5135C186.222 10.8483 186.207 11.1969 186.248 11.559Z" fill="black" fill-opacity="0.54"/>
</svg>
