<svg width="197" height="32" viewBox="0 0 197 32" fill="none" xmlns="http://www.w3.org/2000/svg">
<path d="M6.56146 23.9436C6.02474 23.9436 5.40214 23.9382 4.69367 23.9275C3.9852 23.9167 3.27136 23.8899 2.55216 23.847C1.83295 23.8148 1.17279 23.7611 0.571659 23.6859C0.55019 23.0419 0.528721 22.2046 0.507252 21.1741C0.485784 20.1329 0.464315 19.0057 0.442846 17.7928C0.432112 16.569 0.426744 15.3775 0.426744 14.2182C0.426744 12.3826 0.442846 10.4719 0.475049 8.48603C0.507252 6.48943 0.55019 4.45526 0.603862 2.38352C0.829285 2.37279 1.18889 2.36205 1.68267 2.35132C2.18719 2.34058 2.75074 2.32985 3.37334 2.31912C3.99593 2.29765 4.60243 2.28154 5.19282 2.27081C5.78321 2.26007 6.27699 2.25471 6.67417 2.25471C6.73857 3.29594 6.79225 4.50893 6.83518 5.89367C6.88885 7.26767 6.92643 8.71682 6.94789 10.2411C6.9801 11.7547 6.9962 13.2521 6.9962 14.7335C6.9962 15.4956 6.99083 16.2416 6.9801 16.9716C6.96936 17.7015 6.95326 18.4046 6.93179 19.0809C6.92106 19.7464 6.89422 20.3797 6.85128 20.9809C6.81908 21.5713 6.77614 22.1187 6.72247 22.6232C6.67953 23.1278 6.62586 23.5679 6.56146 23.9436ZM29.0574 22.9936C28.7139 23.2834 28.0698 23.5625 27.1252 23.8309C26.1806 24.11 25.1662 24.2495 24.082 24.2495C22.708 24.2495 21.656 23.9543 20.9261 23.3639C20.1962 22.7735 19.697 21.9309 19.4286 20.836C19.1603 19.7303 19.0261 18.4261 19.0261 16.9233C19.0261 15.6029 19.0368 14.3309 19.0583 13.1072C19.0798 11.8727 19.1066 10.6866 19.1388 9.54873C19.1818 8.41089 19.2247 7.32135 19.2676 6.28011C19.3213 5.22814 19.375 4.22447 19.4286 3.26911C19.4823 2.31375 19.536 1.40669 19.5897 0.547939C20.545 0.483532 21.4199 0.451328 22.2142 0.451328C22.7187 0.451328 23.2179 0.462063 23.7117 0.483531C24.2162 0.505 24.7797 0.54257 25.4023 0.596242C25.3379 1.64821 25.2682 2.76459 25.193 3.94538C25.1179 5.12616 25.0481 6.30158 24.9837 7.47163C24.9193 8.64168 24.8603 9.75269 24.8066 10.8047C24.7529 11.8566 24.71 12.7852 24.6778 13.5902C24.6456 14.3846 24.6295 14.9911 24.6295 15.4097C24.6295 16.0216 24.6509 16.5744 24.6939 17.0682C24.7475 17.562 24.8549 17.9538 25.0159 18.2436C25.1877 18.5334 25.4399 18.6783 25.7727 18.6783C26.1054 18.6783 26.3792 18.6139 26.5939 18.4851C26.8193 18.3563 27.0018 18.1846 27.1413 17.9699C27.2165 18.1309 27.3453 18.4529 27.5278 18.936C27.721 19.419 27.9249 19.9504 28.1396 20.53C28.365 21.1097 28.5636 21.6357 28.7354 22.108C28.9071 22.5696 29.0145 22.8648 29.0574 22.9936ZM38.3888 23.8309C35.5227 23.8309 33.3329 23.0955 31.8193 21.6249C30.3165 20.1436 29.5651 17.986 29.5651 15.1521C29.5651 13.1984 29.9515 11.5883 30.7244 10.3216C31.4973 9.04422 32.5654 8.09422 33.9286 7.47163C35.2919 6.8383 36.8645 6.52163 38.6464 6.52163C40.4069 6.52163 41.8775 6.92417 43.0583 7.72925C44.2498 8.5236 45.1461 9.62387 45.7472 11.0301C46.3483 12.4256 46.6489 14.0357 46.6489 15.8606C46.6489 17.4707 46.3322 18.8716 45.6989 20.0631C45.0656 21.2546 44.1317 22.1831 42.8972 22.8487C41.6735 23.5035 40.1707 23.8309 38.3888 23.8309ZM38.1795 18.0504C38.5766 18.0504 38.947 17.986 39.2905 17.8572C39.6447 17.7176 39.9506 17.5137 40.2083 17.2453C40.4766 16.9769 40.686 16.6388 40.8362 16.2309C40.9865 15.8123 41.0617 15.3292 41.0617 14.7818C41.0617 14.0518 40.9489 13.4131 40.7235 12.8657C40.4981 12.3075 40.1814 11.8781 39.7735 11.5775C39.3656 11.2662 38.8826 11.1106 38.3244 11.1106C37.6481 11.1106 37.106 11.2931 36.6981 11.658C36.3009 12.023 36.0165 12.4739 35.8447 13.0106C35.673 13.5473 35.5871 14.0733 35.5871 14.5885C35.5871 15.5654 35.8072 16.3865 36.2473 17.0521C36.6874 17.7176 37.3315 18.0504 38.1795 18.0504ZM57.3467 5.99028C58.2913 6.1513 59.1715 6.33378 59.9873 6.53773C60.8031 6.74169 61.4794 6.92417 62.0161 7.08519C62.5636 7.23547 62.8964 7.33208 63.0144 7.37502C62.789 8.33038 62.5421 9.32868 62.2738 10.3699C62.0054 11.4004 61.7156 12.4578 61.4043 13.5419C61.1037 14.6154 60.7817 15.6942 60.4382 16.7784C60.0947 17.8518 59.7297 18.9145 59.3433 19.9665C58.9676 21.0077 58.5704 22.0114 58.1517 22.9775C57.4433 23.0955 56.5953 23.1546 55.6077 23.1546C55.1139 23.1546 54.6309 23.1385 54.1585 23.1063C53.6862 23.0633 53.2837 23.0204 52.9509 22.9775C52.4249 21.8718 51.9151 20.7232 51.4213 19.5317C50.9382 18.3295 50.4605 17.0789 49.9882 15.7801C49.5159 14.4812 49.049 13.1233 48.5874 11.7063C48.1365 10.2894 47.6803 8.80806 47.2188 7.26231C47.3798 7.24084 47.6857 7.1818 48.1365 7.08519C48.5874 6.98858 49.0919 6.87587 49.6501 6.74706C50.219 6.60751 50.7718 6.46796 51.3086 6.32841C51.8453 6.18887 52.28 6.07079 52.6128 5.97418C52.7738 6.58604 52.967 7.28914 53.1925 8.08349C53.4179 8.8671 53.654 9.67755 53.9009 10.5148C54.1585 11.3414 54.4054 12.1304 54.6416 12.8818C54.8778 13.6332 55.0817 14.288 55.2535 14.8462C55.4359 15.3936 55.5648 15.7801 55.6399 16.0055L55.4467 16.1021C55.597 15.5332 55.7311 14.9857 55.8492 14.4597C55.9673 13.9337 56.08 13.3917 56.1874 12.8335C56.3054 12.2753 56.4181 11.6688 56.5255 11.014C56.6436 10.3592 56.767 9.62387 56.8958 8.80806C57.0246 7.98151 57.1749 7.04225 57.3467 5.99028ZM80.4333 21.1419C80.0898 21.5498 79.6766 21.9201 79.1935 22.2529C78.7212 22.5857 78.1684 22.8701 77.5351 23.1063C76.9125 23.3317 76.204 23.5035 75.4096 23.6215C74.6153 23.7503 73.7351 23.8148 72.769 23.8148C71.1374 23.8148 69.6775 23.5196 68.3893 22.9292C67.112 22.328 66.1083 21.4317 65.3783 20.2402C64.6484 19.0487 64.2834 17.5512 64.2834 15.7479C64.2834 13.8801 64.6484 12.2484 65.3783 10.853C66.119 9.45749 67.1603 8.37332 68.5021 7.60044C69.8439 6.82756 71.4272 6.44112 73.252 6.44112C75.5492 6.44112 77.374 7.04762 78.7266 8.26061C80.0791 9.46286 80.7554 11.1696 80.7554 13.3809C80.7554 13.8103 80.7393 14.1914 80.7071 14.5241C80.6749 14.8462 80.6158 15.2004 80.53 15.5868C80.3582 15.5761 79.9771 15.5654 79.3867 15.5546C78.8071 15.5439 78.1577 15.5332 77.4384 15.5224C76.73 15.5117 76.0805 15.501 75.4902 15.4902C74.8998 15.4795 74.5133 15.4741 74.3308 15.4741C73.5043 15.4741 72.7368 15.5117 72.0283 15.5868C71.3306 15.6512 70.7831 15.721 70.3859 15.7962C70.3859 15.925 70.3913 16.0591 70.402 16.1987C70.4235 16.3275 70.4557 16.451 70.4987 16.569C70.6167 16.8696 70.8046 17.1219 71.0622 17.3258C71.3198 17.5298 71.6311 17.6854 71.9961 17.7928C72.3611 17.8894 72.7529 17.9377 73.1715 17.9377C73.4721 17.9377 73.7673 17.9162 74.0571 17.8733C74.3469 17.8303 74.6368 17.7552 74.9266 17.6478C75.2272 17.5298 75.5224 17.3741 75.8122 17.1809C76.1127 16.9877 76.424 16.7408 76.7461 16.4402C76.8105 16.4939 76.9983 16.6817 77.3096 17.0038C77.6317 17.3258 77.9966 17.723 78.4045 18.1953C78.8124 18.6676 79.2043 19.1668 79.58 19.6927C79.9557 20.208 80.2401 20.691 80.4333 21.1419ZM70.6597 12.2216C70.9602 12.1679 71.352 12.1196 71.8351 12.0767C72.3181 12.0337 72.8871 12.0123 73.5419 12.0123C73.9176 12.0123 74.2718 12.0176 74.6046 12.0284C74.9373 12.0391 75.1735 12.0498 75.313 12.0606C75.313 11.921 75.2862 11.76 75.2325 11.5775C75.1574 11.3092 75.0125 11.073 74.7978 10.8691C74.5938 10.6544 74.3416 10.488 74.041 10.3699C73.7404 10.2411 73.4023 10.1767 73.0266 10.1767C72.5006 10.1767 72.0659 10.3001 71.7224 10.547C71.3789 10.7832 71.1212 11.0623 70.9495 11.3843C70.7885 11.7063 70.6919 11.9854 70.6597 12.2216ZM100.082 23.5571L93.2225 23.2834C93.1689 20.9648 93.1045 18.6569 93.0293 16.3597C92.9649 14.0626 92.8951 11.7708 92.82 9.48433C92.7449 7.18717 92.659 4.89537 92.5624 2.60894C93.7217 2.52307 94.8917 2.4694 96.0725 2.44793C97.2533 2.41572 98.3858 2.39962 99.47 2.39962C100.78 2.39962 101.966 2.45329 103.028 2.56064C104.091 2.66798 104.95 2.7968 105.605 2.94708C105.68 3.8917 105.739 4.8578 105.782 5.84537C105.825 6.83293 105.846 7.68095 105.846 8.38942C105.428 8.36795 104.816 8.33575 104.011 8.29281C103.206 8.23914 102.331 8.19083 101.386 8.14789C100.441 8.09422 99.5451 8.06739 98.6971 8.06739C98.7186 8.2284 98.74 8.41625 98.7615 8.63094C98.783 8.8349 98.8044 9.04958 98.8259 9.27501C98.8581 9.48969 98.8796 9.69902 98.8903 9.90297C99.3734 9.90297 99.9691 9.92981 100.678 9.98348C101.386 10.0264 102.073 10.0855 102.739 10.1606C103.404 10.2357 103.909 10.3055 104.252 10.3699C104.252 11.1535 104.247 11.9693 104.236 12.8174C104.225 13.6546 104.182 14.5617 104.107 15.5385C103.732 15.4956 103.275 15.4527 102.739 15.4097C102.213 15.356 101.654 15.3131 101.064 15.2809C100.484 15.2487 99.9208 15.2326 99.3734 15.2326C99.47 16.1021 99.5612 17.0145 99.6471 17.9699C99.733 18.9252 99.8135 19.8806 99.8886 20.836C99.9637 21.7806 100.028 22.6876 100.082 23.5571ZM116.3 23.9919C114.346 23.9919 112.811 23.6001 111.695 22.8165C110.578 22.0221 109.741 20.8735 109.183 19.3707C108.603 17.8035 108.249 15.8659 108.12 13.558C107.991 11.2394 107.927 8.58801 107.927 5.60384C107.927 5.32475 107.927 5.04565 107.927 4.76656C107.938 4.48746 107.943 4.203 107.943 3.91317C107.954 3.61261 107.964 3.31205 107.975 3.01148C107.986 2.70019 107.997 2.38352 108.007 2.06149C108.566 2.00782 109.124 1.96488 109.682 1.93268C110.251 1.88974 110.788 1.86827 111.292 1.86827C111.947 1.86827 112.602 1.88974 113.256 1.93268C113.922 1.96488 114.523 2.00782 115.06 2.06149C114.995 2.82363 114.936 3.64481 114.883 4.52503C114.84 5.39452 114.808 6.29084 114.786 7.214C114.765 8.13716 114.754 9.05495 114.754 9.96738C114.754 10.9764 114.775 11.8566 114.818 12.608C114.872 13.3594 114.958 13.9874 115.076 14.4919C115.215 15.0716 115.409 15.501 115.656 15.7801C115.913 16.0484 116.246 16.1826 116.654 16.1826C117.212 16.1826 117.631 16.0001 117.91 15.6351C118.189 15.2702 118.371 14.7818 118.457 14.1699C118.554 13.558 118.602 12.8764 118.602 12.125C118.602 11.7278 118.597 11.1804 118.586 10.4826C118.575 9.77416 118.559 9.00128 118.538 8.164C118.516 7.31598 118.489 6.48943 118.457 5.68435C118.425 4.86853 118.393 4.14933 118.361 3.52673C118.328 2.8934 118.296 2.44256 118.264 2.1742C118.79 2.1742 119.407 2.19567 120.116 2.23861C120.824 2.28154 121.522 2.32985 122.209 2.38352C122.907 2.43719 123.508 2.49623 124.012 2.56064C124.517 2.61431 124.828 2.65725 124.946 2.68945C125.032 3.22617 125.102 3.79509 125.156 4.39622C125.209 4.98661 125.247 5.59847 125.268 6.2318C125.3 6.8544 125.317 7.4931 125.317 8.14789C125.317 10.3162 125.198 12.3558 124.962 14.2665C124.726 16.1772 124.286 17.8625 123.642 19.3224C123.009 20.7823 122.096 21.9255 120.905 22.752C119.724 23.5786 118.189 23.9919 116.3 23.9919ZM128.487 24.1046C128.422 23.6215 128.347 22.9184 128.261 21.9953C128.186 21.0614 128.095 19.9933 127.988 18.7911C127.891 17.5781 127.789 16.306 127.682 14.975C127.585 13.6439 127.489 12.3236 127.392 11.014C127.295 9.69365 127.204 8.46456 127.118 7.32671C127.043 6.18887 126.973 5.20667 126.909 4.38012C126.855 3.55357 126.818 2.97391 126.796 2.64115C127.311 2.58747 127.945 2.52844 128.696 2.46403C129.448 2.39962 130.247 2.34595 131.095 2.30301C131.943 2.24934 132.759 2.2225 133.543 2.2225C135.572 2.2225 137.3 2.42109 138.727 2.81826C140.155 3.2047 141.309 3.83266 142.189 4.70215C143.08 5.57164 143.73 6.71485 144.138 8.13179C144.545 9.54873 144.749 11.277 144.749 13.3165C144.749 15.6459 144.427 17.5244 143.783 18.9521C143.139 20.3797 142.152 21.4693 140.821 22.2207C139.49 22.9614 137.799 23.4605 135.749 23.7181C133.709 23.9758 131.288 24.1046 128.487 24.1046ZM134.525 17.4224C135.48 17.4224 136.221 17.2829 136.747 17.0038C137.284 16.7139 137.654 16.306 137.858 15.7801C138.073 15.2433 138.18 14.6046 138.18 13.864C138.18 12.9408 138.073 12.0123 137.858 11.0784C137.643 10.1445 137.294 9.36625 136.811 8.74365C136.328 8.11032 135.679 7.79366 134.863 7.79366C134.702 7.79366 134.53 7.79366 134.348 7.79366C134.165 7.79366 134.02 7.79903 133.913 7.80976C133.977 8.68998 134.042 9.70438 134.106 10.853C134.181 11.9908 134.257 13.1394 134.332 14.2987C134.407 15.4473 134.471 16.4885 134.525 17.4224ZM153.046 23.5088C152.853 23.5196 152.434 23.5464 151.79 23.5893C151.157 23.6323 150.481 23.6537 149.761 23.6537C149.268 23.6537 148.758 23.6376 148.232 23.6054C147.716 23.584 147.201 23.541 146.686 23.4766C146.729 23.1975 146.788 22.634 146.863 21.786C146.938 20.9379 147.013 19.9396 147.088 18.7911C147.174 17.6317 147.255 16.4349 147.33 15.2004C147.405 13.9659 147.464 12.8066 147.507 11.7225C147.55 10.6383 147.571 9.76342 147.571 9.09789C147.851 9.07642 148.248 9.05495 148.763 9.03348C149.289 9.01201 149.853 8.99055 150.454 8.96908C151.055 8.94761 151.629 8.93151 152.177 8.92077C152.724 8.8993 153.159 8.88857 153.481 8.88857C153.556 9.25354 153.615 9.85466 153.658 10.6919C153.701 11.5185 153.722 12.4417 153.722 13.4614C153.722 14.4275 153.706 15.4312 153.674 16.4724C153.642 17.5029 153.593 18.4959 153.529 19.4512C153.475 20.3958 153.406 21.2278 153.32 21.947C153.234 22.6662 153.143 23.1868 153.046 23.5088ZM150.695 7.10129C149.568 7.10129 148.602 6.77926 147.797 6.13519C147.003 5.49113 146.605 4.62164 146.605 3.52673C146.605 2.7968 146.793 2.16883 147.169 1.64285C147.545 1.11686 148.028 0.714321 148.618 0.435226C149.219 0.145398 149.847 0.000483417 150.502 0.000483417C151.554 0.000483417 152.434 0.33325 153.143 0.998783C153.862 1.66432 154.221 2.52843 154.221 3.59114C154.221 4.58944 153.878 5.42672 153.191 6.10299C152.515 6.76852 151.683 7.10129 150.695 7.10129ZM163.139 23.7826C162.731 23.7826 162.226 23.7772 161.625 23.7664C161.035 23.7664 160.428 23.7611 159.806 23.7503C159.333 23.7289 158.775 23.702 158.131 23.6698C157.498 23.6484 157.068 23.6269 156.843 23.6054C156.94 22.7145 157.015 21.6732 157.068 20.4817C157.133 19.2902 157.181 17.9806 157.213 16.5529C157.246 15.1253 157.267 13.6063 157.278 11.9962C157.299 10.3753 157.31 8.69535 157.31 6.95638C157.814 6.89197 158.416 6.84366 159.113 6.81146C159.811 6.76852 160.503 6.74706 161.19 6.74706C161.695 6.74706 162.178 6.76316 162.64 6.79536C163.101 6.81683 163.509 6.8544 163.863 6.90807C163.863 6.99395 163.863 7.1818 163.863 7.47163C163.863 7.75072 163.858 8.06202 163.847 8.40552C163.847 8.73829 163.842 9.03885 163.831 9.30721C164.024 8.92077 164.405 8.5075 164.974 8.06739C165.543 7.62728 166.225 7.25694 167.019 6.95638C167.824 6.64508 168.662 6.48943 169.531 6.48943C171.173 6.48943 172.435 6.8222 173.315 7.48773C174.206 8.15326 174.818 9.1623 175.151 10.5148C175.494 11.8566 175.666 13.5527 175.666 15.6029C175.666 16.247 175.644 17.0306 175.601 17.9538C175.569 18.8662 175.515 19.8216 175.44 20.8199C175.376 21.8074 175.285 22.7359 175.167 23.6054C174.898 23.6269 174.48 23.643 173.911 23.6537C173.342 23.6752 172.741 23.6859 172.107 23.6859C171.42 23.6859 170.771 23.6752 170.159 23.6537C169.547 23.643 169.107 23.6269 168.839 23.6054C168.935 23.219 169.059 22.6071 169.209 21.7699C169.359 20.9218 169.488 19.9718 169.595 18.9199C169.714 17.8679 169.773 16.8481 169.773 15.8606C169.773 15.1092 169.708 14.4597 169.579 13.9123C169.461 13.3541 169.225 12.9247 168.871 12.6241C168.527 12.3128 168.018 12.1572 167.341 12.1572C166.923 12.1572 166.493 12.2377 166.053 12.3987C165.613 12.549 165.189 12.753 164.781 13.0106C164.384 13.2575 164.024 13.5258 163.702 13.8157C163.702 15.4366 163.67 16.8857 163.606 18.1631C163.552 19.4298 163.482 20.53 163.396 21.4639C163.31 22.3978 163.225 23.1707 163.139 23.7826ZM187.84 19.1453C185.5 19.1453 183.648 18.8447 182.285 18.2436C180.932 17.6317 179.966 16.8481 179.386 15.8928C178.818 14.9267 178.533 13.9176 178.533 12.8657C178.533 11.4702 178.914 10.3055 179.676 9.37162C180.438 8.43772 181.48 7.73462 182.8 7.26231C184.131 6.78999 185.655 6.55384 187.373 6.55384C190.099 6.55384 192.107 7.11739 193.395 8.2445C194.683 9.37162 195.327 10.8422 195.327 12.6563C195.327 14.1055 195.016 15.3131 194.393 16.2792C193.781 17.2346 192.917 17.9538 191.801 18.4368C190.684 18.9091 189.364 19.1453 187.84 19.1453ZM187.164 31.5918C185.446 31.5918 183.873 31.4254 182.446 31.0927C181.018 30.7706 179.875 30.191 179.016 29.3537C178.168 28.5164 177.744 27.3356 177.744 25.8114C177.744 24.8989 178.055 24.0563 178.678 23.2834C179.311 22.4998 180.208 21.8504 181.367 21.3351C182.537 20.8199 183.922 20.5032 185.521 20.3851C186.176 20.3314 186.858 20.2939 187.566 20.2724C188.285 20.2402 189.214 20.2241 190.352 20.2241C192.058 20.2241 193.449 20.6266 194.522 21.4317C195.595 22.2261 196.132 23.5035 196.132 25.2639C196.132 26.8097 195.724 28.0441 194.908 28.9673C194.103 29.9012 193.019 30.5721 191.656 30.98C190.303 31.3879 188.806 31.5918 187.164 31.5918ZM187.276 27.808C187.867 27.808 188.377 27.7435 188.806 27.6147C189.246 27.4859 189.59 27.2981 189.836 27.0512C190.083 26.815 190.207 26.5198 190.207 26.1656C190.207 25.8328 190.11 25.5645 189.917 25.3605C189.734 25.1673 189.488 25.0224 189.176 24.9258C188.876 24.8399 188.543 24.797 188.178 24.797C187.974 24.797 187.727 24.797 187.437 24.797C187.158 24.797 186.868 24.797 186.568 24.797C186.278 24.797 186.015 24.797 185.779 24.797C185.414 24.797 185.108 24.8292 184.861 24.8936C184.614 24.9687 184.426 25.0975 184.297 25.28C184.169 25.4732 184.104 25.7523 184.104 26.1173C184.104 26.4501 184.228 26.7399 184.475 26.9868C184.732 27.2444 185.097 27.443 185.57 27.5825C186.042 27.7328 186.611 27.808 187.276 27.808ZM183.138 22.269C181.528 21.9148 180.428 21.4854 179.837 20.9809C179.247 20.4656 178.952 19.8806 178.952 19.2258C178.952 18.6891 179.064 18.2382 179.29 17.8733C179.526 17.4976 179.794 17.2024 180.095 16.9877C180.396 16.7623 180.659 16.612 180.884 16.5368L184.925 18.4368C184.593 18.5549 184.34 18.7105 184.169 18.9038C183.997 19.0863 183.911 19.2687 183.911 19.4512C183.911 19.6874 184.045 19.9021 184.314 20.0953C184.582 20.2885 184.984 20.3851 185.521 20.3851L183.138 22.269ZM187.341 14.4436C187.792 14.4436 188.189 14.3899 188.532 14.2826C188.876 14.1753 189.144 13.9928 189.337 13.7352C189.531 13.4775 189.627 13.1287 189.627 12.6885C189.627 12.3558 189.52 12.0713 189.305 11.8352C189.101 11.599 188.838 11.4165 188.516 11.2877C188.194 11.1589 187.861 11.0945 187.518 11.0945C186.927 11.0945 186.348 11.2072 185.779 11.4326C185.221 11.658 184.942 12.0874 184.942 12.7207C184.942 13.3326 185.178 13.7727 185.65 14.0411C186.122 14.3094 186.686 14.4436 187.341 14.4436ZM194.232 10.9818L190.69 7.98688C190.797 7.56824 191.039 7.11739 191.414 6.63434C191.79 6.14056 192.23 5.68435 192.735 5.26571C193.25 4.84707 193.754 4.54114 194.248 4.34792C194.431 4.61628 194.683 4.99198 195.005 5.47503C195.338 5.94734 195.681 6.43039 196.036 6.92417C196.39 7.41796 196.696 7.83123 196.953 8.164C196.664 8.29281 196.374 8.44846 196.084 8.63094C195.794 8.80269 195.526 9.00665 195.279 9.2428C195.032 9.46823 194.817 9.72585 194.635 10.0157C194.452 10.3055 194.318 10.6275 194.232 10.9818Z" fill="black" fill-opacity="0.54"/>
</svg>
