<svg width="196" height="98" viewBox="0 0 196 98" fill="none" xmlns="http://www.w3.org/2000/svg">
<path d="M14.5008 88.3243C13.9968 88.5088 13.4102 88.7176 12.7412 88.951C12.0722 89.1843 11.3925 89.4043 10.7024 89.6111C10.0159 89.828 9.37747 90.0044 8.78712 90.1404C8.54567 89.5429 8.23784 88.7639 7.86362 87.8035C7.48571 86.8331 7.0783 85.7819 6.64138 84.6502C6.21086 83.5046 5.79644 82.3875 5.39813 81.2988C4.76747 79.5749 4.12611 77.775 3.47405 75.8989C2.81831 74.0128 2.15974 72.0877 1.49834 70.1237C1.70636 70.0361 2.04038 69.9025 2.50042 69.7228C2.97053 69.5393 3.49609 69.3356 4.0771 69.1117C4.65442 68.8776 5.21846 68.6541 5.76922 68.4412C6.31999 68.2282 6.78187 68.0535 7.15486 67.9171C7.57309 68.8728 8.04025 69.9935 8.55634 71.2792C9.07882 72.5511 9.61199 73.8991 10.1559 75.3233C10.7061 76.7336 11.2357 78.1344 11.7447 79.5255C12.0065 80.2413 12.2578 80.9437 12.4985 81.6329C12.7392 82.3221 12.9657 82.988 13.1779 83.6304C13.3965 84.2591 13.5889 84.8631 13.7551 85.4424C13.9277 86.0079 14.0754 86.5368 14.1984 87.0291C14.3314 87.5176 14.4322 87.9494 14.5008 88.3243ZM35.3009 79.7031C35.0779 80.0933 34.5689 80.5767 33.774 81.1533C32.9828 81.7399 32.0781 82.2195 31.0599 82.592C29.7695 83.0641 28.6802 83.1483 27.7918 82.8446C26.9035 82.541 26.1452 81.9211 25.517 80.985C24.8851 80.0389 24.311 78.8602 23.7946 77.4488C23.341 76.2089 22.9141 75.0106 22.5138 73.854C22.1098 72.6873 21.7275 71.5642 21.3668 70.4845C21.0162 69.4012 20.6822 68.3632 20.3647 67.3706C20.0537 66.3642 19.7593 65.4032 19.4814 64.4876C19.2036 63.5719 18.9424 62.7017 18.6977 61.8767C19.5728 61.488 20.3833 61.1572 21.1293 60.8843C21.6031 60.7109 22.0756 60.5495 22.5467 60.4C23.0279 60.2469 23.57 60.0885 24.1731 59.925C24.4741 60.9351 24.7921 62.0075 25.1272 63.1422C25.4624 64.2769 25.8007 65.4047 26.1422 66.5257C26.4837 67.6466 26.81 68.7103 27.121 69.7167C27.4321 70.723 27.7107 71.6098 27.9571 72.3769C28.1998 73.134 28.393 73.7091 28.5369 74.1022C28.7471 74.6769 28.9572 75.1887 29.1672 75.6376C29.3872 76.0829 29.6227 76.414 29.8735 76.6308C30.1343 76.844 30.421 76.8934 30.7335 76.7791C31.046 76.6648 31.281 76.5103 31.4383 76.3155C31.6058 76.1171 31.7181 75.8931 31.7754 75.6435C31.9013 75.7689 32.1329 76.0271 32.4703 76.4181C32.8177 76.8053 33.1918 77.2342 33.5926 77.7049C34.0034 78.1718 34.3706 78.5975 34.6942 78.9821C35.0141 79.3565 35.2163 79.5969 35.3009 79.7031ZM44.3519 77.2834C41.6603 78.2681 39.3511 78.3299 37.4245 77.4688C35.5042 76.594 34.0572 74.8259 33.0836 72.1645C32.4123 70.3298 32.222 68.6849 32.5127 67.2298C32.7996 65.7646 33.4763 64.5055 34.5426 63.4524C35.6053 62.3892 36.9734 61.5516 38.6468 60.9393C40.3001 60.3345 41.8195 60.2073 43.205 60.5576C44.5969 60.8942 45.8167 61.6196 46.8643 62.7337C47.9083 63.8376 48.7438 65.2465 49.3708 66.9603C49.924 68.4724 50.1079 69.8968 49.9225 71.2334C49.7371 72.5699 49.1791 73.7628 48.2484 74.812C47.3242 75.8473 46.0253 76.6711 44.3519 77.2834ZM42.1693 71.9267C42.5423 71.7902 42.8679 71.6025 43.1463 71.3635C43.431 71.1108 43.6482 70.8141 43.798 70.4736C43.9578 70.1294 44.0382 69.7399 44.0392 69.3052C44.0365 68.8604 43.9411 68.3809 43.753 67.8668C43.5022 67.1813 43.1769 66.6202 42.7771 66.1835C42.3736 65.7368 41.9287 65.4423 41.4424 65.3002C40.9524 65.148 40.4452 65.1678 39.921 65.3596C39.2859 65.5919 38.8395 65.9496 38.5819 66.4325C38.3343 66.9117 38.222 67.4328 38.2451 67.9959C38.2682 68.5589 38.3683 69.0824 38.5453 69.5663C38.881 70.4836 39.3697 71.1792 40.0117 71.653C40.6537 72.1268 41.3729 72.2181 42.1693 71.9267ZM56.0261 54.0154C56.9686 53.842 57.8579 53.711 58.6941 53.6222C59.5303 53.5335 60.2281 53.4725 60.7875 53.4393C61.3533 53.3923 61.699 53.3687 61.8246 53.3685C61.9412 54.3431 62.0523 55.3655 62.158 56.4355C62.26 57.4955 62.3511 58.5881 62.4313 59.7132C62.5178 60.8246 62.586 61.9483 62.636 63.0845C62.6822 64.2106 62.7045 65.3341 62.7031 66.4548C62.708 67.5617 62.6798 68.6407 62.6186 69.6918C61.9938 70.0461 61.2177 70.3929 60.2903 70.7323C59.8265 70.9019 59.3674 71.0527 58.9127 71.1848C58.4544 71.3067 58.0616 71.4047 57.7344 71.4787C56.8605 70.6211 55.9871 69.7176 55.114 68.7683C54.2472 67.8052 53.369 66.7949 52.4792 65.7374C51.5893 64.6798 50.6843 63.565 49.764 62.3929C48.8537 61.2172 47.9163 59.9827 46.9518 58.6897C47.0956 58.6142 47.3626 58.4536 47.7528 58.208C48.1431 57.9624 48.5781 57.6832 49.0581 57.3704C49.5444 57.0439 50.0157 56.7229 50.4718 56.4075C50.9279 56.092 51.2956 55.8317 51.5749 55.6267C51.9363 56.146 52.3593 56.7399 52.844 57.4084C53.3249 58.0669 53.8251 58.7469 54.3447 59.4483C54.8706 60.1361 55.3735 60.7922 55.8535 61.4167C56.3334 62.0412 56.7499 62.5861 57.103 63.0513C57.4625 63.5027 57.7162 63.8214 57.8642 64.0073L57.716 64.1644C57.6616 63.5785 57.5995 63.0182 57.5297 62.4837C57.4599 61.9492 57.3795 61.4014 57.2885 60.8403C57.2076 60.2755 57.1051 59.6672 56.9809 59.0154C56.8669 58.3599 56.7302 57.6269 56.5708 56.8165C56.4078 55.996 56.2262 55.0623 56.0261 54.0154ZM82.9131 60.3126C82.7307 60.8137 82.4698 61.3034 82.1305 61.7819C81.8013 62.2567 81.3798 62.7138 80.8662 63.1532C80.3589 63.5788 79.7526 63.9835 79.0472 64.3673C78.3455 64.7612 77.5409 65.1241 76.6337 65.456C75.1014 66.0166 73.6289 66.241 72.2164 66.1291C70.8102 66.0034 69.5597 65.5065 68.4648 64.6383C67.3699 63.7701 66.5127 62.4892 65.8931 60.7956C65.2513 59.0415 65.0335 57.3838 65.2396 55.8225C65.4557 54.2575 66.061 52.8816 67.0556 51.6948C68.0502 50.5079 69.4044 49.601 71.1181 48.974C73.2754 48.1848 75.1976 48.1274 76.8845 48.8018C78.5678 49.4662 79.7893 50.8367 80.5491 52.9134C80.6966 53.3166 80.8124 53.68 80.8965 54.0036C80.9769 54.3171 81.0431 54.6701 81.0953 55.0625C80.9303 55.1114 80.5687 55.2323 80.0106 55.425C79.4625 55.6141 78.8489 55.8271 78.1698 56.0642C77.5008 56.2975 76.8872 56.5105 76.3291 56.7033C75.7709 56.8961 75.4062 57.0238 75.2348 57.0865C74.4586 57.3705 73.7507 57.6695 73.1112 57.9834C72.478 58.2837 71.9879 58.5373 71.6407 58.7443C71.6849 58.8653 71.7361 58.9894 71.7941 59.1168C71.8585 59.2304 71.9312 59.3353 72.0121 59.4314C72.2262 59.6731 72.4893 59.8455 72.8013 59.9485C73.1134 60.0515 73.4592 60.0907 73.8388 60.0661C74.2148 60.0315 74.5993 59.9422 74.9925 59.7984C75.2747 59.6951 75.5446 59.5735 75.802 59.4336C76.0594 59.2937 76.3058 59.1236 76.5411 58.9232C76.7828 58.709 77.0066 58.4615 77.2124 58.1804C77.4282 57.8957 77.6358 57.5569 77.8349 57.164C77.9139 57.1922 78.1548 57.3041 78.5578 57.4996C78.9709 57.6914 79.4501 57.939 79.9954 58.2424C80.5408 58.5458 81.0802 58.88 81.6138 59.2448C82.1437 59.5996 82.5768 59.9555 82.9131 60.3126ZM70.6696 55.2933C70.9334 55.1396 71.2848 54.9597 71.7237 54.7534C72.1626 54.5471 72.6895 54.3314 73.3044 54.1065C73.6573 53.9774 73.9918 53.8607 74.308 53.7565C74.6242 53.6522 74.8496 53.5812 74.9844 53.5433C74.9364 53.4123 74.8559 53.2703 74.7428 53.1173C74.58 52.8911 74.3628 52.7191 74.0911 52.6013C73.8258 52.4698 73.5318 52.4002 73.2089 52.3926C72.8824 52.3749 72.5427 52.4306 72.1899 52.5597C71.6959 52.7404 71.3301 53.0057 71.0923 53.3556C70.8508 53.6954 70.7048 54.046 70.6541 54.4074C70.6136 54.7652 70.6187 55.0605 70.6696 55.2933ZM102.195 55.83L95.6595 57.9296C94.8125 55.7706 93.9591 53.6253 93.0993 51.4938C92.2495 49.3586 91.3966 47.2303 90.5405 45.1089C89.6806 42.9774 88.8126 40.8546 87.9363 38.7406C88.9955 38.2616 90.0759 37.8092 91.1774 37.3833C92.2753 36.9474 93.3333 36.5432 94.3515 36.1707C95.5813 35.7208 96.7137 35.3636 97.7486 35.0993C98.7835 34.835 99.6343 34.6609 100.301 34.5771C100.696 35.4384 101.083 36.3254 101.463 37.2381C101.843 38.1508 102.154 38.9398 102.398 39.6051C101.997 39.7288 101.411 39.9088 100.64 40.1451C99.866 40.3713 99.0278 40.6265 98.1259 40.9107C97.2203 41.1849 96.3693 41.4676 95.573 41.759C95.6484 41.9028 95.7331 42.0719 95.8271 42.2661C95.9173 42.4503 96.0112 42.6445 96.1088 42.8488C96.2128 43.0394 96.3049 43.2286 96.3851 43.4164C96.8387 43.2505 97.4074 43.071 98.0912 42.878C98.7713 42.6749 99.4368 42.4943 100.088 42.3362C100.738 42.1781 101.236 42.0703 101.581 42.0128C101.85 42.7487 102.125 43.5167 102.407 44.3167C102.684 45.1067 102.956 45.9733 103.221 46.9165C102.853 47.0053 102.41 47.1217 101.891 47.2658C101.379 47.3961 100.84 47.5475 100.274 47.7201C99.7188 47.8891 99.184 48.0676 98.6699 48.2557C99.0593 49.039 99.4585 49.8646 99.8674 50.7322C100.276 51.5999 100.68 52.4695 101.079 53.3409C101.474 54.2022 101.846 55.0319 102.195 55.83ZM117.575 50.6662C115.741 51.3375 114.164 51.4969 112.847 51.1445C111.525 50.7821 110.344 49.9911 109.304 48.7716C108.221 47.4989 107.223 45.801 106.309 43.6779C105.391 41.5446 104.42 39.0768 103.394 36.2743C103.299 36.0122 103.203 35.7501 103.107 35.488C103.021 35.2222 102.928 34.9532 102.829 34.681C102.735 34.395 102.642 34.1091 102.549 33.8231C102.452 33.5271 102.354 33.226 102.253 32.9199C102.759 32.6777 103.268 32.4456 103.781 32.2236C104.301 31.9878 104.798 31.7832 105.271 31.6099C105.886 31.3849 106.509 31.1801 107.138 30.9955C107.774 30.797 108.354 30.6308 108.876 30.4968C109.077 31.2347 109.304 32.0262 109.556 32.8713C109.815 33.7026 110.092 34.5554 110.389 35.4297C110.686 36.3041 110.992 37.1697 111.305 38.0266C111.652 38.9742 111.974 39.7934 112.273 40.4843C112.581 41.1716 112.878 41.7318 113.162 42.165C113.492 42.6615 113.821 42.9983 114.149 43.1756C114.483 43.3391 114.842 43.3508 115.225 43.2106C115.749 43.0188 116.08 42.7036 116.216 42.265C116.353 41.8263 116.356 41.305 116.227 40.7009C116.107 40.093 115.919 39.4363 115.66 38.7306C115.524 38.3576 115.331 37.8454 115.081 37.1938C114.828 36.5321 114.547 35.8118 114.239 35.0329C113.928 34.2439 113.618 33.4769 113.311 32.7319C113.001 31.9768 112.724 31.3124 112.479 30.7388C112.232 30.1551 112.046 29.7427 111.924 29.5018C112.418 29.3211 113.005 29.1292 113.685 28.9261C114.365 28.723 115.037 28.5286 115.701 28.343C116.374 28.1537 116.959 28.0026 117.455 27.8897C117.947 27.7668 118.254 27.7002 118.376 27.6898C118.641 28.1644 118.902 28.6747 119.159 29.2208C119.413 29.7568 119.658 30.3185 119.896 30.9059C120.14 31.4795 120.375 32.0738 120.6 32.6888C121.345 34.7251 121.934 36.6811 122.369 38.5566C122.804 40.4321 122.97 42.1661 122.866 43.7584C122.773 45.347 122.309 46.7341 121.474 47.9197C120.649 49.1016 119.349 50.0171 117.575 50.6662ZM129.059 46.5848C128.833 46.1533 128.521 45.5188 128.123 44.6814C127.731 43.8302 127.279 42.8585 126.765 41.7663C126.257 40.6603 125.725 39.5008 125.166 38.2876C124.618 37.0708 124.074 35.864 123.533 34.6673C122.989 33.4606 122.481 32.3376 122.009 31.2986C121.548 30.2558 121.145 29.3574 120.8 28.6033C120.466 27.8455 120.232 27.314 120.097 27.0089C120.563 26.7814 121.137 26.5084 121.821 26.1897C122.504 25.8711 123.237 25.5459 124.018 25.2142C124.796 24.8725 125.553 24.567 126.289 24.2978C128.194 23.6007 129.886 23.1934 131.363 23.0759C132.837 22.9483 134.136 23.1416 135.261 23.6557C136.397 24.1661 137.399 25.0166 138.269 26.2072C139.139 27.3977 139.925 28.9507 140.625 30.866C141.426 33.0536 141.769 34.9284 141.654 36.4905C141.54 38.0525 140.987 39.415 139.995 40.578C138.999 41.7309 137.583 42.7806 135.746 43.7269C133.919 44.6696 131.69 45.6223 129.059 46.5848ZM132.434 38.2349C133.331 37.9067 133.979 37.5211 134.377 37.0783C134.781 36.6217 134.989 36.1114 135 35.5474C135.017 34.9696 134.898 34.3329 134.644 33.6373C134.327 32.7703 133.907 31.9352 133.384 31.1319C132.862 30.3286 132.267 29.7176 131.599 29.2989C130.928 28.8701 130.209 28.7958 129.443 29.0761C129.292 29.1315 129.131 29.1905 128.959 29.2532C128.788 29.3159 128.654 29.3707 128.557 29.4176C128.92 30.2222 129.329 31.1527 129.784 32.2092C130.245 33.252 130.71 34.3048 131.179 35.3677C131.644 36.4206 132.063 37.3763 132.434 38.2349ZM151.919 37.5874C151.741 37.6638 151.357 37.8329 150.767 38.0945C150.187 38.3524 149.559 38.6049 148.884 38.852C148.42 39.0217 147.936 39.1817 147.431 39.3322C146.939 39.4891 146.441 39.6258 145.935 39.7423C145.879 39.4655 145.741 38.9159 145.52 38.0937C145.299 37.2715 145.027 36.3082 144.703 35.2037C144.385 34.0854 144.05 32.9338 143.696 31.7486C143.342 30.5635 143 29.4545 142.667 28.4216C142.335 27.3886 142.055 26.5597 141.826 25.9346C142.081 25.8186 142.447 25.662 142.923 25.4648C143.41 25.2639 143.931 25.0501 144.489 24.8234C145.046 24.5967 145.58 24.3843 146.09 24.1861C146.597 23.9779 147.001 23.8184 147.304 23.7078C147.5 24.0247 147.762 24.569 148.09 25.3405C148.414 26.102 148.751 26.9616 149.102 27.9193C149.434 28.8266 149.763 29.7747 150.091 30.7636C150.415 31.7424 150.711 32.6915 150.978 33.6108C151.252 34.5164 151.473 35.3216 151.639 36.0266C151.806 36.7315 151.899 37.2518 151.919 37.5874ZM144.074 22.9864C143.015 23.3736 141.997 23.4031 141.02 23.0749C140.053 22.7429 139.381 22.0628 139.005 21.0346C138.754 20.3491 138.715 19.6948 138.887 19.0717C139.059 18.4487 139.374 17.9047 139.833 17.4397C140.298 16.961 140.838 16.6092 141.453 16.3842C142.441 16.0228 143.382 16.0328 144.276 16.4145C145.18 16.7924 145.814 17.4803 146.179 18.4783C146.522 19.4159 146.487 20.3202 146.075 21.1913C145.668 22.0487 145.001 22.647 144.074 22.9864ZM161.491 34.3768C161.108 34.517 160.632 34.6853 160.064 34.8817C159.51 35.0846 158.938 35.2879 158.35 35.4917C157.899 35.6339 157.365 35.8004 156.75 35.9915C156.147 36.1889 155.737 36.3163 155.518 36.3736C155.302 35.5036 155.015 34.5 154.656 33.3626C154.307 32.2214 153.903 30.975 153.442 29.6231C152.982 28.2713 152.48 26.8375 151.937 25.3217C151.401 23.7921 150.833 22.2107 150.236 20.5776C150.688 20.3438 151.236 20.0919 151.88 19.8219C152.52 19.5418 153.163 19.2838 153.808 19.0478C154.282 18.8744 154.741 18.7236 155.186 18.5952C155.627 18.4568 156.023 18.3519 156.374 18.2806C156.403 18.3613 156.468 18.5377 156.567 18.8099C156.663 19.072 156.765 19.3662 156.873 19.6925C156.988 20.005 157.086 20.2891 157.168 20.5448C157.217 20.1155 157.432 19.5965 157.816 18.9877C158.199 18.3789 158.712 17.7969 159.354 17.2417C160.003 16.6728 160.736 16.2389 161.553 15.9402C163.095 15.3759 164.394 15.2551 165.449 15.5776C166.515 15.8966 167.436 16.6339 168.213 17.7898C168.997 18.9319 169.741 20.4657 170.445 22.3911C170.666 22.996 170.916 23.7393 171.192 24.621C171.476 25.4889 171.753 26.4046 172.026 27.3679C172.305 28.3175 172.538 29.2209 172.726 30.078C172.481 30.1904 172.094 30.3493 171.563 30.5549C171.036 30.7705 170.475 30.9871 169.88 31.2047C169.235 31.4407 168.622 31.6538 168.04 31.8438C167.461 32.044 167.043 32.1801 166.783 32.2521C166.741 31.856 166.647 31.239 166.5 30.401C166.35 29.553 166.145 28.6166 165.884 27.5918C165.633 26.5633 165.339 25.5853 164.999 24.6579C164.741 23.9522 164.457 23.3644 164.148 22.8945C163.846 22.4109 163.476 22.0888 163.041 21.9282C162.611 21.7539 162.079 21.7829 161.444 22.0153C161.05 22.1591 160.675 22.3822 160.317 22.6847C159.955 22.977 159.627 23.3142 159.332 23.6963C159.044 24.0646 158.799 24.4402 158.596 24.823C159.153 26.3453 159.62 27.7173 159.999 28.939C160.384 30.147 160.696 31.2043 160.936 32.1108C161.177 33.0174 161.361 33.7727 161.491 34.3768ZM183.095 21.5351C180.898 22.3391 179.055 22.6931 177.569 22.5969C176.088 22.487 174.912 22.083 174.039 21.385C173.173 20.6732 172.559 19.8233 172.198 18.8354C171.718 17.5248 171.676 16.3001 172.071 15.1612C172.466 14.0223 173.202 13.0043 174.279 12.1071C175.367 11.2062 176.718 10.4607 178.331 9.87062C180.891 8.93385 182.97 8.77343 184.567 9.38935C186.164 10.0053 187.274 11.1651 187.897 12.8688C188.395 14.2297 188.518 15.4708 188.265 16.5919C188.019 17.6994 187.454 18.6717 186.572 19.5089C185.686 20.336 184.527 21.0114 183.095 21.5351ZM186.736 33.4563C185.124 34.0464 183.589 34.4305 182.134 34.6085C180.683 34.7966 179.41 34.645 178.316 34.1537C177.232 33.6588 176.428 32.6955 175.904 31.2641C175.591 30.4072 175.594 29.5089 175.913 28.5691C176.238 27.6156 176.857 26.6978 177.769 25.8156C178.691 24.9297 179.882 24.1565 181.344 23.4961C181.94 23.2207 182.567 22.9513 183.225 22.6877C183.89 22.4103 184.756 22.0762 185.825 21.6853C187.428 21.0989 188.871 20.9993 190.156 21.3865C191.437 21.7637 192.38 22.7789 192.985 24.4322C193.516 25.8839 193.557 27.1833 193.108 28.3306C192.673 29.4842 191.885 30.4868 190.745 31.3383C189.615 32.186 188.279 32.8921 186.736 33.4563ZM185.542 29.8641C186.097 29.6612 186.553 29.4256 186.912 29.1571C187.281 28.8849 187.54 28.5905 187.687 28.2738C187.837 27.9672 187.852 27.6475 187.73 27.3148C187.616 27.0023 187.433 26.7835 187.181 26.6584C186.944 26.5396 186.662 26.4883 186.336 26.5046C186.025 26.5272 185.697 26.6012 185.355 26.7266C185.163 26.7967 184.931 26.8815 184.659 26.9811C184.397 27.0769 184.125 27.1765 183.842 27.2798C183.57 27.3794 183.323 27.4697 183.101 27.5509C182.759 27.6763 182.482 27.8116 182.273 27.9569C182.067 28.1123 181.935 28.2978 181.876 28.5135C181.822 28.7392 181.857 29.0234 181.982 29.3662C182.097 29.6787 182.312 29.9084 182.629 30.0555C182.959 30.2089 183.37 30.27 183.862 30.2388C184.357 30.2176 184.917 30.0927 185.542 29.8641ZM179.753 26.0841C178.119 26.3046 176.938 26.2794 176.211 26.0084C175.479 25.7274 175.001 25.2794 174.776 24.6645C174.591 24.1604 174.542 23.6983 174.629 23.2781C174.721 22.8441 174.872 22.4747 175.081 22.1698C175.285 21.8549 175.481 21.6234 175.667 21.4754L180.115 21.8711C179.843 22.0963 179.659 22.3292 179.565 22.5696C179.466 22.8 179.448 23.0009 179.511 23.1723C179.592 23.3941 179.792 23.5496 180.11 23.6388C180.428 23.7281 180.84 23.6805 181.344 23.4961L179.753 26.0841ZM181.011 17.2912C181.434 17.1363 181.789 16.9494 182.075 16.7306C182.36 16.5118 182.55 16.2482 182.643 15.9399C182.736 15.6315 182.707 15.2707 182.555 14.8574C182.441 14.5449 182.242 14.3146 181.96 14.1666C181.687 14.0149 181.377 13.9339 181.031 13.9235C180.684 13.9132 180.349 13.9671 180.027 14.0851C179.472 14.2879 178.967 14.5929 178.51 15.0001C178.063 15.4036 177.948 15.9027 178.166 16.4975C178.376 17.0721 178.749 17.4043 179.285 17.494C179.821 17.5838 180.396 17.5162 181.011 17.2912ZM186.294 11.6723L181.938 10.0768C181.895 9.64677 181.967 9.14039 182.154 8.55767C182.337 7.96486 182.593 7.38521 182.923 6.81871C183.263 6.24852 183.632 5.78788 184.03 5.43677C184.293 5.62609 184.659 5.89226 185.127 6.23526C185.602 6.56449 186.091 6.90011 186.593 7.24213C187.095 7.58414 187.525 7.86715 187.881 8.09114C187.653 8.31169 187.434 8.55745 187.225 8.8284C187.012 9.08927 186.83 9.37301 186.679 9.67962C186.525 9.97615 186.412 10.2919 186.34 10.6267C186.268 10.9616 186.253 11.3101 186.294 11.6723Z" fill="black" fill-opacity="0.54"/>
</svg>
