<svg width="19" height="18" viewBox="0 0 19 18" fill="none" xmlns="http://www.w3.org/2000/svg">
<path fill-rule="evenodd" clip-rule="evenodd" d="M4.14898 0.725662C5.27193 0.444938 6.45733 0.576202 7.48697 1.091L7.9113 1.30316C8.42367 1.55933 8.87402 1.90946 9.24214 2.32924C9.29369 2.38802 9.38611 2.38802 9.43766 2.32924C9.80578 1.90946 10.2561 1.55933 10.7685 1.30316L11.1928 1.091C12.2225 0.576202 13.4079 0.444938 14.5308 0.725662C15.61 0.995439 16.5519 1.62553 17.2056 2.49716L17.4438 2.81469C18.2043 3.8287 18.6116 5.05606 18.6116 6.31257V6.66721C18.6116 7.22947 18.5426 7.78985 18.4061 8.33593L18.3231 8.66809C18.0107 9.91771 17.451 11.0948 16.6747 12.1298L16.1909 12.7749C15.8019 13.2935 15.3763 13.7843 14.9171 14.2434L14.4264 14.7341C13.249 15.9114 11.8876 16.8932 10.3936 17.6401C9.73202 17.9709 8.94778 17.9709 8.28619 17.6401C6.79222 16.8932 5.43078 15.9114 4.25338 14.7341L3.76266 14.2434C3.30353 13.7843 2.87791 13.2935 2.48891 12.7749L2.00507 12.1298C1.22883 11.0948 0.669147 9.91771 0.356727 8.66809L0.273684 8.33593C0.137157 7.78985 0.0682068 7.22947 0.0682068 6.66721V6.31257C0.0682068 5.05606 0.475467 3.8287 1.23601 2.81469L1.47417 2.49716C2.12792 1.62553 3.06982 0.995439 4.14898 0.725662ZM6.76924 2.3415C6.07625 1.99502 5.28774 1.90961 4.54223 2.09598C3.8237 2.2756 3.1774 2.69999 2.71934 3.31071L2.48118 3.62824C1.90402 4.39776 1.58816 5.33967 1.58816 6.31257V6.66721C1.58816 7.12137 1.64387 7.57357 1.75387 8.01357L1.83691 8.34572C2.10618 9.42276 2.58745 10.4325 3.25024 11.3162L3.73408 11.9613C4.08272 12.4261 4.46362 12.8653 4.8738 13.2754L5.36452 13.7661C6.43072 14.8323 7.65993 15.7177 9.00392 16.3896C9.21716 16.4963 9.46264 16.4963 9.67588 16.3896C11.0199 15.7177 12.2491 14.8323 13.3153 13.7661L13.806 13.2754C14.2162 12.8653 14.5971 12.4261 14.9457 11.9613L15.4296 11.3162C16.0923 10.4325 16.5736 9.42276 16.8429 8.34572L16.9259 8.01357C17.0359 7.57357 17.0916 7.12137 17.0916 6.66721V6.31257C17.0916 5.33967 16.7758 4.39776 16.1986 3.62824L15.9605 3.31071C15.5024 2.69999 14.8561 2.2756 14.1376 2.09598C13.3921 1.90961 12.6035 1.99502 11.9106 2.3415L11.4862 2.55365C10.9375 2.82802 10.4824 3.27827 10.1988 3.84553C9.69221 4.85866 8.98433 4.85215 8.481 3.84553C8.19735 3.27827 7.74232 2.82802 7.19358 2.55365L6.76924 2.3415Z" fill="black"/>
</svg>
