<svg width="164" height="158" viewBox="0 0 164 158" fill="none" xmlns="http://www.w3.org/2000/svg">
<path d="M45.1086 68.6505L14.8653 91.3693C14.1794 91.8922 13.7269 92.664 13.6056 93.5179C13.4843 94.3717 13.7039 95.239 14.217 95.9322L58.5 154.882C59.0235 155.566 59.7952 156.018 60.6488 156.139C61.5023 156.261 62.3692 156.042 63.0629 155.53L93.3061 132.811C93.991 132.287 94.4427 131.516 94.564 130.662C94.6853 129.809 94.4663 128.942 93.9544 128.248L49.6715 69.2987C49.1479 68.6139 48.3762 68.1621 47.5227 68.0409C46.6692 67.9196 45.8022 68.1385 45.1086 68.6505ZM29.3147 86.0873L37.5558 79.8965C37.6545 79.8224 37.7786 79.7905 37.9009 79.8078C38.0231 79.8252 38.1334 79.8904 38.2076 79.9891C38.2818 80.0879 38.3137 80.212 38.2963 80.3342C38.2789 80.4565 38.2137 80.5668 38.115 80.641L29.8739 86.8317C29.7752 86.9059 29.6511 86.9378 29.5288 86.9204C29.4066 86.903 29.2962 86.8378 29.2221 86.7391C29.1479 86.6404 29.116 86.5162 29.1334 86.394C29.1508 86.2718 29.216 86.1614 29.3147 86.0873ZM27.5764 87.3931C27.65 87.3378 27.7384 87.3055 27.8303 87.3004C27.9223 87.2954 28.0136 87.3177 28.0929 87.3645C28.1722 87.4114 28.2358 87.4807 28.2756 87.5637C28.3155 87.6467 28.3299 87.7396 28.3169 87.8308C28.304 87.9219 28.2643 88.0072 28.2029 88.0758C28.1415 88.1444 28.0611 88.1933 27.9719 88.2162C27.8827 88.2391 27.7887 88.2351 27.7019 88.2046C27.615 88.1741 27.5391 88.1185 27.4838 88.0449C27.411 87.9481 27.3788 87.8268 27.394 87.7067C27.4092 87.5865 27.4706 87.4771 27.5652 87.4015L27.5764 87.3931ZM75.2748 140.557C74.7836 140.926 74.194 141.141 73.5806 141.174C72.9672 141.208 72.3575 141.059 71.8287 140.746C71.3 140.434 70.8759 139.971 70.6101 139.417C70.3444 138.863 70.2489 138.243 70.3358 137.635C70.4226 137.027 70.6879 136.458 71.0981 136.001C71.5084 135.543 72.045 135.218 72.6402 135.066C73.2354 134.913 73.8623 134.941 74.4418 135.145C75.0212 135.349 75.5271 135.721 75.8953 136.213C76.3885 136.871 76.6001 137.699 76.4838 138.513C76.3675 139.327 75.9326 140.062 75.2748 140.557ZM83.5137 123.124L56.4753 143.435L21.5875 96.9927L48.6259 76.6813L83.5137 123.124Z" fill="#E6E6E6"/>
<path d="M48.6372 76.6727L21.5876 96.9924L56.4754 143.435L83.525 123.115L48.6372 76.6727Z" fill="#808080"/>
<path d="M75.3587 140.505C76.6907 139.425 76.8947 137.469 75.8144 136.137C74.7341 134.805 72.7786 134.601 71.4467 135.682C70.1147 136.762 69.9107 138.717 70.991 140.049C72.0713 141.381 74.0268 141.585 75.3587 140.505Z" fill="#808080"/>
<path d="M29.8771 86.835L38.1181 80.6442C38.2169 80.5701 38.2821 80.4597 38.2994 80.3375C38.3168 80.2152 38.2849 80.0911 38.2107 79.9924C38.1366 79.8937 38.0262 79.8284 37.904 79.8111C37.7817 79.7937 37.6576 79.8256 37.5589 79.8998L29.3178 86.0905C29.2191 86.1647 29.1539 86.275 29.1365 86.3972C29.1192 86.5195 29.1511 86.6436 29.2252 86.7423C29.2994 86.8411 29.4097 86.9063 29.532 86.9236C29.6542 86.941 29.7784 86.9091 29.8771 86.835Z" fill="#808080"/>
<path d="M28.1274 88.1492C28.2011 88.0939 28.2566 88.018 28.2871 87.9311C28.3176 87.8442 28.3216 87.7502 28.2987 87.661C28.2758 87.5719 28.2269 87.4915 28.1583 87.4301C28.0897 87.3686 28.0045 87.3289 27.9133 87.316C27.8221 87.303 27.7292 87.3174 27.6462 87.3573C27.5632 87.3972 27.4939 87.4608 27.447 87.54C27.4002 87.6193 27.3779 87.7107 27.383 87.8026C27.3881 87.8946 27.4203 87.9829 27.4756 88.0565C27.5498 88.1553 27.6601 88.2205 27.7823 88.2378C27.9046 88.2552 28.0287 88.2233 28.1274 88.1492Z" fill="#808080"/>
<path d="M96.495 6.19167L64.3126 42.1655L100.286 74.3479L132.469 38.3741L96.495 6.19167Z" fill="#FECA7B"/>
</svg>
