<svg width="219" height="230" viewBox="0 0 219 230" fill="none" xmlns="http://www.w3.org/2000/svg">
<path d="M146.744 78.2759L146.726 78.2247C146.631 77.9513 146.648 77.6513 146.773 77.3902C146.898 77.1291 147.122 76.9281 147.394 76.8313L54.3517 109.575C54.6253 109.478 54.9259 109.495 55.1877 109.62C55.4494 109.745 55.6509 109.968 55.7479 110.242L55.766 110.293C55.8616 110.567 55.8448 110.868 55.7193 111.13C55.5938 111.392 55.3698 111.593 55.0961 111.69L148.139 78.9468C147.865 79.0423 147.564 79.0253 147.303 78.8996C147.042 78.7738 146.841 78.5496 146.744 78.2759Z" fill="white"/>
<path d="M206.158 154.586L177.685 73.6782C177.26 72.47 176.372 71.4801 175.217 70.9264C174.062 70.3728 172.734 70.3006 171.526 70.7258L31.8055 119.896C30.5973 120.321 29.6074 121.209 29.0538 122.364C28.5001 123.519 28.4279 124.847 28.8531 126.055L57.326 206.963C57.7512 208.171 58.6389 209.161 59.7939 209.714C60.9489 210.268 62.2766 210.34 63.4848 209.915L172.008 171.724L169.551 152.922L200.581 148.878L202.178 161.116L203.203 160.755C203.803 160.545 204.355 160.219 204.828 159.795C205.302 159.37 205.686 158.857 205.961 158.284C206.236 157.711 206.394 157.089 206.428 156.455C206.462 155.82 206.37 155.185 206.158 154.586ZM166.959 90.2526L168.296 94.0537C168.402 94.3557 168.384 94.6876 168.246 94.9764C168.108 95.2651 167.86 95.4871 167.558 95.5934L155.853 99.7126C155.551 99.8189 155.219 99.8009 154.93 99.6624C154.642 99.524 154.42 99.2766 154.313 98.9745L152.976 95.1734C152.869 94.8714 152.887 94.5395 153.026 94.2507C153.164 93.9619 153.412 93.74 153.714 93.6337L165.419 89.5145C165.721 89.4082 166.053 89.4262 166.342 89.5646C166.63 89.7031 166.852 89.9505 166.959 90.2526ZM155.567 113.211C155.461 112.909 155.479 112.577 155.617 112.289C155.755 112 156.003 111.778 156.305 111.672L171.353 106.376C171.655 106.27 171.987 106.288 172.275 106.426C172.564 106.565 172.786 106.812 172.892 107.114L174.229 110.912C174.335 111.214 174.317 111.546 174.179 111.835C174.04 112.124 173.793 112.346 173.491 112.452L158.443 117.748C158.141 117.854 157.809 117.836 157.52 117.697C157.232 117.559 157.01 117.312 156.903 117.009L155.567 113.211ZM153.168 110.033L149.37 111.37C149.068 111.476 148.736 111.458 148.447 111.32C148.159 111.181 147.937 110.934 147.83 110.632L146.495 106.836C146.388 106.534 146.406 106.202 146.545 105.913C146.683 105.625 146.931 105.403 147.233 105.297L151.031 103.96C151.333 103.854 151.665 103.872 151.954 104.01C152.243 104.148 152.465 104.396 152.571 104.698L153.907 108.496C154.014 108.798 153.996 109.13 153.857 109.419C153.719 109.708 153.471 109.93 153.169 110.036L153.168 110.033ZM163.832 105L162.496 101.205C162.39 100.903 162.408 100.571 162.547 100.282C162.685 99.9935 162.932 99.7715 163.234 99.6653L168.305 97.8807C168.607 97.7744 168.939 97.7924 169.228 97.9309C169.517 98.0693 169.739 98.3167 169.845 98.6188L171.182 102.417C171.288 102.719 171.27 103.051 171.132 103.34C170.993 103.629 170.746 103.85 170.444 103.957L165.373 105.741C165.071 105.848 164.739 105.83 164.45 105.691C164.161 105.553 163.939 105.305 163.833 105.003L163.832 105ZM158.299 86.6506C158.193 86.3485 158.211 86.0166 158.349 85.7279C158.488 85.4391 158.735 85.2172 159.037 85.1109L162.836 83.7742C163.138 83.6679 163.469 83.686 163.758 83.8244C164.047 83.9628 164.269 84.2103 164.375 84.5123L164.663 85.3295C164.769 85.6315 164.751 85.9635 164.613 86.2522C164.474 86.541 164.227 86.7629 163.925 86.8692L160.126 88.2059C159.824 88.3122 159.492 88.2941 159.204 88.1557C158.915 88.0173 158.693 87.7698 158.587 87.4678L158.299 86.6506ZM149.789 89.6456C149.682 89.3435 149.7 89.0116 149.839 88.7229C149.977 88.4341 150.225 88.2122 150.527 88.1059L154.328 86.7682C154.63 86.6619 154.962 86.68 155.251 86.8184C155.539 86.9568 155.761 87.2043 155.868 87.5063L156.155 88.3235C156.261 88.6255 156.243 88.9574 156.105 89.2462C155.967 89.535 155.719 89.7569 155.417 89.8632L151.616 91.2009C151.314 91.3072 150.982 91.2891 150.693 91.1507C150.405 91.0123 150.183 90.7648 150.076 90.4628L149.789 89.6456ZM154.705 103.944C154.599 103.642 154.617 103.31 154.755 103.021C154.894 102.732 155.141 102.51 155.443 102.404L159.242 101.067C159.544 100.961 159.876 100.979 160.164 101.117C160.453 101.256 160.675 101.503 160.781 101.805L162.118 105.604C162.224 105.906 162.206 106.238 162.068 106.526C161.929 106.815 161.682 107.037 161.38 107.143L157.582 108.48C157.28 108.586 156.948 108.568 156.659 108.43C156.37 108.291 156.148 108.044 156.042 107.742L154.705 103.944ZM151.042 95.8538L152.38 99.6549C152.486 99.9569 152.468 100.289 152.33 100.578C152.191 100.866 151.944 101.088 151.642 101.195L147.844 102.531C147.542 102.638 147.21 102.62 146.921 102.481C146.632 102.343 146.41 102.095 146.304 101.793L144.966 97.9921C144.86 97.69 144.878 97.3581 145.016 97.0693C145.155 96.7806 145.402 96.5586 145.704 96.4524L149.503 95.1157C149.805 95.0094 150.137 95.0274 150.425 95.1659C150.714 95.3043 150.936 95.5517 151.042 95.8538ZM141.273 92.6426C141.166 92.3405 141.184 92.0086 141.323 91.7199C141.461 91.4311 141.709 91.2092 142.011 91.1029L145.826 89.7602C146.128 89.6539 146.46 89.6719 146.749 89.8104C147.037 89.9488 147.259 90.1962 147.366 90.4983L147.653 91.3155C147.76 91.6175 147.742 91.9494 147.603 92.2382C147.465 92.5269 147.217 92.7489 146.915 92.8552L143.106 94.1958C142.803 94.3021 142.472 94.2841 142.183 94.1457C141.894 94.0073 141.672 93.7598 141.566 93.4577L141.273 92.6426ZM152.164 112.934C152.466 112.827 152.798 112.845 153.086 112.984C153.375 113.122 153.597 113.37 153.703 113.672L155.045 117.484C155.151 117.786 155.133 118.118 154.995 118.407C154.856 118.696 154.609 118.918 154.307 119.024L150.514 120.359C150.212 120.465 149.88 120.447 149.592 120.309C149.303 120.17 149.081 119.923 148.975 119.621L147.634 115.811C147.528 115.509 147.546 115.177 147.684 114.888C147.823 114.599 148.07 114.378 148.372 114.271L152.164 112.934ZM149.797 123.53C150.099 123.423 150.431 123.441 150.719 123.58C151.008 123.718 151.23 123.966 151.336 124.268L152.674 128.069C152.78 128.371 152.762 128.703 152.624 128.991C152.486 129.28 152.238 129.502 151.936 129.608L148.141 130.944C147.839 131.05 147.507 131.032 147.218 130.894C146.929 130.756 146.707 130.508 146.601 130.206L145.264 126.408C145.158 126.106 145.176 125.774 145.314 125.485C145.453 125.196 145.7 124.974 146.002 124.868L149.797 123.53ZM144.954 112.924L141.159 114.259C140.857 114.366 140.525 114.348 140.236 114.209C139.947 114.071 139.725 113.823 139.619 113.521L138.283 109.726C138.177 109.424 138.195 109.092 138.333 108.803C138.472 108.515 138.719 108.293 139.021 108.186L142.822 106.849C143.125 106.742 143.456 106.76 143.745 106.899C144.034 107.037 144.256 107.285 144.362 107.587L145.699 111.385C145.805 111.687 145.787 112.019 145.649 112.308C145.51 112.596 145.263 112.818 144.961 112.925L144.954 112.924ZM142.387 98.8999L143.724 102.701C143.831 103.003 143.813 103.335 143.674 103.624C143.536 103.912 143.288 104.134 142.986 104.241L139.188 105.577C138.886 105.684 138.554 105.666 138.265 105.527C137.977 105.389 137.755 105.141 137.648 104.839L136.311 101.038C136.204 100.736 136.222 100.404 136.361 100.115C136.499 99.8267 136.747 99.6047 137.049 99.4984L140.847 98.1618C141.149 98.0555 141.481 98.0735 141.77 98.2119C142.058 98.3504 142.28 98.5978 142.387 98.8999ZM132.771 95.6346C132.664 95.3325 132.682 95.0006 132.821 94.7118C132.959 94.4231 133.207 94.2012 133.509 94.0949L137.307 92.7582C137.609 92.6519 137.941 92.6699 138.23 92.8084C138.518 92.9468 138.74 93.1942 138.847 93.4963L139.134 94.3135C139.241 94.6155 139.223 94.9474 139.084 95.2362C138.946 95.5249 138.698 95.7469 138.396 95.8532L134.598 97.1898C134.296 97.2961 133.964 97.2781 133.675 97.1397C133.386 97.0012 133.165 96.7538 133.058 96.4517L132.771 95.6346ZM143.707 115.91C144.009 115.803 144.341 115.821 144.63 115.96C144.919 116.098 145.141 116.346 145.247 116.648L146.589 120.46C146.695 120.762 146.677 121.094 146.539 121.383C146.4 121.672 146.153 121.894 145.851 122L142.049 123.338C141.747 123.444 141.416 123.426 141.127 123.287C140.838 123.149 140.616 122.902 140.51 122.6L139.169 118.79C139.063 118.488 139.081 118.156 139.219 117.867C139.358 117.578 139.605 117.356 139.907 117.25L143.707 115.91ZM141.338 126.506C141.64 126.4 141.971 126.418 142.26 126.557C142.549 126.695 142.771 126.943 142.877 127.245L144.215 131.046C144.321 131.348 144.303 131.68 144.165 131.968C144.026 132.257 143.779 132.479 143.477 132.585L139.679 133.922C139.376 134.028 139.045 134.01 138.756 133.872C138.467 133.733 138.245 133.486 138.139 133.184L136.802 129.386C136.696 129.084 136.714 128.752 136.852 128.463C136.991 128.174 137.238 127.952 137.54 127.846L141.338 126.506ZM136.755 115.812L132.948 117.152C132.646 117.258 132.314 117.24 132.025 117.102C131.737 116.964 131.515 116.716 131.408 116.414L130.072 112.616C129.965 112.314 129.984 111.982 130.122 111.693C130.26 111.404 130.508 111.182 130.81 111.076L134.617 109.736C134.919 109.63 135.251 109.648 135.539 109.787C135.828 109.925 136.05 110.172 136.156 110.474L137.493 114.273C137.599 114.575 137.581 114.907 137.443 115.195C137.304 115.484 137.057 115.706 136.755 115.812ZM133.731 101.946L135.069 105.747C135.175 106.049 135.157 106.381 135.018 106.67C134.88 106.959 134.633 107.18 134.331 107.287L130.532 108.623C130.23 108.73 129.898 108.712 129.61 108.573C129.321 108.435 129.099 108.187 128.993 107.885L127.655 104.084C127.549 103.782 127.567 103.45 127.705 103.162C127.844 102.873 128.091 102.651 128.393 102.545L132.191 101.208C132.493 101.102 132.825 101.12 133.114 101.258C133.403 101.396 133.625 101.644 133.731 101.946ZM124.26 98.6296C124.154 98.3275 124.172 97.9956 124.31 97.7068C124.449 97.4181 124.696 97.1961 124.998 97.0898L128.797 95.7532C129.099 95.6469 129.43 95.6649 129.719 95.8033C130.008 95.9418 130.23 96.1892 130.336 96.4913L130.624 97.3084C130.73 97.6105 130.712 97.9424 130.574 98.2312C130.435 98.5199 130.188 98.7418 129.886 98.8481L126.087 100.185C125.785 100.291 125.453 100.273 125.165 100.135C124.876 99.9962 124.654 99.7488 124.548 99.4467L124.26 98.6296ZM131.444 120.225L135.242 118.889C135.544 118.782 135.876 118.8 136.165 118.939C136.454 119.077 136.676 119.325 136.782 119.627L138.124 123.439C138.23 123.741 138.212 124.073 138.074 124.362C137.935 124.651 137.688 124.873 137.386 124.979L133.587 126.316C133.285 126.422 132.953 126.404 132.665 126.265C132.376 126.127 132.154 125.88 132.048 125.577L130.707 121.768C130.601 121.466 130.619 121.134 130.757 120.845C130.896 120.556 131.143 120.334 131.445 120.228L131.444 120.225ZM103.676 149.114L107.474 147.777C107.776 147.671 108.108 147.689 108.397 147.827C108.686 147.965 108.907 148.213 109.014 148.515L110.35 152.313C110.457 152.615 110.439 152.947 110.3 153.236C110.162 153.525 109.914 153.747 109.612 153.853L105.814 155.19C105.512 155.296 105.18 155.278 104.891 155.139C104.603 155.001 104.381 154.754 104.274 154.452L102.938 150.653C102.831 150.351 102.849 150.019 102.988 149.731C103.126 149.442 103.374 149.22 103.676 149.114ZM99.7335 138.229C99.4314 138.336 99.0995 138.318 98.8108 138.179C98.522 138.041 98.3001 137.793 98.1938 137.491L96.8531 133.682C96.7468 133.38 96.7649 133.048 96.9033 132.759C97.0417 132.47 97.2892 132.248 97.5912 132.142L101.392 130.804C101.694 130.698 102.026 130.716 102.315 130.854C102.604 130.993 102.826 131.24 102.932 131.542L104.273 135.352C104.379 135.654 104.361 135.986 104.223 136.275C104.084 136.564 103.837 136.785 103.535 136.892L99.7335 138.229ZM105.83 145.85C105.528 145.956 105.196 145.938 104.907 145.8C104.618 145.662 104.396 145.414 104.29 145.112L102.948 141.3C102.842 140.997 102.86 140.666 102.998 140.377C103.137 140.088 103.384 139.866 103.686 139.76L107.485 138.423C107.787 138.317 108.119 138.335 108.407 138.473C108.696 138.612 108.918 138.859 109.024 139.161L110.362 142.962C110.468 143.264 110.45 143.596 110.312 143.885C110.173 144.174 109.926 144.396 109.624 144.502L105.83 145.85ZM111.253 147.74C111.147 147.438 111.165 147.106 111.303 146.817C111.441 146.528 111.689 146.306 111.991 146.2L115.789 144.863C116.091 144.757 116.423 144.775 116.712 144.914C117.001 145.052 117.223 145.3 117.329 145.602L118.666 149.4C118.772 149.702 118.754 150.034 118.615 150.323C118.477 150.611 118.23 150.833 117.928 150.939L114.129 152.276C113.827 152.382 113.495 152.364 113.207 152.226C112.918 152.088 112.696 151.84 112.59 151.538L111.253 147.74ZM114.276 142.865C113.974 142.971 113.642 142.953 113.354 142.815C113.065 142.676 112.843 142.429 112.737 142.127L111.399 138.326C111.293 138.024 111.311 137.692 111.449 137.403C111.588 137.114 111.835 136.892 112.137 136.786L115.938 135.448C116.24 135.342 116.572 135.36 116.861 135.498C117.15 135.637 117.372 135.884 117.478 136.186L118.815 139.987C118.922 140.289 118.904 140.621 118.765 140.91C118.627 141.199 118.379 141.421 118.077 141.527L114.276 142.865ZM119.554 144.806C119.448 144.504 119.466 144.172 119.605 143.883C119.743 143.594 119.99 143.372 120.292 143.266L124.091 141.929C124.393 141.823 124.725 141.841 125.013 141.979C125.302 142.118 125.524 142.365 125.63 142.667L126.967 146.466C127.073 146.768 127.055 147.1 126.917 147.388C126.778 147.677 126.531 147.899 126.229 148.005L122.442 149.338C122.14 149.444 121.808 149.426 121.519 149.288C121.231 149.149 121.009 148.902 120.902 148.6L119.554 144.806ZM122.741 139.886C122.439 139.992 122.107 139.974 121.818 139.836C121.53 139.697 121.308 139.45 121.201 139.148L119.864 135.347C119.758 135.045 119.776 134.713 119.914 134.424C120.052 134.135 120.3 133.913 120.602 133.807L124.4 132.47C124.702 132.364 125.034 132.382 125.323 132.52C125.612 132.659 125.834 132.906 125.94 133.208L127.278 137.009C127.384 137.312 127.366 137.643 127.227 137.932C127.089 138.221 126.842 138.443 126.539 138.549L122.741 139.886ZM127.874 141.878C127.768 141.576 127.786 141.244 127.924 140.955C128.063 140.666 128.31 140.444 128.612 140.338L132.433 138.993C132.735 138.887 133.067 138.905 133.356 139.044C133.645 139.182 133.867 139.429 133.973 139.731L135.31 143.53C135.416 143.832 135.398 144.164 135.259 144.452C135.121 144.741 134.873 144.963 134.571 145.069L130.762 146.41C130.46 146.516 130.128 146.498 129.839 146.36C129.55 146.222 129.328 145.974 129.222 145.672L127.874 141.878ZM131.203 136.908C130.901 137.014 130.569 136.996 130.281 136.858C129.992 136.719 129.77 136.472 129.664 136.17L128.326 132.369C128.22 132.067 128.238 131.735 128.376 131.446C128.514 131.157 128.762 130.935 129.064 130.829L132.865 129.491C133.167 129.385 133.499 129.403 133.788 129.541C134.077 129.68 134.298 129.927 134.405 130.229L135.742 134.03C135.849 134.333 135.831 134.664 135.692 134.953C135.554 135.242 135.306 135.464 135.004 135.57L131.203 136.908ZM128.526 118.708L124.737 120.042C124.435 120.148 124.103 120.13 123.814 119.992C123.525 119.853 123.303 119.606 123.197 119.304L121.86 115.506C121.754 115.203 121.772 114.872 121.91 114.583C122.049 114.294 122.296 114.072 122.598 113.966L126.399 112.628C126.702 112.522 127.033 112.54 127.322 112.678C127.611 112.817 127.833 113.064 127.939 113.366L129.276 117.165C129.382 117.467 129.364 117.798 129.226 118.087C129.087 118.376 128.84 118.598 128.538 118.704L128.526 118.708ZM125.075 104.992L126.413 108.793C126.519 109.095 126.501 109.427 126.363 109.716C126.224 110.005 125.977 110.227 125.675 110.333L121.877 111.67C121.575 111.776 121.243 111.758 120.954 111.619C120.665 111.481 120.443 111.233 120.337 110.931L118.999 107.13C118.893 106.828 118.911 106.496 119.049 106.208C119.188 105.919 119.435 105.697 119.737 105.591L123.536 104.254C123.838 104.148 124.17 104.166 124.458 104.304C124.747 104.443 124.969 104.69 125.075 104.992ZM115.762 101.623C115.656 101.321 115.674 100.989 115.812 100.701C115.951 100.412 116.198 100.19 116.5 100.084L120.287 98.751C120.589 98.6447 120.921 98.6628 121.21 98.8012C121.499 98.9396 121.72 99.1871 121.827 99.4891L122.114 100.306C122.221 100.608 122.203 100.94 122.064 101.229C121.926 101.518 121.678 101.74 121.376 101.846L117.589 103.179C117.287 103.285 116.955 103.267 116.667 103.128C116.378 102.99 116.156 102.743 116.05 102.441L115.762 101.623ZM126.79 121.866C127.092 121.76 127.424 121.778 127.713 121.917C128.001 122.055 128.223 122.302 128.33 122.605L129.67 126.414C129.777 126.716 129.759 127.048 129.62 127.337C129.482 127.626 129.234 127.848 128.932 127.954L125.123 129.295C124.82 129.401 124.489 129.383 124.2 129.244C123.911 129.106 123.689 128.859 123.583 128.556L122.242 124.747C122.136 124.445 122.154 124.113 122.292 123.824C122.431 123.535 122.678 123.313 122.98 123.207L126.79 121.866ZM119.739 116.252L121.076 120.05C121.182 120.352 121.164 120.684 121.026 120.973C120.887 121.262 120.64 121.484 120.338 121.59L116.539 122.927C116.237 123.033 115.905 123.015 115.617 122.876C115.328 122.738 115.106 122.491 115 122.189L113.663 118.39C113.557 118.088 113.575 117.756 113.713 117.468C113.852 117.179 114.099 116.957 114.401 116.851L118.188 115.518C118.49 115.412 118.822 115.43 119.111 115.568C119.399 115.707 119.621 115.954 119.728 116.256L119.739 116.252ZM116.42 108.038L117.757 111.839C117.864 112.141 117.846 112.473 117.707 112.762C117.569 113.051 117.321 113.273 117.019 113.379L113.221 114.716C112.919 114.822 112.587 114.804 112.298 114.665C112.009 114.527 111.788 114.28 111.681 113.978L110.344 110.176C110.237 109.874 110.255 109.542 110.394 109.254C110.532 108.965 110.78 108.743 111.082 108.637L114.88 107.3C115.182 107.194 115.514 107.212 115.803 107.35C116.091 107.489 116.313 107.736 116.42 108.038ZM107.239 104.62C107.133 104.317 107.151 103.986 107.289 103.697C107.428 103.408 107.675 103.186 107.977 103.08L111.776 101.743C112.078 101.637 112.41 101.655 112.698 101.793C112.987 101.932 113.209 102.179 113.315 102.481L113.603 103.298C113.709 103.6 113.691 103.932 113.553 104.221C113.414 104.51 113.167 104.732 112.865 104.838L109.067 106.175C108.764 106.281 108.433 106.263 108.144 106.125C107.855 105.986 107.633 105.739 107.527 105.437L107.239 104.62ZM118.315 124.846C118.617 124.739 118.949 124.757 119.238 124.896C119.527 125.034 119.749 125.282 119.855 125.584L121.197 129.396C121.303 129.698 121.285 130.03 121.147 130.319C121.008 130.608 120.761 130.83 120.459 130.936L116.66 132.273C116.358 132.379 116.026 132.361 115.738 132.222C115.449 132.084 115.227 131.836 115.121 131.534L113.78 127.725C113.674 127.423 113.692 127.091 113.83 126.802C113.969 126.513 114.216 126.291 114.518 126.185L118.315 124.846ZM111.509 119.145L112.846 122.943C112.952 123.245 112.934 123.577 112.796 123.866C112.658 124.155 112.41 124.377 112.108 124.483L108.315 125.818C108.013 125.924 107.682 125.906 107.393 125.767C107.104 125.629 106.882 125.382 106.776 125.079L105.44 121.284C105.334 120.982 105.352 120.65 105.49 120.361C105.629 120.073 105.876 119.851 106.178 119.744L109.976 118.408C110.279 118.301 110.61 118.319 110.899 118.458C111.188 118.596 111.41 118.844 111.516 119.146L111.509 119.145ZM107.764 111.084L109.102 114.885C109.208 115.187 109.19 115.519 109.051 115.808C108.913 116.097 108.666 116.319 108.364 116.425L104.562 117.763C104.26 117.869 103.928 117.851 103.64 117.713C103.351 117.574 103.129 117.327 103.023 117.025L101.685 113.224C101.579 112.921 101.597 112.59 101.735 112.301C101.874 112.012 102.121 111.79 102.423 111.684L106.224 110.346C106.526 110.24 106.858 110.258 107.147 110.396C107.436 110.535 107.658 110.782 107.764 111.084ZM98.7288 107.615C98.6225 107.312 98.6405 106.981 98.779 106.692C98.9174 106.403 99.1648 106.181 99.4669 106.075L103.265 104.738C103.567 104.632 103.899 104.65 104.188 104.788C104.477 104.927 104.699 105.174 104.805 105.476L105.092 106.293C105.199 106.595 105.181 106.927 105.042 107.216C104.904 107.505 104.656 107.727 104.354 107.833L100.556 109.17C100.254 109.276 99.9221 109.258 99.6334 109.12C99.3446 108.981 99.1227 108.734 99.0164 108.432L98.7288 107.615ZM109.851 127.824C110.153 127.718 110.484 127.736 110.773 127.875C111.062 128.013 111.284 128.261 111.39 128.563L112.732 132.375C112.838 132.677 112.82 133.009 112.682 133.298C112.543 133.587 112.296 133.808 111.994 133.915L108.196 135.251C107.893 135.358 107.562 135.34 107.273 135.201C106.984 135.063 106.762 134.815 106.656 134.513L105.315 130.704C105.209 130.402 105.227 130.07 105.365 129.781C105.504 129.492 105.751 129.27 106.053 129.164L109.851 127.824ZM103.304 122.033L104.64 125.831C104.747 126.133 104.729 126.465 104.59 126.754C104.452 127.042 104.204 127.264 103.902 127.371L100.104 128.707C99.8019 128.814 99.47 128.796 99.1813 128.657C98.8925 128.519 98.6706 128.271 98.5643 127.969L97.2286 124.174C97.1223 123.872 97.1404 123.54 97.2788 123.251C97.4172 122.962 97.6647 122.74 97.9667 122.634L101.765 121.297C102.067 121.191 102.399 121.209 102.688 121.348C102.976 121.486 103.198 121.734 103.305 122.036L103.304 122.033ZM99.1083 114.13L100.446 117.931C100.552 118.233 100.534 118.565 100.396 118.854C100.257 119.143 100.01 119.365 99.7079 119.471L95.9068 120.809C95.6047 120.915 95.2728 120.897 94.9841 120.759C94.6953 120.62 94.4734 120.373 94.3671 120.071L93.0294 116.27C92.9231 115.968 92.9411 115.636 93.0796 115.347C93.218 115.058 93.4654 114.836 93.7675 114.73L97.5686 113.392C97.8706 113.286 98.2026 113.304 98.4913 113.442C98.7801 113.581 99.002 113.828 99.1083 114.13ZM90.2183 110.61C90.112 110.307 90.1301 109.976 90.2685 109.687C90.4069 109.398 90.6544 109.176 90.9564 109.07L94.7547 107.733C95.0567 107.627 95.3887 107.645 95.6774 107.783C95.9662 107.922 96.1881 108.169 96.2944 108.471L96.582 109.288C96.6883 109.59 96.6702 109.922 96.5318 110.211C96.3934 110.5 96.1459 110.722 95.8439 110.828L92.0456 112.165C91.7436 112.271 91.4117 112.253 91.1229 112.115C90.8341 111.976 90.6122 111.729 90.5059 111.427L90.2183 110.61ZM95.0922 124.923L96.4288 128.721C96.5351 129.023 96.5171 129.355 96.3787 129.643C96.2402 129.932 95.9928 130.154 95.6907 130.26L91.8925 131.597C91.5904 131.703 91.2585 131.685 90.9698 131.547C90.681 131.409 90.4591 131.161 90.3528 130.859L89.0171 127.064C88.9108 126.762 88.9289 126.43 89.0673 126.141C89.2057 125.852 89.4532 125.63 89.7552 125.524L93.5535 124.187C93.8555 124.081 94.1874 124.099 94.4762 124.237C94.7649 124.376 94.9869 124.623 95.0932 124.925L95.0922 124.923ZM94.4633 134.52L95.8049 138.332C95.9112 138.634 95.8932 138.966 95.7548 139.255C95.6164 139.543 95.3689 139.765 95.0668 139.872L91.2686 141.208C90.9665 141.315 90.6346 141.297 90.3459 141.158C90.0571 141.02 89.8352 140.772 89.7289 140.47L88.3882 136.661C88.2819 136.359 88.3 136.027 88.4384 135.738C88.5768 135.449 88.8243 135.227 89.1263 135.121L92.9246 133.784C93.2266 133.678 93.5585 133.696 93.8473 133.834C94.136 133.973 94.358 134.22 94.4643 134.522L94.4633 134.52ZM90.4498 117.177L91.7875 120.979C91.8938 121.281 91.8757 121.612 91.7373 121.901C91.5989 122.19 91.3514 122.412 91.0494 122.518L87.2511 123.855C86.9491 123.961 86.6171 123.943 86.3284 123.805C86.0396 123.666 85.8177 123.419 85.7114 123.117L84.3737 119.316C84.2674 119.014 84.2855 118.682 84.4239 118.393C84.5623 118.104 84.8098 117.882 85.1118 117.776L88.9101 116.439C89.2121 116.333 89.544 116.351 89.8328 116.489C90.1215 116.628 90.3435 116.875 90.4498 117.177ZM81.7089 113.607C81.6026 113.305 81.6206 112.973 81.759 112.685C81.8975 112.396 82.1449 112.174 82.447 112.068L86.2452 110.731C86.5473 110.625 86.8792 110.643 87.1679 110.781C87.4567 110.92 87.6786 111.167 87.7849 111.469L88.0725 112.286C88.1788 112.588 88.1608 112.92 88.0223 113.209C87.8839 113.498 87.6365 113.72 87.3344 113.826L83.5362 115.163C83.2341 115.269 82.9022 115.251 82.6134 115.112C82.3247 114.974 82.1028 114.727 81.9965 114.425L81.7089 113.607ZM86.8817 127.815L88.2183 131.613C88.3246 131.915 88.3066 132.247 88.1682 132.536C88.0297 132.825 87.7823 133.047 87.4802 133.153L83.682 134.49C83.3799 134.596 83.048 134.578 82.7593 134.44C82.4705 134.301 82.2486 134.054 82.1423 133.752L80.8056 129.953C80.6993 129.651 80.7174 129.319 80.8558 129.031C80.9942 128.742 81.2417 128.52 81.5437 128.414L85.342 127.077C85.644 126.971 85.9759 126.989 86.2647 127.127C86.5534 127.266 86.7754 127.513 86.8817 127.815ZM86.0022 137.5L87.3429 141.31C87.4492 141.612 87.4311 141.944 87.2927 142.233C87.1543 142.521 86.9068 142.743 86.6048 142.85L82.8065 144.186C82.5045 144.293 82.1726 144.275 81.8838 144.136C81.5951 143.998 81.3731 143.75 81.2668 143.448L79.9262 139.639C79.8199 139.337 79.8379 139.005 79.9763 138.716C80.1147 138.427 80.3622 138.205 80.6643 138.099L84.4625 136.762C84.7646 136.656 85.0965 136.674 85.3852 136.812C85.674 136.951 85.8959 137.198 86.0022 137.5ZM81.7941 120.223L83.1318 124.025C83.2381 124.327 83.22 124.659 83.0816 124.947C82.9432 125.236 82.6957 125.458 82.3937 125.564L78.5954 126.901C78.2934 127.007 77.9615 126.989 77.6727 126.851C77.384 126.712 77.162 126.465 77.0557 126.163L75.7181 122.362C75.6118 122.06 75.6298 121.728 75.7682 121.439C75.9066 121.15 76.1541 120.928 76.4562 120.822L80.2544 119.485C80.5565 119.379 80.8884 119.397 81.1771 119.536C81.4659 119.674 81.6878 119.921 81.7941 120.223ZM73.1974 116.599C73.0911 116.297 73.1092 115.966 73.2476 115.677C73.386 115.388 73.6335 115.166 73.9355 115.06L77.7338 113.723C78.0358 113.617 78.3677 113.635 78.6565 113.773C78.9452 113.912 79.1672 114.159 79.2735 114.461L79.561 115.278C79.6673 115.58 79.6493 115.912 79.5109 116.201C79.3725 116.49 79.125 116.712 78.8229 116.818L75.0247 118.155C74.7226 118.261 74.3907 118.243 74.102 118.105C73.8132 117.966 73.5913 117.719 73.485 117.417L73.1974 116.599ZM78.6692 130.702L80.0058 134.5C80.1121 134.802 80.0941 135.134 79.9557 135.423C79.8172 135.712 79.5698 135.934 79.2677 136.04L75.4695 137.377C75.1674 137.483 74.8355 137.465 74.5468 137.327C74.258 137.188 74.0361 136.941 73.9298 136.639L72.5941 132.843C72.4878 132.541 72.5059 132.209 72.6443 131.92C72.7827 131.632 73.0302 131.41 73.3322 131.304L77.1305 129.967C77.4325 129.861 77.7644 129.879 78.0532 130.017C78.3419 130.155 78.5639 130.403 78.6702 130.705L78.6692 130.702ZM77.5363 140.476L78.878 144.289C78.9843 144.591 78.9662 144.923 78.8278 145.212C78.6894 145.5 78.4419 145.722 78.1399 145.829L74.3416 147.165C74.0396 147.272 73.7077 147.254 73.4189 147.115C73.1302 146.977 72.9082 146.729 72.8019 146.427L71.4612 142.618C71.3549 142.315 71.373 141.984 71.5114 141.695C71.6498 141.406 71.8973 141.184 72.1993 141.078L75.9976 139.741C76.2996 139.635 76.6316 139.653 76.9203 139.791C77.2091 139.93 77.431 140.177 77.5373 140.479L77.5363 140.476ZM74.48 127.073C74.5863 127.375 74.5682 127.706 74.4298 127.995C74.2914 128.284 74.0439 128.506 73.7419 128.612L69.9408 129.95C69.6387 130.056 69.3068 130.038 69.018 129.9C68.7293 129.761 68.5074 129.514 68.4011 129.212L67.0624 125.408C66.9561 125.106 66.9741 124.774 67.1126 124.485C67.251 124.196 67.4984 123.974 67.8005 123.868L71.6016 122.53C71.9036 122.424 72.2356 122.442 72.5243 122.581C72.813 122.719 73.035 122.967 73.1413 123.269L74.48 127.073ZM64.6908 119.596C64.5845 119.294 64.6026 118.962 64.741 118.674C64.8794 118.385 65.1269 118.163 65.4289 118.057L69.2357 116.717C69.5378 116.611 69.8697 116.629 70.1584 116.767C70.4472 116.906 70.6691 117.153 70.7754 117.455L71.063 118.272C71.1693 118.574 71.1512 118.906 71.0128 119.195C70.8744 119.484 70.6269 119.706 70.3249 119.812L66.5152 121.153C66.2132 121.259 65.8813 121.241 65.5925 121.102C65.3038 120.964 65.0818 120.717 64.9755 120.414L64.6908 119.596ZM70.4615 133.594L71.7982 137.392C71.9045 137.694 71.8864 138.026 71.748 138.315C71.6096 138.603 71.3621 138.825 71.0601 138.932L67.259 140.269C66.9569 140.376 66.625 140.358 66.3363 140.219C66.0475 140.081 65.8256 139.833 65.7193 139.531L64.3826 135.733C64.2763 135.431 64.2944 135.099 64.4328 134.81C64.5712 134.522 64.8187 134.3 65.1207 134.193L68.919 132.857C69.221 132.75 69.5529 132.768 69.8417 132.907C70.1304 133.045 70.3524 133.293 70.4587 133.595L70.4615 133.594ZM69.0781 143.456L70.4188 147.266C70.5251 147.568 70.507 147.9 70.3686 148.189C70.2302 148.477 69.9827 148.699 69.6807 148.806L65.8796 150.143C65.5775 150.25 65.2456 150.231 64.9569 150.093C64.6681 149.955 64.4462 149.707 64.3399 149.405L62.9992 145.595C62.8929 145.293 62.9109 144.962 63.0494 144.673C63.1878 144.384 63.4352 144.162 63.7373 144.056L67.5355 142.719C67.8376 142.613 68.1695 142.631 68.4583 142.769C68.747 142.908 68.9689 143.155 69.0752 143.457L69.0781 143.456ZM65.8243 130.119C65.9306 130.421 65.9125 130.753 65.7741 131.041C65.6357 131.33 65.3882 131.552 65.0862 131.658L61.2851 132.996C60.983 133.102 60.6511 133.084 60.3624 132.946C60.0736 132.807 59.8517 132.56 59.7454 132.258L58.4067 128.454C58.3004 128.152 58.3185 127.82 58.4569 127.531C58.5953 127.242 58.8428 127.021 59.1448 126.914L62.9431 125.578C63.2451 125.471 63.577 125.489 63.8658 125.628C64.1545 125.766 64.3765 126.014 64.4828 126.316L65.8243 130.119ZM56.1803 122.591C56.074 122.289 56.0921 121.957 56.2305 121.669C56.3689 121.38 56.6164 121.158 56.9184 121.052L60.7195 119.714C61.0216 119.608 61.3535 119.626 61.6423 119.764C61.931 119.903 62.1529 120.15 62.2592 120.452L62.5468 121.269C62.6531 121.571 62.6351 121.903 62.4967 122.192C62.3582 122.481 62.1108 122.703 61.8087 122.809L58.0048 124.148C57.7027 124.254 57.3708 124.236 57.0821 124.097C56.7933 123.959 56.5714 123.712 56.4651 123.409L56.1803 122.591ZM62.25 136.483L63.5867 140.282C63.693 140.584 63.6749 140.916 63.5365 141.204C63.3981 141.493 63.1506 141.715 62.8486 141.821L59.0475 143.159C58.7454 143.265 58.4135 143.247 58.1248 143.109C57.836 142.971 57.6141 142.723 57.5078 142.421L56.1711 138.623C56.0648 138.321 56.0829 137.989 56.2213 137.7C56.3597 137.411 56.6072 137.189 56.9092 137.083L60.7075 135.746C61.0095 135.64 61.3414 135.658 61.6302 135.797C61.9189 135.935 62.1409 136.182 62.2472 136.484L62.25 136.483ZM47.6727 125.585C47.5664 125.283 47.5845 124.951 47.7229 124.663C47.8613 124.374 48.1088 124.152 48.4108 124.046L52.2091 122.709C52.5111 122.603 52.8431 122.621 53.1318 122.759C53.4206 122.897 53.6425 123.145 53.7488 123.447L54.0364 124.264C54.1427 124.566 54.1246 124.898 53.9862 125.187C53.8478 125.476 53.6003 125.698 53.2983 125.804L49.4972 127.142C49.1951 127.248 48.8632 127.23 48.5744 127.091C48.2857 126.953 48.0638 126.706 47.9575 126.403L47.6727 125.585ZM49.7549 131.502C49.6486 131.2 49.6666 130.868 49.8051 130.579C49.9435 130.29 50.1909 130.068 50.493 129.962L54.2912 128.626C54.5933 128.519 54.9252 128.537 55.214 128.676C55.5027 128.814 55.7246 129.062 55.8309 129.364L57.1686 133.165C57.2749 133.467 57.2569 133.799 57.1185 134.087C56.98 134.376 56.7326 134.598 56.4305 134.704L52.6294 136.042C52.3274 136.148 51.9955 136.13 51.7067 135.992C51.418 135.853 51.196 135.606 51.0897 135.304L49.7549 131.502ZM39.1708 128.577C39.0645 128.275 39.0826 127.943 39.221 127.655C39.3594 127.366 39.6069 127.144 39.9089 127.038L43.6958 125.705C43.9978 125.599 44.3297 125.617 44.6185 125.755C44.9072 125.893 45.1292 126.141 45.2355 126.443L45.523 127.26C45.6293 127.562 45.6113 127.894 45.4729 128.183C45.3345 128.472 45.087 128.694 44.7849 128.8L40.9981 130.133C40.696 130.239 40.3641 130.221 40.0754 130.082C39.7866 129.944 39.5647 129.696 39.4584 129.394L39.1708 128.577ZM41.0925 134.547C40.9862 134.245 41.0043 133.913 41.1427 133.624C41.2811 133.336 41.5286 133.114 41.8306 133.007L45.6317 131.67C45.9338 131.563 46.2657 131.581 46.5544 131.72C46.8432 131.858 47.0651 132.106 47.1714 132.408L48.5091 136.209C48.6154 136.511 48.5974 136.843 48.4589 137.132C48.3205 137.42 48.0731 137.642 47.771 137.749L43.9699 139.086C43.6678 139.193 43.3359 139.175 43.0472 139.036C42.7584 138.898 42.5365 138.65 42.4302 138.348L41.0925 134.547ZM44.0735 143.018C43.9401 142.636 43.9633 142.218 44.1379 141.853C44.3126 141.489 44.6245 141.209 45.0053 141.074L52.5534 138.418C52.9336 138.288 53.3496 138.314 53.7109 138.489C54.0723 138.665 54.3497 138.976 54.4831 139.354L55.7316 142.902C55.8644 143.28 55.8419 143.695 55.6689 144.055C55.4958 144.416 55.1865 144.694 54.8089 144.827L47.2608 147.483C46.882 147.616 46.4658 147.595 46.1027 147.423C45.7396 147.251 45.4591 146.943 45.322 146.565L44.0735 143.018ZM47.0705 151.534C46.9371 151.153 46.9603 150.734 47.1349 150.369C47.3096 150.005 47.6215 149.725 48.0023 149.59L59.0753 145.693C59.4555 145.564 59.8712 145.591 60.2323 145.766C60.5934 145.941 60.871 146.252 61.005 146.63L62.2535 150.178C62.3814 150.556 62.3565 150.968 62.1841 151.328C62.0117 151.688 61.7055 151.966 61.3308 152.102L50.2578 155.999C49.8789 156.132 49.463 156.11 49.1002 155.938C48.7374 155.766 48.4567 155.459 48.319 155.082L47.0705 151.534ZM61.2689 169.612C61.3752 169.914 61.3571 170.246 61.2187 170.534C61.0803 170.823 60.8328 171.045 60.5308 171.151L55.8356 172.804C55.5336 172.91 55.2017 172.892 54.9129 172.753C54.6242 172.615 54.4022 172.368 54.2959 172.065L52.9603 168.27C52.854 167.968 52.872 167.636 53.0104 167.347C53.1488 167.059 53.3963 166.837 53.6984 166.73L58.3935 165.078C58.6955 164.972 59.0275 164.99 59.3162 165.128C59.605 165.267 59.8269 165.514 59.9332 165.816L61.2689 169.612ZM68.7567 166.948C68.863 167.25 68.8449 167.582 68.7065 167.87C68.5681 168.159 68.3206 168.381 68.0186 168.487L64.2175 169.825C63.9154 169.931 63.5835 169.913 63.2948 169.775C63.006 169.636 62.7841 169.389 62.6778 169.087L61.3421 165.292C61.2358 164.989 61.2539 164.658 61.3923 164.369C61.5307 164.08 61.7782 163.858 62.0802 163.752L65.8813 162.414C66.1834 162.308 66.5153 162.326 66.804 162.464C67.0928 162.603 67.3147 162.85 67.421 163.152L68.7567 166.948ZM53.2588 164.527C52.8799 164.659 52.464 164.637 52.1012 164.466C51.7384 164.294 51.4577 163.986 51.32 163.609L50.0675 160.05C49.9387 159.67 49.9648 159.254 50.1401 158.893C50.3155 158.532 50.6259 158.254 51.0043 158.12L65.2976 153.09C65.6753 152.962 66.0885 152.986 66.4483 153.159C66.8082 153.331 67.086 153.638 67.2222 154.013L68.4677 157.552C68.5965 157.93 68.572 158.343 68.3994 158.703C68.2269 159.063 67.9202 159.341 67.5451 159.477L53.2588 164.527ZM77.0792 164.019C77.1855 164.321 77.1675 164.653 77.029 164.942C76.8906 165.23 76.6432 165.452 76.3411 165.559L72.5372 166.897C72.2351 167.003 71.9032 166.985 71.6145 166.847C71.3257 166.709 71.1038 166.461 70.9975 166.159L69.6618 162.364C69.5555 162.062 69.5735 161.73 69.712 161.441C69.8504 161.152 70.0978 160.93 70.3999 160.824L74.1981 159.487C74.5002 159.381 74.8321 159.399 75.1209 159.537C75.4096 159.676 75.6316 159.923 75.7379 160.225L77.0792 164.019ZM75.7746 156.411L71.9707 157.75C71.6687 157.856 71.3367 157.838 71.048 157.7C70.7592 157.561 70.5373 157.314 70.431 157.012L69.0943 153.213C68.988 152.911 69.0061 152.579 69.1445 152.291C69.2829 152.002 69.5304 151.78 69.8324 151.674L73.6307 150.337C73.9327 150.231 74.2646 150.249 74.5534 150.387C74.8421 150.526 75.0641 150.773 75.1704 151.075L76.5081 154.876C76.6144 155.178 76.5963 155.51 76.4579 155.799C76.3195 156.088 76.072 156.31 75.77 156.416L75.7746 156.411ZM85.3961 161.092C85.5024 161.394 85.4843 161.726 85.3459 162.015C85.2075 162.303 84.96 162.525 84.658 162.632L80.854 163.97C80.552 164.077 80.2201 164.059 79.9313 163.92C79.6426 163.782 79.4206 163.534 79.3143 163.232L77.9786 159.437C77.8723 159.135 77.8904 158.803 78.0288 158.514C78.1672 158.225 78.4147 158.003 78.7167 157.897L82.515 156.56C82.817 156.454 83.149 156.472 83.4377 156.611C83.7265 156.749 83.9484 156.997 84.0547 157.299L85.3961 161.092ZM84.2367 153.433L80.4328 154.772C80.1307 154.878 79.7988 154.86 79.51 154.722C79.2213 154.583 78.9994 154.336 78.8931 154.034L77.5564 150.235C77.4501 149.933 77.4681 149.601 77.6066 149.313C77.745 149.024 77.9924 148.802 78.2945 148.696L82.0927 147.359C82.3948 147.253 82.7267 147.271 83.0155 147.409C83.3042 147.548 83.5261 147.795 83.6324 148.097L84.9701 151.898C85.0764 152.2 85.0584 152.532 84.9199 152.821C84.7815 153.11 84.5341 153.332 84.232 153.438L84.2367 153.433ZM93.7129 158.165C93.8192 158.467 93.8012 158.799 93.6627 159.088C93.5243 159.377 93.2769 159.599 92.9748 159.705L89.1709 161.043C88.8688 161.15 88.5369 161.132 88.2481 160.993C87.9594 160.855 87.7375 160.607 87.6312 160.305L86.2955 156.51C86.1892 156.208 86.2072 155.876 86.3457 155.587C86.4841 155.299 86.7315 155.077 87.0336 154.97L90.8318 153.634C91.1339 153.527 91.4658 153.545 91.7546 153.684C92.0433 153.822 92.2652 154.07 92.3715 154.372L93.7129 158.165ZM88.9091 151.789C88.607 151.895 88.2751 151.877 87.9863 151.739C87.6976 151.6 87.4756 151.353 87.3694 151.051L86.0327 147.252C85.9264 146.95 85.9444 146.618 86.0828 146.33C86.2213 146.041 86.4687 145.819 86.7708 145.713L90.569 144.376C90.8711 144.27 91.203 144.288 91.4917 144.426C91.7805 144.565 92.0024 144.812 92.1087 145.114L93.4464 148.915C93.5527 149.217 93.5347 149.549 93.3962 149.838C93.2578 150.127 93.0104 150.349 92.7083 150.455L88.9091 151.789ZM102.038 155.235C102.145 155.537 102.127 155.869 101.988 156.158C101.85 156.447 101.602 156.669 101.3 156.775L97.4877 158.117C97.1857 158.223 96.8538 158.205 96.565 158.066C96.2762 157.928 96.0543 157.681 95.948 157.379L94.6123 153.583C94.506 153.281 94.5241 152.949 94.6625 152.66C94.8009 152.372 95.0484 152.15 95.3504 152.043L99.1515 150.706C99.4536 150.599 99.7855 150.618 100.074 150.756C100.363 150.894 100.585 151.142 100.691 151.444L102.038 155.235ZM97.3711 148.811C97.0691 148.917 96.7371 148.899 96.4484 148.761C96.1596 148.622 95.9377 148.375 95.8314 148.073L94.4947 144.274C94.3884 143.972 94.4065 143.641 94.5449 143.352C94.6833 143.063 94.9308 142.841 95.2328 142.735L99.0311 141.398C99.3331 141.292 99.6651 141.31 99.9538 141.448C100.243 141.587 100.464 141.834 100.571 142.136L101.908 145.937C102.015 146.239 101.997 146.571 101.858 146.86C101.72 147.149 101.472 147.371 101.17 147.477L97.3711 148.811ZM131.624 180.403C131.73 180.705 131.712 181.037 131.574 181.326C131.436 181.614 131.188 181.836 130.886 181.943L116.485 187.011C116.183 187.117 115.851 187.099 115.562 186.961C115.273 186.822 115.051 186.575 114.945 186.273L114.515 185.051C114.409 184.749 114.427 184.417 114.565 184.129C114.704 183.84 114.951 183.618 115.253 183.512L129.643 178.447C129.945 178.341 130.277 178.359 130.566 178.498C130.855 178.636 131.077 178.883 131.183 179.186L131.624 180.403ZM150.268 173.842C150.374 174.144 150.356 174.476 150.218 174.765C150.079 175.053 149.832 175.275 149.53 175.382L135.126 180.451C134.824 180.557 134.492 180.539 134.203 180.401C133.914 180.262 133.692 180.015 133.586 179.713L133.156 178.491C133.05 178.189 133.068 177.857 133.206 177.568C133.345 177.28 133.592 177.058 133.894 176.951L148.287 171.886C148.589 171.78 148.921 171.798 149.21 171.936C149.499 172.075 149.72 172.322 149.827 172.624L150.268 173.842ZM148.694 169.369C148.8 169.671 148.782 170.003 148.644 170.292C148.505 170.58 148.258 170.802 147.956 170.909L114.928 182.532C114.625 182.638 114.294 182.62 114.005 182.482C113.716 182.343 113.494 182.096 113.388 181.794L106.466 162.125C106.36 161.823 106.378 161.491 106.516 161.202C106.655 160.913 106.902 160.691 107.204 160.585L140.232 148.962C140.534 148.856 140.866 148.874 141.155 149.012C141.444 149.15 141.666 149.398 141.772 149.7L148.694 169.369ZM143.625 140.6C143.732 140.902 143.714 141.234 143.575 141.523C143.437 141.811 143.189 142.033 142.887 142.14L139.078 143.48C138.776 143.587 138.444 143.569 138.155 143.43C137.866 143.292 137.644 143.044 137.538 142.742L136.202 138.947C136.096 138.645 136.114 138.313 136.252 138.024C136.391 137.735 136.638 137.513 136.94 137.407L140.739 136.071C141.041 135.964 141.373 135.982 141.661 136.121C141.95 136.259 142.172 136.507 142.278 136.809L143.625 140.6ZM151.942 137.673C152.049 137.975 152.03 138.307 151.892 138.596C151.754 138.885 151.506 139.107 151.204 139.213L147.383 140.558C147.081 140.664 146.749 140.646 146.46 140.507C146.172 140.369 145.95 140.121 145.843 139.819L144.508 136.024C144.401 135.722 144.419 135.39 144.558 135.101C144.696 134.813 144.944 134.591 145.246 134.484L149.044 133.148C149.346 133.041 149.678 133.059 149.967 133.198C150.256 133.336 150.477 133.584 150.584 133.886L151.942 137.673ZM160.262 134.745C160.368 135.047 160.35 135.379 160.212 135.668C160.073 135.957 159.826 136.179 159.524 136.285L155.711 137.627C155.409 137.733 155.077 137.715 154.789 137.577C154.5 137.438 154.278 137.191 154.172 136.889L152.836 133.093C152.73 132.791 152.748 132.459 152.886 132.17C153.025 131.882 153.272 131.66 153.574 131.553L157.375 130.216C157.677 130.11 158.009 130.128 158.298 130.266C158.587 130.404 158.809 130.652 158.915 130.954L160.262 134.745ZM172.442 130.459C172.549 130.761 172.531 131.093 172.392 131.381C172.254 131.67 172.006 131.892 171.704 131.998L163.698 134.816C163.396 134.922 163.064 134.904 162.775 134.766C162.486 134.627 162.264 134.38 162.158 134.078L160.823 130.283C160.716 129.981 160.734 129.649 160.873 129.36C161.011 129.071 161.259 128.849 161.561 128.743L169.556 125.929C169.858 125.823 170.19 125.841 170.478 125.979C170.767 126.118 170.989 126.365 171.095 126.667L172.442 130.459ZM169.516 122.142C169.622 122.444 169.604 122.776 169.465 123.065C169.327 123.353 169.08 123.575 168.778 123.682L156.774 127.906C156.471 128.012 156.14 127.994 155.851 127.856C155.562 127.717 155.34 127.47 155.234 127.168L153.897 123.37C153.791 123.068 153.809 122.736 153.947 122.447C154.086 122.158 154.333 121.936 154.635 121.83L166.628 117.61C166.93 117.503 167.262 117.521 167.551 117.66C167.839 117.798 168.061 118.046 168.168 118.348L169.516 122.142ZM180.305 127.724C180.412 128.026 180.394 128.358 180.255 128.646C180.117 128.935 179.869 129.157 179.567 129.263L175.769 130.6C175.467 130.706 175.135 130.688 174.846 130.55C174.557 130.411 174.336 130.164 174.229 129.862L172.893 126.064C172.786 125.762 172.804 125.43 172.943 125.141C173.081 124.852 173.329 124.63 173.631 124.524L177.429 123.187C177.731 123.081 178.063 123.099 178.352 123.237C178.64 123.376 178.862 123.623 178.969 123.925L180.305 127.724ZM177.369 119.381C177.476 119.683 177.458 120.015 177.319 120.304C177.181 120.593 176.933 120.815 176.631 120.921L172.833 122.258C172.531 122.364 172.199 122.346 171.91 122.207C171.622 122.069 171.4 121.822 171.293 121.519L169.956 117.718C169.849 117.416 169.867 117.084 170.006 116.796C170.144 116.507 170.392 116.285 170.694 116.179L174.492 114.842C174.794 114.736 175.126 114.754 175.415 114.892C175.703 115.031 175.925 115.278 176.032 115.58L177.369 119.381ZM188.169 124.956C188.276 125.258 188.258 125.59 188.119 125.879C187.981 126.168 187.733 126.39 187.431 126.496L183.636 127.832C183.334 127.938 183.002 127.92 182.713 127.781C182.424 127.643 182.202 127.395 182.096 127.093L180.76 123.295C180.653 122.993 180.671 122.661 180.81 122.372C180.948 122.084 181.196 121.862 181.498 121.755L185.296 120.419C185.598 120.312 185.93 120.331 186.219 120.469C186.507 120.607 186.729 120.855 186.836 121.157L188.169 124.956ZM185.234 116.614C185.34 116.916 185.322 117.248 185.183 117.536C185.045 117.825 184.797 118.047 184.495 118.153L180.7 119.489C180.398 119.595 180.066 119.577 179.777 119.439C179.489 119.3 179.267 119.053 179.16 118.751L177.823 114.95C177.716 114.648 177.734 114.316 177.873 114.027C178.011 113.738 178.259 113.516 178.561 113.41L182.359 112.073C182.661 111.967 182.993 111.985 183.282 112.124C183.57 112.262 183.792 112.51 183.899 112.812L185.234 116.614ZM182.175 107.924C182.282 108.226 182.264 108.558 182.125 108.847C181.987 109.135 181.739 109.357 181.437 109.464L177.642 110.799C177.34 110.906 177.008 110.887 176.719 110.749C176.43 110.611 176.209 110.363 176.102 110.061L174.766 106.263C174.659 105.961 174.677 105.629 174.816 105.34C174.954 105.051 175.202 104.829 175.504 104.723L179.302 103.386C179.604 103.28 179.936 103.298 180.225 103.437C180.513 103.575 180.735 103.823 180.842 104.125L182.175 107.924ZM179.24 99.5814C179.346 99.8834 179.328 100.215 179.189 100.504C179.051 100.793 178.803 101.015 178.501 101.121L174.706 102.457C174.404 102.563 174.072 102.545 173.783 102.407C173.495 102.268 173.273 102.021 173.166 101.719L171.83 97.9204C171.723 97.6183 171.741 97.2864 171.88 96.9977C172.018 96.7089 172.266 96.487 172.568 96.3807L176.366 95.044C176.668 94.9377 177 94.9558 177.289 95.0942C177.577 95.2326 177.799 95.4801 177.906 95.7821L179.24 99.5814ZM176.304 91.2389C176.41 91.5409 176.392 91.8729 176.254 92.1616C176.115 92.4504 175.868 92.6723 175.566 92.7786L171.77 94.1143C171.468 94.2206 171.136 94.2025 170.847 94.0641C170.559 93.9257 170.337 93.6782 170.23 93.3762L168.892 89.5722C168.785 89.2702 168.804 88.9383 168.942 88.6495C169.08 88.3608 169.328 88.1388 169.63 88.0325L173.428 86.6958C173.73 86.5895 174.062 86.6076 174.351 86.746C174.64 86.8844 174.862 87.1319 174.968 87.4339L176.304 91.2389ZM173.171 82.3384C173.278 82.6404 173.26 82.9723 173.121 83.2611C172.983 83.5498 172.735 83.7718 172.433 83.8781L168.638 85.2137C168.336 85.32 168.004 85.302 167.715 85.1636C167.426 85.0251 167.205 84.7777 167.098 84.4756L166.811 83.6585C166.704 83.3564 166.722 83.0245 166.861 82.7358C166.999 82.447 167.247 82.2251 167.549 82.1188L171.347 80.7821C171.649 80.6758 171.981 80.6938 172.27 80.8323C172.558 80.9707 172.78 81.2181 172.887 81.5202L173.171 82.3384Z" fill="#E6E6E6"/>
<path d="M54.3546 109.574L45.4711 112.7C44.9019 112.9 44.6028 113.524 44.8031 114.093L44.8222 114.148C45.0225 114.717 45.6464 115.016 46.2156 114.816L55.0991 111.689C55.6683 111.489 55.9674 110.865 55.767 110.296L55.748 110.242C55.5477 109.673 54.9238 109.373 54.3546 109.574Z" fill="#CCCCCC"/>
<path d="M156.275 73.7061L147.392 76.8323C146.823 77.0327 146.523 77.6565 146.724 78.2258L146.743 78.2799C146.943 78.8491 147.567 79.1482 148.136 78.9479L157.02 75.8216C157.589 75.6213 157.888 74.9974 157.688 74.4282L157.669 74.3741C157.468 73.8048 156.844 73.5058 156.275 73.7061Z" fill="#CCCCCC"/>
<path d="M147.394 76.8313L171.827 68.2331L159.201 7.19705C159.201 7.19705 158.978 -0.429695 144.092 4.80878L13.5939 50.7336C-1.28874 55.9711 3.31078 62.0577 3.31078 62.0577L31.696 117.548L147.394 76.8313ZM36.3888 110.188L11.875 61.2613L152.322 11.8355L164.211 65.2047L36.3888 110.188Z" fill="#E6E6E6"/>
<path d="M152.316 11.8374L11.8751 61.2612L36.3889 110.187L164.211 65.2046L152.316 11.8374Z" fill="white"/>
<path d="M140.217 148.964L107.183 160.589C106.554 160.811 106.223 161.5 106.445 162.129L113.369 181.804C113.59 182.433 114.279 182.763 114.908 182.542L147.942 170.917C148.571 170.695 148.902 170.006 148.68 169.377L141.756 149.702C141.535 149.073 140.846 148.743 140.217 148.964Z" fill="#B3B3B3"/>
<path d="M129.64 178.448L115.25 183.513C114.621 183.734 114.291 184.423 114.512 185.052L114.943 186.277C115.164 186.906 115.854 187.236 116.483 187.015L130.873 181.951C131.502 181.729 131.832 181.04 131.611 180.411L131.18 179.187C130.959 178.558 130.269 178.227 129.64 178.448Z" fill="#B3B3B3"/>
<path d="M148.285 171.887L133.895 176.951C133.266 177.173 132.935 177.862 133.157 178.491L133.588 179.716C133.809 180.345 134.498 180.675 135.127 180.454L149.517 175.389C150.146 175.168 150.477 174.479 150.255 173.85L149.825 172.625C149.603 171.996 148.914 171.666 148.285 171.887Z" fill="#B3B3B3"/>
<path d="M43.6959 125.705L39.8977 127.042C39.2687 127.263 38.9382 127.953 39.1596 128.582L39.4472 129.399C39.6685 130.028 40.3579 130.358 40.9869 130.137L44.7851 128.8C45.4141 128.579 45.7446 127.889 45.5232 127.26L45.2356 126.443C45.0143 125.814 44.3249 125.484 43.6959 125.705Z" fill="#B3B3B3"/>
<path d="M52.2067 122.71L48.4085 124.047C47.7795 124.268 47.449 124.957 47.6704 125.586L47.9579 126.404C48.1793 127.033 48.8686 127.363 49.4976 127.142L53.2959 125.805C53.9249 125.584 54.2553 124.894 54.034 124.265L53.7464 123.448C53.5251 122.819 52.8357 122.489 52.2067 122.71Z" fill="#B3B3B3"/>
<path d="M60.7145 119.716L56.9162 121.053C56.2872 121.274 55.9568 121.963 56.1781 122.592L56.4657 123.409C56.6871 124.038 57.3764 124.369 58.0054 124.148L61.8037 122.811C62.4327 122.59 62.7631 121.9 62.5418 121.271L62.2542 120.454C62.0328 119.825 61.3435 119.495 60.7145 119.716Z" fill="#B3B3B3"/>
<path d="M69.2242 116.721L65.4259 118.058C64.7969 118.279 64.4665 118.968 64.6878 119.597L64.9754 120.415C65.1967 121.044 65.8861 121.374 66.5151 121.153L70.3134 119.816C70.9424 119.595 71.2728 118.905 71.0515 118.276L70.7639 117.459C70.5425 116.83 69.8532 116.5 69.2242 116.721Z" fill="#B3B3B3"/>
<path d="M77.7349 113.726L73.9367 115.063C73.3077 115.284 72.9772 115.974 73.1986 116.603L73.4861 117.42C73.7075 118.049 74.3968 118.379 75.0258 118.158L78.8241 116.821C79.4531 116.6 79.7835 115.91 79.5622 115.281L79.2746 114.464C79.0533 113.835 78.3639 113.505 77.7349 113.726Z" fill="#B3B3B3"/>
<path d="M86.2457 110.731L82.4474 112.068C81.8184 112.289 81.488 112.978 81.7093 113.607L81.9969 114.425C82.2183 115.054 82.9076 115.384 83.5366 115.163L87.3349 113.826C87.9639 113.605 88.2943 112.915 88.073 112.286L87.7854 111.469C87.564 110.84 86.8747 110.51 86.2457 110.731Z" fill="#B3B3B3"/>
<path d="M94.7555 107.736L90.9573 109.073C90.3283 109.294 89.9978 109.984 90.2192 110.613L90.5067 111.43C90.7281 112.059 91.4174 112.389 92.0464 112.168L95.8447 110.831C96.4737 110.61 96.8041 109.92 96.5828 109.291L96.2952 108.474C96.0739 107.845 95.3845 107.515 94.7555 107.736Z" fill="#B3B3B3"/>
<path d="M103.267 104.741L99.4683 106.078C98.8393 106.299 98.5088 106.988 98.7302 107.617L99.0178 108.435C99.2391 109.064 99.9285 109.394 100.557 109.173L104.356 107.836C104.985 107.615 105.315 106.925 105.094 106.296L104.806 105.479C104.585 104.85 103.896 104.52 103.267 104.741Z" fill="#B3B3B3"/>
<path d="M111.777 101.746L107.979 103.083C107.35 103.304 107.019 103.993 107.241 104.622L107.528 105.439C107.75 106.068 108.439 106.399 109.068 106.178L112.866 104.841C113.495 104.62 113.826 103.93 113.604 103.301L113.317 102.484C113.095 101.855 112.406 101.525 111.777 101.746Z" fill="#B3B3B3"/>
<path d="M120.288 98.7511L116.489 100.088C115.86 100.309 115.53 100.998 115.751 101.627L116.039 102.445C116.26 103.074 116.95 103.404 117.579 103.183L121.377 101.846C122.006 101.625 122.336 100.935 122.115 100.306L121.827 99.4892C121.606 98.8602 120.917 98.5297 120.288 98.7511Z" fill="#B3B3B3"/>
<path d="M128.797 95.7562L124.999 97.0929C124.37 97.3142 124.04 98.0036 124.261 98.6326L124.549 99.4497C124.77 100.079 125.459 100.409 126.088 100.188L129.887 98.8512C130.516 98.6298 130.846 97.9404 130.625 97.3114L130.337 96.4943C130.116 95.8653 129.426 95.5348 128.797 95.7562Z" fill="#B3B3B3"/>
<path d="M137.308 92.7611L133.51 94.0977C132.881 94.3191 132.551 95.0084 132.772 95.6374L133.059 96.4546C133.281 97.0836 133.97 97.4141 134.599 97.1927L138.397 95.856C139.026 95.6347 139.357 94.9453 139.136 94.3163L138.848 93.4992C138.627 92.8702 137.937 92.5397 137.308 92.7611Z" fill="#B3B3B3"/>
<path d="M145.816 89.7672L142.018 91.1038C141.389 91.3252 141.058 92.0145 141.28 92.6435L141.567 93.4607C141.789 94.0897 142.478 94.4202 143.107 94.1988L146.905 92.8621C147.534 92.6408 147.865 91.9514 147.643 91.3224L147.356 90.5053C147.134 89.8763 146.445 89.5458 145.816 89.7672Z" fill="#B3B3B3"/>
<path d="M154.327 86.7723L150.529 88.109C149.9 88.3303 149.569 89.0197 149.79 89.6487L150.078 90.4658C150.299 91.0948 150.989 91.4253 151.618 91.2039L155.416 89.8673C156.045 89.6459 156.375 88.9566 156.154 88.3276L155.867 87.5104C155.645 86.8814 154.956 86.5509 154.327 86.7723Z" fill="#B3B3B3"/>
<path d="M162.838 83.7772L159.039 85.1138C158.41 85.3352 158.08 86.0246 158.301 86.6536L158.589 87.4707C158.81 88.0997 159.499 88.4302 160.128 88.2088L163.927 86.8721C164.556 86.6508 164.886 85.9614 164.665 85.3324L164.377 84.5153C164.156 83.8863 163.467 83.5558 162.838 83.7772Z" fill="#B3B3B3"/>
<path d="M171.347 80.7823L167.549 82.119C166.92 82.3403 166.59 83.0297 166.811 83.6587L167.098 84.4758C167.32 85.1048 168.009 85.4353 168.638 85.2139L172.436 83.8773C173.065 83.6559 173.396 82.9666 173.175 82.3376L172.887 81.5204C172.666 80.8914 171.976 80.5609 171.347 80.7823Z" fill="#B3B3B3"/>
<path d="M45.6295 131.674L41.8313 133.01C41.2023 133.232 40.8718 133.921 41.0932 134.55L42.4299 138.348C42.6512 138.977 43.3406 139.308 43.9696 139.086L47.7678 137.75C48.3968 137.528 48.7273 136.839 48.5059 136.21L47.1692 132.412C46.9479 131.783 46.2585 131.452 45.6295 131.674Z" fill="#B3B3B3"/>
<path d="M54.2887 128.627L50.4905 129.963C49.8615 130.185 49.531 130.874 49.7524 131.503L51.089 135.301C51.3104 135.93 51.9997 136.261 52.6287 136.039L56.427 134.703C57.056 134.481 57.3864 133.792 57.1651 133.163L55.8284 129.365C55.6071 128.736 54.9177 128.405 54.2887 128.627Z" fill="#B3B3B3"/>
<path d="M60.7075 135.746L56.9093 137.083C56.2803 137.304 55.9498 137.994 56.1712 138.623L57.5078 142.421C57.7292 143.05 58.4185 143.38 59.0475 143.159L62.8458 141.822C63.4748 141.601 63.8052 140.912 63.5839 140.283L62.2472 136.485C62.0259 135.856 61.3365 135.525 60.7075 135.746Z" fill="#B3B3B3"/>
<path d="M67.5358 142.719L63.7375 144.056C63.1085 144.277 62.7781 144.967 62.9994 145.596L64.3361 149.394C64.5575 150.023 65.2468 150.353 65.8758 150.132L69.6741 148.795C70.3031 148.574 70.6335 147.885 70.4122 147.256L69.0755 143.457C68.8541 142.828 68.1648 142.498 67.5358 142.719Z" fill="#B3B3B3"/>
<path d="M65.8786 162.415L62.0803 163.752C61.4513 163.973 61.1209 164.662 61.3422 165.291L62.6789 169.09C62.9002 169.719 63.5896 170.049 64.2186 169.828L68.0168 168.491C68.6458 168.27 68.9763 167.58 68.7549 166.951L67.4183 163.153C67.1969 162.524 66.5076 162.194 65.8786 162.415Z" fill="#B3B3B3"/>
<path d="M74.1979 159.488L70.3996 160.824C69.7706 161.046 69.4402 161.735 69.6615 162.364L70.9982 166.162C71.2196 166.791 71.9089 167.122 72.5379 166.9L76.3362 165.564C76.9652 165.342 77.2956 164.653 77.0743 164.024L75.7376 160.226C75.5162 159.597 74.8269 159.266 74.1979 159.488Z" fill="#B3B3B3"/>
<path d="M82.5154 156.56L78.7172 157.897C78.0882 158.118 77.7577 158.808 77.9791 159.437L79.3157 163.235C79.5371 163.864 80.2265 164.194 80.8555 163.973L84.6537 162.636C85.2827 162.415 85.6132 161.726 85.3918 161.097L84.0551 157.298C83.8338 156.669 83.1444 156.339 82.5154 156.56Z" fill="#B3B3B3"/>
<path d="M90.8327 153.634L87.0344 154.97C86.4054 155.192 86.075 155.881 86.2963 156.51L87.633 160.308C87.8543 160.937 88.5437 161.268 89.1727 161.046L92.9709 159.71C93.5999 159.488 93.9304 158.799 93.709 158.17L92.3724 154.372C92.151 153.743 91.4617 153.412 90.8327 153.634Z" fill="#B3B3B3"/>
<path d="M99.1492 150.707L95.351 152.044C94.722 152.265 94.3915 152.954 94.6129 153.583L95.9495 157.381C96.1709 158.01 96.8602 158.341 97.4892 158.12L101.287 156.783C101.916 156.562 102.247 155.872 102.026 155.243L100.689 151.445C100.468 150.816 99.7782 150.486 99.1492 150.707Z" fill="#B3B3B3"/>
<path d="M107.469 147.779L103.67 149.116C103.041 149.337 102.711 150.026 102.932 150.655L104.269 154.453C104.49 155.082 105.18 155.413 105.809 155.192L109.607 153.855C110.236 153.634 110.566 152.944 110.345 152.315L109.008 148.517C108.787 147.888 108.098 147.558 107.469 147.779Z" fill="#B3B3B3"/>
<path d="M115.785 144.852L111.987 146.189C111.358 146.41 111.027 147.1 111.248 147.729L112.585 151.527C112.806 152.156 113.496 152.486 114.125 152.265L117.923 150.928C118.552 150.707 118.883 150.017 118.661 149.388L117.325 145.59C117.103 144.961 116.414 144.631 115.785 144.852Z" fill="#B3B3B3"/>
<path d="M124.102 141.925L120.304 143.262C119.675 143.483 119.345 144.173 119.566 144.802L120.903 148.6C121.124 149.229 121.813 149.559 122.442 149.338L126.241 148.001C126.87 147.78 127.2 147.09 126.979 146.461L125.642 142.663C125.421 142.034 124.731 141.704 124.102 141.925Z" fill="#B3B3B3"/>
<path d="M132.419 138.999L128.62 140.335C127.991 140.557 127.661 141.246 127.882 141.875L129.219 145.673C129.44 146.302 130.13 146.633 130.759 146.411L134.557 145.075C135.186 144.853 135.516 144.164 135.295 143.535L133.958 139.737C133.737 139.108 133.048 138.777 132.419 138.999Z" fill="#B3B3B3"/>
<path d="M140.739 136.071L136.941 137.407C136.312 137.629 135.981 138.318 136.203 138.947L137.539 142.745C137.761 143.374 138.45 143.705 139.079 143.483L142.877 142.147C143.506 141.925 143.837 141.236 143.615 140.607L142.279 136.809C142.057 136.18 141.368 135.849 140.739 136.071Z" fill="#B3B3B3"/>
<path d="M149.056 133.144L145.257 134.481C144.628 134.702 144.298 135.391 144.519 136.02L145.856 139.818C146.077 140.447 146.767 140.778 147.396 140.557L151.194 139.22C151.823 138.999 152.153 138.309 151.932 137.68L150.595 133.882C150.374 133.253 149.685 132.923 149.056 133.144Z" fill="#B3B3B3"/>
<path d="M157.373 130.217L153.574 131.554C152.945 131.775 152.615 132.464 152.836 133.093L154.173 136.891C154.394 137.52 155.084 137.851 155.713 137.63L159.511 136.293C160.14 136.072 160.47 135.382 160.249 134.753L158.912 130.955C158.691 130.326 158.002 129.996 157.373 130.217Z" fill="#B3B3B3"/>
<path d="M82.0934 147.359L78.2952 148.696C77.6662 148.917 77.3357 149.606 77.5571 150.235L78.8937 154.034C79.1151 154.663 79.8044 154.993 80.4334 154.772L84.2317 153.435C84.8607 153.214 85.1911 152.524 84.9698 151.895L83.6331 148.097C83.4117 147.468 82.7224 147.138 82.0934 147.359Z" fill="#B3B3B3"/>
<path d="M73.6305 150.337L69.8323 151.674C69.2033 151.895 68.8728 152.584 69.0942 153.213L70.4308 157.012C70.6522 157.641 71.3415 157.971 71.9705 157.75L75.7688 156.413C76.3978 156.192 76.7282 155.502 76.5069 154.873L75.1702 151.075C74.9489 150.446 74.2595 150.116 73.6305 150.337Z" fill="#B3B3B3"/>
<path d="M90.5583 144.38L86.76 145.717C86.131 145.938 85.8005 146.628 86.0219 147.257L87.3586 151.055C87.5799 151.684 88.2693 152.014 88.8983 151.793L92.6965 150.456C93.3255 150.235 93.656 149.546 93.4346 148.917L92.098 145.118C91.8766 144.489 91.1873 144.159 90.5583 144.38Z" fill="#B3B3B3"/>
<path d="M99.0202 141.402L95.2219 142.739C94.5929 142.96 94.2625 143.65 94.4838 144.279L95.8205 148.077C96.0418 148.706 96.7312 149.036 97.3602 148.815L101.158 147.478C101.787 147.257 102.118 146.568 101.897 145.939L100.56 142.14C100.339 141.511 99.6492 141.181 99.0202 141.402Z" fill="#B3B3B3"/>
<path d="M107.485 138.423L103.687 139.76C103.058 139.981 102.727 140.671 102.949 141.3L104.285 145.098C104.507 145.727 105.196 146.057 105.825 145.836L109.623 144.499C110.252 144.278 110.583 143.589 110.362 142.96L109.025 139.161C108.803 138.532 108.114 138.202 107.485 138.423Z" fill="#B3B3B3"/>
<path d="M115.947 135.445L112.148 136.782C111.519 137.003 111.189 137.693 111.41 138.322L112.747 142.12C112.968 142.749 113.658 143.079 114.287 142.858L118.085 141.521C118.714 141.3 119.044 140.611 118.823 139.982L117.486 136.183C117.265 135.554 116.576 135.224 115.947 135.445Z" fill="#B3B3B3"/>
<path d="M124.412 132.466L120.613 133.803C119.984 134.024 119.654 134.714 119.875 135.343L121.212 139.141C121.433 139.77 122.123 140.1 122.752 139.879L126.55 138.542C127.179 138.321 127.509 137.632 127.288 137.003L125.951 133.204C125.73 132.575 125.041 132.245 124.412 132.466Z" fill="#B3B3B3"/>
<path d="M132.874 129.488L129.076 130.825C128.447 131.046 128.116 131.736 128.338 132.365L129.674 136.163C129.896 136.792 130.585 137.122 131.214 136.901L135.012 135.564C135.641 135.343 135.972 134.654 135.75 134.025L134.414 130.226C134.192 129.597 133.503 129.267 132.874 129.488Z" fill="#B3B3B3"/>
<path d="M141.339 126.509L137.54 127.846C136.911 128.067 136.581 128.757 136.802 129.386L138.139 133.184C138.36 133.813 139.05 134.143 139.679 133.922L143.477 132.585C144.106 132.364 144.436 131.675 144.215 131.046L142.878 127.247C142.657 126.618 141.968 126.288 141.339 126.509Z" fill="#B3B3B3"/>
<path d="M149.801 123.532L146.003 124.868C145.374 125.09 145.044 125.779 145.265 126.408L146.602 130.206C146.823 130.835 147.512 131.166 148.141 130.944L151.94 129.608C152.569 129.386 152.899 128.697 152.678 128.068L151.341 124.27C151.12 123.641 150.43 123.31 149.801 123.532Z" fill="#B3B3B3"/>
<path d="M75.9987 139.741L72.2004 141.078C71.5714 141.299 71.241 141.988 71.4623 142.617L72.799 146.416C73.0204 147.045 73.7097 147.375 74.3387 147.154L78.1369 145.817C78.7659 145.596 79.0964 144.906 78.875 144.277L77.5384 140.479C77.317 139.85 76.6277 139.52 75.9987 139.741Z" fill="#B3B3B3"/>
<path d="M84.4625 136.762L80.6642 138.099C80.0352 138.32 79.7048 139.01 79.9261 139.639L81.2628 143.437C81.4842 144.066 82.1735 144.396 82.8025 144.175L86.6008 142.838C87.2298 142.617 87.5602 141.928 87.3389 141.299L86.0022 137.5C85.7808 136.871 85.0915 136.541 84.4625 136.762Z" fill="#B3B3B3"/>
<path d="M92.9247 133.784L89.1265 135.121C88.4975 135.342 88.167 136.032 88.3884 136.661L89.7251 140.459C89.9464 141.088 90.6358 141.418 91.2648 141.197L95.063 139.86C95.692 139.639 96.0225 138.95 95.8011 138.321L94.4644 134.522C94.2431 133.893 93.5537 133.563 92.9247 133.784Z" fill="#B3B3B3"/>
<path d="M101.389 130.805L97.5911 132.142C96.9621 132.363 96.6316 133.053 96.8529 133.682L98.1896 137.48C98.411 138.109 99.1003 138.439 99.7293 138.218L103.528 136.881C104.157 136.66 104.487 135.971 104.266 135.342L102.929 131.543C102.708 130.914 102.018 130.584 101.389 130.805Z" fill="#B3B3B3"/>
<path d="M109.852 127.828L106.054 129.164C105.425 129.386 105.094 130.075 105.316 130.704L106.653 134.502C106.874 135.131 107.563 135.462 108.192 135.24L111.99 133.904C112.619 133.682 112.95 132.993 112.729 132.364L111.392 128.566C111.171 127.937 110.481 127.606 109.852 127.828Z" fill="#B3B3B3"/>
<path d="M118.317 124.849L114.519 126.185C113.89 126.407 113.559 127.096 113.78 127.725L115.117 131.523C115.338 132.152 116.028 132.483 116.657 132.261L120.455 130.925C121.084 130.703 121.415 130.014 121.193 129.385L119.857 125.587C119.635 124.958 118.946 124.627 118.317 124.849Z" fill="#B3B3B3"/>
<path d="M126.779 121.87L122.981 123.207C122.352 123.428 122.021 124.118 122.243 124.747L123.579 128.545C123.801 129.174 124.49 129.505 125.119 129.283L128.917 127.946C129.546 127.725 129.877 127.036 129.655 126.407L128.319 122.609C128.097 121.98 127.408 121.649 126.779 121.87Z" fill="#B3B3B3"/>
<path d="M135.244 118.892L131.446 120.228C130.817 120.45 130.486 121.139 130.707 121.768L132.044 125.566C132.265 126.195 132.955 126.526 133.584 126.304L137.382 124.968C138.011 124.746 138.342 124.057 138.12 123.428L136.784 119.63C136.562 119.001 135.873 118.67 135.244 118.892Z" fill="#B3B3B3"/>
<path d="M143.706 115.914L139.907 117.25C139.278 117.472 138.948 118.161 139.169 118.79L140.506 122.588C140.727 123.217 141.417 123.548 142.046 123.326L145.844 121.99C146.473 121.768 146.803 121.079 146.582 120.45L145.245 116.652C145.024 116.023 144.335 115.692 143.706 115.914Z" fill="#B3B3B3"/>
<path d="M152.17 112.935L148.372 114.271C147.743 114.493 147.413 115.182 147.634 115.811L148.971 119.609C149.192 120.238 149.882 120.569 150.511 120.347L154.309 119.011C154.938 118.789 155.268 118.1 155.047 117.471L153.71 113.673C153.489 113.044 152.799 112.713 152.17 112.935Z" fill="#B3B3B3"/>
<path d="M68.9194 132.857L65.1212 134.193C64.4922 134.415 64.1617 135.104 64.3831 135.733L65.7197 139.531C65.9411 140.16 66.6304 140.491 67.2594 140.269L71.0577 138.933C71.6867 138.711 72.0172 138.022 71.7958 137.393L70.4591 133.595C70.2378 132.966 69.5484 132.635 68.9194 132.857Z" fill="#B3B3B3"/>
<path d="M77.1307 129.967L73.3324 131.304C72.7034 131.525 72.373 132.214 72.5943 132.843L73.931 136.641C74.1524 137.27 74.8417 137.601 75.4707 137.38L79.269 136.043C79.898 135.822 80.2284 135.132 80.0071 134.503L78.6704 130.705C78.449 130.076 77.7597 129.746 77.1307 129.967Z" fill="#B3B3B3"/>
<path d="M85.3424 127.077L81.5442 128.414C80.9152 128.635 80.5847 129.324 80.8061 129.953L82.1427 133.752C82.3641 134.381 83.0535 134.711 83.6825 134.49L87.4807 133.153C88.1097 132.932 88.4402 132.242 88.2188 131.613L86.8821 127.815C86.6608 127.186 85.9714 126.856 85.3424 127.077Z" fill="#B3B3B3"/>
<path d="M93.5543 124.187L89.7561 125.524C89.1271 125.745 88.7966 126.435 89.018 127.064L90.3547 130.862C90.576 131.491 91.2654 131.821 91.8944 131.6L95.6926 130.263C96.3216 130.042 96.6521 129.353 96.4307 128.724L95.094 124.925C94.8727 124.296 94.1833 123.966 93.5543 124.187Z" fill="#B3B3B3"/>
<path d="M101.765 121.298L97.9669 122.634C97.3379 122.856 97.0074 123.545 97.2288 124.174L98.5654 127.972C98.7868 128.601 99.4762 128.932 100.105 128.71L103.903 127.374C104.532 127.152 104.863 126.463 104.641 125.834L103.305 122.036C103.083 121.407 102.394 121.076 101.765 121.298Z" fill="#B3B3B3"/>
<path d="M109.973 118.409L106.175 119.745C105.546 119.967 105.216 120.656 105.437 121.285L106.774 125.083C106.995 125.712 107.684 126.043 108.313 125.821L112.112 124.485C112.741 124.263 113.071 123.574 112.85 122.945L111.513 119.147C111.292 118.518 110.602 118.187 109.973 118.409Z" fill="#B3B3B3"/>
<path d="M118.185 115.519L114.387 116.856C113.758 117.077 113.427 117.766 113.649 118.395L114.986 122.193C115.207 122.822 115.896 123.153 116.525 122.932L120.323 121.595C120.952 121.374 121.283 120.684 121.062 120.055L119.725 116.257C119.504 115.628 118.814 115.298 118.185 115.519Z" fill="#B3B3B3"/>
<path d="M126.397 112.629L122.599 113.966C121.97 114.187 121.639 114.877 121.861 115.506L123.197 119.304C123.419 119.933 124.108 120.263 124.737 120.042L128.535 118.705C129.164 118.484 129.495 117.795 129.273 117.166L127.937 113.367C127.715 112.738 127.026 112.408 126.397 112.629Z" fill="#B3B3B3"/>
<path d="M134.608 109.74L130.81 111.076C130.181 111.298 129.85 111.987 130.072 112.616L131.408 116.414C131.63 117.043 132.319 117.374 132.948 117.152L136.746 115.816C137.375 115.594 137.706 114.905 137.484 114.276L136.148 110.478C135.926 109.849 135.237 109.518 134.608 109.74Z" fill="#B3B3B3"/>
<path d="M142.82 106.85L139.022 108.186C138.393 108.408 138.062 109.097 138.284 109.726L139.62 113.524C139.842 114.153 140.531 114.484 141.16 114.262L144.958 112.926C145.587 112.704 145.918 112.015 145.696 111.386L144.36 107.588C144.138 106.959 143.449 106.628 142.82 106.85Z" fill="#B3B3B3"/>
<path d="M151.031 103.96L147.233 105.296C146.604 105.518 146.273 106.207 146.495 106.836L147.831 110.634C148.053 111.263 148.742 111.594 149.371 111.373L153.169 110.036C153.798 109.814 154.129 109.125 153.907 108.496L152.571 104.698C152.349 104.069 151.66 103.738 151.031 103.96Z" fill="#B3B3B3"/>
<path d="M159.243 101.07L155.445 102.407C154.816 102.628 154.485 103.318 154.706 103.947L156.043 107.745C156.264 108.374 156.954 108.704 157.583 108.483L161.381 107.146C162.01 106.925 162.341 106.235 162.119 105.606L160.783 101.808C160.561 101.179 159.872 100.849 159.243 101.07Z" fill="#B3B3B3"/>
<path d="M62.945 125.581L59.1467 126.917C58.5177 127.139 58.1873 127.828 58.4086 128.457L59.7453 132.255C59.9666 132.884 60.656 133.215 61.285 132.993L65.0832 131.657C65.7122 131.435 66.0427 130.746 65.8213 130.117L64.4847 126.319C64.2633 125.69 63.574 125.359 62.945 125.581Z" fill="#B3B3B3"/>
<path d="M71.6004 122.534L67.8022 123.871C67.1732 124.092 66.8427 124.782 67.0641 125.411L68.4007 129.209C68.6221 129.838 69.3114 130.168 69.9404 129.947L73.7387 128.61C74.3677 128.389 74.6982 127.7 74.4768 127.071L73.1401 123.272C72.9188 122.643 72.2294 122.313 71.6004 122.534Z" fill="#B3B3B3"/>
<path d="M80.2565 119.488L76.4582 120.825C75.8292 121.046 75.4988 121.736 75.7201 122.365L77.0568 126.163C77.2782 126.792 77.9675 127.122 78.5965 126.901L82.3948 125.564C83.0238 125.343 83.3542 124.654 83.1329 124.025L81.7962 120.226C81.5748 119.597 80.8855 119.267 80.2565 119.488Z" fill="#B3B3B3"/>
<path d="M88.9108 116.442L85.1125 117.779C84.4835 118 84.1531 118.69 84.3744 119.319L85.7111 123.117C85.9325 123.746 86.6218 124.076 87.2508 123.855L91.0491 122.518C91.6781 122.297 92.0085 121.608 91.7872 120.979L90.4505 117.18C90.2291 116.551 89.5398 116.221 88.9108 116.442Z" fill="#B3B3B3"/>
<path d="M97.567 113.396L93.7687 114.733C93.1397 114.954 92.8093 115.644 93.0306 116.273L94.3673 120.071C94.5887 120.7 95.278 121.03 95.907 120.809L99.7052 119.472C100.334 119.251 100.665 118.562 100.443 117.933L99.1067 114.134C98.8853 113.505 98.196 113.175 97.567 113.396Z" fill="#B3B3B3"/>
<path d="M106.222 110.35L102.424 111.687C101.795 111.908 101.465 112.597 101.686 113.226L103.023 117.025C103.244 117.654 103.933 117.984 104.562 117.763L108.361 116.426C108.99 116.205 109.32 115.515 109.099 114.886L107.762 111.088C107.541 110.459 106.851 110.129 106.222 110.35Z" fill="#B3B3B3"/>
<path d="M114.881 107.303L111.083 108.639C110.454 108.861 110.124 109.55 110.345 110.179L111.682 113.977C111.903 114.606 112.593 114.937 113.222 114.716L117.02 113.379C117.649 113.158 117.979 112.468 117.758 111.839L116.421 108.041C116.2 107.412 115.51 107.081 114.881 107.303Z" fill="#B3B3B3"/>
<path d="M123.537 104.257L119.739 105.594C119.11 105.815 118.779 106.504 119.001 107.133L120.337 110.932C120.559 111.561 121.248 111.891 121.877 111.67L125.675 110.333C126.304 110.112 126.635 109.422 126.413 108.793L125.077 104.995C124.855 104.366 124.166 104.036 123.537 104.257Z" fill="#B3B3B3"/>
<path d="M132.193 101.211L128.395 102.548C127.766 102.769 127.435 103.458 127.657 104.087L128.993 107.886C129.215 108.515 129.904 108.845 130.533 108.624L134.331 107.287C134.96 107.066 135.291 106.376 135.069 105.747L133.733 101.949C133.511 101.32 132.822 100.99 132.193 101.211Z" fill="#B3B3B3"/>
<path d="M140.848 98.1649L137.05 99.5015C136.421 99.7229 136.091 100.412 136.312 101.041L137.649 104.839C137.87 105.468 138.559 105.799 139.188 105.578L142.987 104.241C143.616 104.02 143.946 103.33 143.725 102.701L142.388 98.903C142.167 98.274 141.477 97.9435 140.848 98.1649Z" fill="#B3B3B3"/>
<path d="M149.505 95.1187L145.706 96.4554C145.077 96.6768 144.747 97.3661 144.968 97.9951L146.305 101.793C146.526 102.422 147.216 102.753 147.845 102.531L151.643 101.195C152.272 100.973 152.602 100.284 152.381 99.6551L151.044 95.8568C150.823 95.2278 150.134 94.8974 149.505 95.1187Z" fill="#B3B3B3"/>
<path d="M173.429 86.6988L169.631 88.0355C169.002 88.2568 168.672 88.9462 168.893 89.5752L170.23 93.3734C170.451 94.0024 171.14 94.3329 171.769 94.1115L175.568 92.7749C176.197 92.5535 176.527 91.8641 176.306 91.2352L174.969 87.4369C174.748 86.8079 174.058 86.4774 173.429 86.6988Z" fill="#B3B3B3"/>
<path d="M176.366 95.0443L172.568 96.3809C171.939 96.6023 171.608 97.2916 171.83 97.9206L173.166 101.719C173.388 102.348 174.077 102.678 174.706 102.457L178.504 101.12C179.133 100.899 179.464 100.21 179.242 99.5806L177.906 95.7824C177.684 95.1534 176.995 94.8229 176.366 95.0443Z" fill="#B3B3B3"/>
<path d="M179.302 103.387L175.504 104.723C174.875 104.945 174.544 105.634 174.766 106.263L176.103 110.061C176.324 110.69 177.013 111.021 177.642 110.8L181.44 109.463C182.069 109.241 182.4 108.552 182.179 107.923L180.842 104.125C180.621 103.496 179.931 103.165 179.302 103.387Z" fill="#B3B3B3"/>
<path d="M182.359 112.074L178.561 113.41C177.932 113.632 177.601 114.321 177.822 114.95L179.159 118.748C179.381 119.377 180.07 119.708 180.699 119.486L184.497 118.15C185.126 117.928 185.457 117.239 185.235 116.61L183.899 112.812C183.677 112.183 182.988 111.852 182.359 112.074Z" fill="#B3B3B3"/>
<path d="M185.296 120.419L181.497 121.755C180.868 121.977 180.538 122.666 180.759 123.295L182.096 127.093C182.317 127.722 183.007 128.053 183.636 127.832L187.434 126.495C188.063 126.273 188.393 125.584 188.172 124.955L186.835 121.157C186.614 120.528 185.925 120.197 185.296 120.419Z" fill="#B3B3B3"/>
<path d="M174.492 114.842L170.694 116.179C170.065 116.4 169.734 117.089 169.955 117.718L171.292 121.517C171.514 122.146 172.203 122.476 172.832 122.255L176.63 120.918C177.259 120.697 177.59 120.007 177.368 119.378L176.032 115.58C175.81 114.951 175.121 114.621 174.492 114.842Z" fill="#B3B3B3"/>
<path d="M177.429 123.187L173.631 124.524C173.002 124.745 172.672 125.435 172.893 126.064L174.23 129.862C174.451 130.491 175.14 130.821 175.769 130.6L179.568 129.263C180.197 129.042 180.527 128.353 180.306 127.724L178.969 123.925C178.748 123.296 178.058 122.966 177.429 123.187Z" fill="#B3B3B3"/>
<path d="M165.42 89.5173L153.715 93.6366C153.086 93.8579 152.756 94.5473 152.977 95.1763L154.314 98.9745C154.535 99.6035 155.224 99.934 155.853 99.7126L167.558 95.5934C168.187 95.372 168.518 94.6827 168.297 94.0537L166.96 90.2554C166.739 89.6264 166.049 89.296 165.42 89.5173Z" fill="#B3B3B3"/>
<path d="M171.354 106.379L156.306 111.674C155.677 111.896 155.347 112.585 155.568 113.214L156.905 117.012C157.126 117.641 157.815 117.972 158.444 117.75L173.492 112.455C174.121 112.234 174.452 111.544 174.23 110.915L172.893 107.117C172.672 106.488 171.983 106.157 171.354 106.379Z" fill="#B3B3B3"/>
<path d="M58.3936 165.078L53.6985 166.731C53.0695 166.952 52.739 167.641 52.9604 168.27L54.297 172.069C54.5184 172.698 55.2078 173.028 55.8368 172.807L60.5319 171.154C61.1609 170.933 61.4913 170.244 61.27 169.615L59.9333 165.816C59.712 165.187 59.0226 164.857 58.3936 165.078Z" fill="#B3B3B3"/>
<path d="M166.628 117.61L154.635 121.83C154.006 122.052 153.676 122.741 153.897 123.37L155.234 127.168C155.455 127.797 156.144 128.128 156.773 127.906L168.766 123.686C169.395 123.464 169.725 122.775 169.504 122.146L168.167 118.348C167.946 117.719 167.257 117.388 166.628 117.61Z" fill="#B3B3B3"/>
<path d="M169.556 125.929L161.561 128.743C160.932 128.964 160.601 129.654 160.823 130.283L162.159 134.081C162.381 134.71 163.07 135.04 163.699 134.819L171.694 132.005C172.323 131.784 172.654 131.095 172.432 130.466L171.096 126.667C170.874 126.038 170.185 125.708 169.556 125.929Z" fill="#B3B3B3"/>
<path d="M168.306 97.8808L163.235 99.6654C162.606 99.8867 162.275 100.576 162.497 101.205L163.833 105.003C164.055 105.632 164.744 105.963 165.373 105.741L170.444 103.957C171.073 103.735 171.403 103.046 171.182 102.417L169.845 98.6189C169.624 97.9899 168.935 97.6594 168.306 97.8808Z" fill="#B3B3B3"/>
<path d="M52.5411 138.425L45.0044 141.078C44.2118 141.357 43.7954 142.225 44.0743 143.018L45.3238 146.568C45.6028 147.361 46.4713 147.777 47.2639 147.498L54.8006 144.846C55.5931 144.567 56.0095 143.699 55.7306 142.906L54.4811 139.355C54.2022 138.563 53.3336 138.147 52.5411 138.425Z" fill="#B3B3B3"/>
<path d="M59.0763 145.696L48.0005 149.594C47.2079 149.873 46.7916 150.741 47.0705 151.534L48.32 155.084C48.5989 155.877 49.4675 156.293 50.26 156.014L61.3358 152.117C62.1284 151.838 62.5448 150.969 62.2658 150.177L61.0164 146.626C60.7374 145.834 59.8689 145.417 59.0763 145.696Z" fill="#B3B3B3"/>
<path d="M65.2938 153.079L50.9977 158.11C50.2051 158.389 49.7888 159.258 50.0677 160.05L51.3172 163.601C51.5961 164.393 52.4647 164.81 53.2572 164.531L67.5533 159.5C68.3458 159.221 68.7622 158.352 68.4833 157.56L67.2338 154.009C66.9549 153.217 66.0863 152.8 65.2938 153.079Z" fill="#B3B3B3"/>
<path d="M169.557 152.92L172.008 171.724L173.601 183.95L204.632 179.909L202.181 161.106L200.587 148.876L169.557 152.92Z" fill="#FC9800" fill-opacity="0.52"/>
</svg>
