<svg width="20" height="19" viewBox="0 0 20 19" fill="none" xmlns="http://www.w3.org/2000/svg">
<path fill-rule="evenodd" clip-rule="evenodd" d="M8.98078 13.2524C9.32215 13.2524 9.59889 13.5291 9.59889 13.8705V16.2909C12.997 14.3061 15.0414 12.902 16.2744 11.6761C16.9899 10.9647 17.3835 10.358 17.6121 9.77949C17.8419 9.1978 17.9434 8.54789 17.9434 7.68935C17.9434 4.61698 15.4528 2.12634 12.3804 2.12634H8.05361C4.98124 2.12634 2.49059 4.61698 2.49059 7.68935C2.49059 10.7617 4.98124 13.2524 8.05361 13.2524H8.98078ZM9.59889 18.0772C17.8372 13.3361 19.4887 11.3942 19.4887 7.68935C19.4887 3.76355 16.3062 0.581055 12.3804 0.581055H8.05361C4.12781 0.581055 0.945312 3.76355 0.945312 7.68935C0.945312 11.6152 4.12781 14.7977 8.05361 14.7977V17.8988C8.05361 18.3717 8.56289 18.6693 8.97373 18.4352C9.18622 18.3141 9.39458 18.1948 9.59889 18.0772Z" fill="black"/>
</svg>
