<svg width="20" height="19" viewBox="0 0 20 19" fill="none" xmlns="http://www.w3.org/2000/svg">
<path fill-rule="evenodd" clip-rule="evenodd" d="M9.19127 0.762096C9.43266 0.520708 9.82402 0.520708 10.0654 0.762096L14.5015 5.19815C14.8032 5.49989 14.8032 5.9891 14.5015 6.29083C14.1997 6.59257 13.7105 6.59257 13.4088 6.29083L10.401 3.28302V12.5437C10.401 12.9705 10.0551 13.3164 9.62834 13.3164C9.20162 13.3164 8.8557 12.9705 8.8557 12.5437V3.28302L5.84789 6.29083C5.54615 6.59257 5.05695 6.59257 4.75521 6.29083C4.45347 5.9891 4.45347 5.49989 4.75521 5.19815L9.19127 0.762096ZM0.974759 10.5349C1.40148 10.5349 1.7474 10.8808 1.7474 11.3075V16.2524C1.7474 16.8498 2.23169 17.3341 2.8291 17.3341H16.4276C17.025 17.3341 17.5093 16.8498 17.5093 16.2524V11.3075C17.5093 10.8808 17.8552 10.5349 18.2819 10.5349C18.7086 10.5349 19.0546 10.8808 19.0546 11.3075V16.2524C19.0546 17.7033 17.8784 18.8794 16.4276 18.8794H2.8291C1.37826 18.8794 0.202118 17.7033 0.202118 16.2524V11.3075C0.202118 10.8808 0.548041 10.5349 0.974759 10.5349Z" fill="black"/>
</svg>
