<svg width="161" height="109" viewBox="0 0 161 109" fill="none" xmlns="http://www.w3.org/2000/svg">
<path d="M133.11 59.3226L133.284 59.4138C139.161 63.0371 144.458 67.5247 148.997 72.7257C149.651 73.4855 150.259 74.2453 150.844 75.0051L154.118 66.8295C154.397 66.1244 154.636 65.4039 154.833 64.6716L124.44 55.0449L133.11 59.3226Z" fill="white"/>
<path d="M26.2579 30.123C25.5586 34.3113 26.3063 38.6129 28.3779 42.3196C30.4494 46.0263 33.7214 48.9172 37.655 50.5163L56.1868 57.9473C60.7705 59.7706 65.8895 59.7056 70.4253 57.7665C74.9612 55.8275 78.5452 52.1719 80.3944 47.5987L82.6738 41.8621L47.7225 30.7993C46.7272 30.5713 36.5609 28.4286 26.2579 30.123Z" fill="white"/>
<path d="M153.927 52.5984C152.978 50.3473 151.591 48.307 149.847 46.5958C148.103 44.8846 146.037 43.5366 143.769 42.6297L125.229 35.1987C123.037 34.3141 120.694 33.8601 118.33 33.8615C115.182 33.8638 112.085 34.6627 109.328 36.1839C106.572 37.705 104.245 39.8989 102.564 42.5613L155.432 59.2771C155.347 56.977 154.837 54.7125 153.927 52.5984Z" fill="white"/>
<path d="M85.2254 33.5347C85.5921 29.5417 84.6613 25.5369 82.5711 22.115C80.481 18.693 77.343 16.0363 73.6231 14.5394L55.0837 7.0781C52.8886 6.19345 50.5437 5.73945 48.177 5.74085C43.245 5.75007 38.516 7.70507 35.0172 11.1811L83.9565 35.1987C84.2632 34.5643 84.6947 33.9983 85.2254 33.5347Z" fill="white"/>
<path d="M30.8831 17.4417L28.0642 24.4775L28.4821 24.4243C35.3586 23.8038 42.2892 24.2188 49.0426 25.6552L49.2325 25.7084L58.487 28.6337L31.7949 15.5345C31.4545 16.1522 31.1501 16.7889 30.8831 17.4417Z" fill="white"/>
<path d="M107.815 78.6369L126.347 86.0679C130.099 87.5594 134.234 87.7947 138.131 86.7386C142.028 85.6824 145.478 83.3917 147.964 80.2097C141.68 70.8565 131.643 64.6337 130.67 64.0486L99.7004 48.8524L97.4666 54.4294C95.6349 59.0123 95.6958 64.1347 97.6358 68.6728C99.5758 73.211 103.237 76.7943 107.815 78.6369Z" fill="white"/>
<path d="M82.7106 41.8622L80.4312 47.5988C78.5821 52.1721 74.998 55.8276 70.4622 57.7667C65.9263 59.7058 60.8073 59.7707 56.2236 57.9474L37.6919 50.5165C33.7582 48.9174 30.4863 46.0265 28.4147 42.3198C26.3432 38.6131 25.5954 34.3115 26.2947 30.1232C24.4233 30.4234 22.577 30.8628 20.7709 31.4376C20.3972 36.502 21.6408 41.5543 24.3226 45.8665C27.0044 50.1787 30.986 53.5282 35.6936 55.4324L54.2253 62.8634C60.1226 65.2182 66.7128 65.1393 72.552 62.6441C78.3912 60.1489 83.0032 55.4409 85.3776 49.5515L87.8014 43.473L87.0415 43.1615L82.7106 41.8622Z" fill="#808080"/>
<path d="M31.7735 9.58548L35.0255 11.1811C38.5243 7.70506 43.2534 5.75006 48.1854 5.74084C50.5521 5.73945 52.897 6.19344 55.0921 7.07809L73.6239 14.5091C77.3438 16.0059 80.4818 18.6626 82.5719 22.0845C84.662 25.5065 85.5928 29.5113 85.2261 33.5043C85.95 32.8639 86.8348 32.4328 87.7853 32.2575C88.7357 32.0821 89.716 32.169 90.6208 32.509C90.7632 27.6082 89.3995 22.7815 86.7135 18.6799C84.0275 14.5782 80.1485 11.3988 75.5994 9.57029L57.06 2.13932C52.2339 0.212934 46.9127 -0.0936338 41.8973 1.26573C36.8819 2.6251 32.4437 5.57684 29.2509 9.67665C29.631 9.45367 30.0604 9.32861 30.5007 9.3127C30.941 9.29678 31.3784 9.39052 31.7735 9.58548Z" fill="#808080"/>
<path d="M30.884 17.442C31.151 16.7892 31.4554 16.1525 31.7958 15.5348L29.4328 14.4027C28.9078 14.1443 28.4831 13.7195 28.2247 13.1946C27.9663 12.6696 27.8888 12.0739 28.0043 11.5002C27.1939 12.7621 26.5045 14.0977 25.9453 15.4892L22.4121 24.3334C22.2526 24.7285 22.1082 25.0933 21.9714 25.5264C23.985 25.0392 26.0281 24.6838 28.0879 24.4626L30.884 17.442Z" fill="#808080"/>
<path d="M140.586 85.8855C138.342 86.8545 135.928 87.3695 133.484 87.4008C131.041 87.4321 128.615 86.9791 126.347 86.0679L107.815 78.6369C103.236 76.7943 99.5757 73.2109 97.6356 68.6728C95.6956 64.1347 95.6347 59.0123 97.4664 54.4294L99.7002 48.8524L94.9134 46.4969L92.5276 52.4539C90.175 58.3513 90.2548 64.9406 92.7498 70.7792C95.2447 76.6179 99.9514 81.2301 105.839 83.6061L124.371 91.037C127.187 92.1705 130.195 92.7534 133.231 92.7542C136.506 92.7363 139.744 92.0537 142.748 90.7476C145.752 89.4416 148.459 87.5393 150.706 85.1561C149.921 83.4352 148.994 81.7832 147.933 80.2173C146.003 82.6976 143.475 84.6478 140.586 85.8855Z" fill="#808080"/>
<path d="M145.745 37.6907L127.213 30.2598C122.627 28.4303 117.588 28.06 112.784 29.1995C107.98 30.339 103.645 32.9328 100.369 36.627C101.262 37.2798 101.93 38.195 102.278 39.245C102.627 40.295 102.639 41.4277 102.314 42.4851L102.565 42.5611C104.245 39.8987 106.572 37.7048 109.329 36.1837C112.086 34.6625 115.182 33.8636 118.331 33.8612C120.695 33.8599 123.037 34.3139 125.23 35.1985L143.769 42.6295C147.11 43.9886 149.988 46.2831 152.056 49.2374C154.125 52.1917 155.297 55.6803 155.432 59.2845L156.861 59.7404C157.459 59.9335 157.97 60.3324 158.302 60.8662C158.634 61.4001 158.766 62.0343 158.675 62.6564C158.584 63.2786 158.276 63.8483 157.804 64.2645C157.333 64.6807 156.73 64.9164 156.101 64.9299C155.828 64.9305 155.556 64.8895 155.296 64.8083L154.87 64.6715C154.673 65.4038 154.435 66.1243 154.156 66.8294L150.82 75.005C152.093 76.6658 153.246 78.4152 154.27 80.2401C154.719 79.4155 155.12 78.5656 155.47 77.6947L159.034 68.8125C161.389 62.9224 161.312 56.339 158.821 50.5051C156.33 44.6713 151.628 40.0632 145.745 37.6907Z" fill="#808080"/>
<path d="M88.7677 37.5161L88.7525 37.5465L92.4376 39.3548L96.4722 40.6389L88.7677 37.5161Z" fill="#999999"/>
<path d="M86.989 43.2147L87.7716 43.5262L93.7058 45.9044L90.4537 44.3089L86.989 43.2147Z" fill="#808080"/>
<path d="M85.2266 33.5347C84.696 33.9983 84.2644 34.5642 83.9578 35.1986L88.7522 37.554V37.516L96.4566 40.6389L102.3 42.4852C102.625 41.4278 102.612 40.2951 102.264 39.2451C101.915 38.1951 101.248 37.2799 100.354 36.6271C99.9903 36.3596 99.5948 36.1376 99.1768 35.9661L90.7277 32.5773H90.6061C89.7067 32.2353 88.7314 32.1438 87.784 32.3124C86.8367 32.481 85.9528 32.9034 85.2266 33.5347Z" fill="#808080"/>
<path d="M148.998 72.7257C144.458 67.5247 139.161 63.0371 133.285 59.4138L133.11 59.3226L124.403 55.0449L90.4547 44.3088L93.7143 45.912L94.9147 46.497L99.7015 48.8525L130.671 64.0487C131.644 64.6337 141.681 70.8869 147.965 80.2098C149.026 81.7756 149.953 83.4277 150.738 85.1486C153.359 90.9459 154.127 97.5867 150.738 104.645C150.588 104.96 150.501 105.302 150.483 105.651C150.465 106 150.516 106.349 150.633 106.678C150.75 107.007 150.931 107.309 151.166 107.568C151.4 107.827 151.683 108.037 151.999 108.186C152.354 108.359 152.744 108.448 153.139 108.444C153.642 108.445 154.135 108.302 154.56 108.033C154.985 107.764 155.325 107.38 155.54 106.925C159.681 98.2325 159.218 89.1376 154.271 80.2326C153.247 78.4078 152.094 76.6583 150.822 74.9975C150.259 74.2453 149.651 73.4855 148.998 72.7257Z" fill="#808080"/>
<path d="M29.4326 14.4026L31.7956 15.5576L58.4878 28.6567L92.4361 39.4004L88.751 37.5921L83.9566 35.2366L35.0248 11.219L31.7729 9.62342C31.3797 9.43111 30.9451 9.33882 30.5077 9.35472C30.0704 9.37063 29.6437 9.49423 29.2655 9.71459C28.8103 9.97471 28.4446 10.3668 28.217 10.8391C28.1143 11.048 28.0426 11.2706 28.0042 11.5002C27.8887 12.0738 27.9662 12.6695 28.2246 13.1945C28.4829 13.7195 28.9077 14.1442 29.4326 14.4026Z" fill="#808080"/>
<path d="M47.7295 30.7994L82.6808 41.8622L86.9662 43.2147L90.4233 44.3088L124.372 55.0449L154.764 64.6717L155.189 64.8085C155.45 64.8897 155.722 64.9306 155.995 64.93C156.624 64.9166 157.227 64.6808 157.698 64.2646C158.169 63.8484 158.478 63.2787 158.569 62.6566C158.66 62.0345 158.528 61.4002 158.196 60.8664C157.864 60.3325 157.353 59.9336 156.755 59.7405L155.326 59.2847L102.459 42.5688L102.208 42.4928L96.365 40.6465L92.3304 39.37L58.3821 28.6263L49.1276 25.701L48.9376 25.6478C42.2217 24.2202 35.3303 23.8028 28.4912 24.4094L28.0733 24.4625C26.0135 24.6838 23.9703 25.0391 21.9568 25.5263C10.8788 28.216 3.37941 34.7124 0.11983 44.6127C-0.0816301 45.2778 -0.0147674 45.9952 0.306072 46.6116C0.626912 47.228 1.17624 47.6943 1.83654 47.9107C2.49685 48.1272 3.21568 48.0766 3.83916 47.7698C4.46264 47.463 4.94124 46.9243 5.17259 46.2691C7.9003 37.9796 13.994 33.6183 20.7411 31.4376C22.5471 30.8627 24.3935 30.4234 26.2649 30.1231C36.5603 28.4288 46.7266 30.5714 47.7295 30.7994Z" fill="#808080"/>
</svg>
