<svg width="49" height="49" viewBox="0 0 49 49" fill="none" xmlns="http://www.w3.org/2000/svg">
<g clip-path="url(#clip0_1_628)">
<path d="M24.6154 48.4598C37.8805 48.4598 48.6341 37.7062 48.6341 24.4411C48.6341 11.1759 37.8805 0.422363 24.6154 0.422363C11.3502 0.422363 0.59668 11.1759 0.59668 24.4411C0.59668 37.7062 11.3502 48.4598 24.6154 48.4598Z" fill="url(#paint0_linear_1_628)"/>
<path fill-rule="evenodd" clip-rule="evenodd" d="M11.4466 24.1792C18.4427 21.1114 23.1193 19.1285 25.4763 18.1558C32.1357 15.3873 33.5199 14.9009 34.4178 14.8635C34.6049 14.8635 35.0538 14.9009 35.3531 15.1254C35.5776 15.3125 35.6524 15.5744 35.6898 15.7614C35.7272 15.9485 35.7646 16.36 35.7272 16.6967C35.3531 20.4754 33.8192 29.7162 32.9961 33.9438C32.6594 35.7396 31.986 36.3382 31.35 36.413C29.9657 36.5253 28.8808 35.4777 27.5339 34.6172C25.4388 33.233 24.2417 32.3725 22.184 31.0256C19.827 29.4543 21.3609 28.5938 22.7077 27.2096C23.0445 26.8355 29.2175 21.261 29.3297 20.7373C29.3297 20.6624 29.3671 20.438 29.2175 20.3257C29.0678 20.2135 28.8808 20.2509 28.7311 20.2883C28.5067 20.3257 25.1395 22.5705 18.5924 26.9851C17.6197 27.6585 16.7592 27.9578 15.9735 27.9578C15.113 27.9578 13.4669 27.4715 12.2323 27.0599C10.7358 26.5736 9.53861 26.3117 9.65085 25.4886C9.72568 25.0771 10.3243 24.6281 11.4466 24.1792Z" fill="white"/>
</g>
<defs>
<linearGradient id="paint0_linear_1_628" x1="0.59668" y1="24.4237" x2="48.5993" y2="24.4237" gradientUnits="userSpaceOnUse">
<stop stop-color="#2AABEE"/>
<stop offset="1" stop-color="#229ED9"/>
</linearGradient>
<clipPath id="clip0_1_628">
<rect width="48" height="48" fill="white" transform="translate(0.59668 0.422363)"/>
</clipPath>
</defs>
</svg>
