<svg width="47" height="47" viewBox="0 0 47 47" fill="none" xmlns="http://www.w3.org/2000/svg">
<path d="M23.5587 46.7898C36.2711 46.7898 46.5766 36.4843 46.5766 23.7718C46.5766 11.0594 36.2711 0.753906 23.5587 0.753906C10.8462 0.753906 0.540771 11.0594 0.540771 23.7718C0.540771 36.4843 10.8462 46.7898 23.5587 46.7898Z" fill="url(#paint0_linear_1_658)"/>
<path fill-rule="evenodd" clip-rule="evenodd" d="M10.9387 23.5208C17.6433 20.5808 22.1249 18.6806 24.3837 17.7484C30.7656 15.0952 32.0922 14.6291 32.9527 14.5933C33.132 14.5933 33.5622 14.6291 33.849 14.8442C34.0641 15.0235 34.1358 15.2745 34.1717 15.4537C34.2076 15.633 34.2434 16.0274 34.2076 16.3501C33.849 19.9713 32.379 28.8271 31.5903 32.8785C31.2676 34.5995 30.6222 35.1732 30.0127 35.2449C28.6861 35.3524 27.6464 34.3485 26.3556 33.5239C24.3478 32.1973 23.2005 31.3727 21.2286 30.082C18.9698 28.5761 20.4398 27.7515 21.7305 26.4249C22.0532 26.0664 27.9691 20.7242 28.0766 20.2223C28.0766 20.1505 28.1125 19.9354 27.9691 19.8279C27.8256 19.7203 27.6464 19.7562 27.503 19.792C27.2878 19.8279 24.061 21.9791 17.7867 26.2098C16.8545 26.8551 16.0298 27.142 15.2769 27.142C14.4523 27.142 12.8747 26.6759 11.6916 26.2815C10.2574 25.8154 9.11013 25.5644 9.21769 24.7756C9.28939 24.3813 9.86305 23.951 10.9387 23.5208Z" fill="white"/>
<defs>
<linearGradient id="paint0_linear_1_658" x1="0.540771" y1="23.7552" x2="46.5433" y2="23.7552" gradientUnits="userSpaceOnUse">
<stop stop-color="#2AABEE"/>
<stop offset="1" stop-color="#229ED9"/>
</linearGradient>
</defs>
</svg>
