<svg width="23" height="17" viewBox="0 0 23 17" fill="none" xmlns="http://www.w3.org/2000/svg">
<path d="M4.60689 0.779674C4.3655 0.538286 3.97413 0.538286 3.73274 0.779674L0.532911 3.97951C0.231176 4.28124 0.231176 4.77045 0.532911 5.07219C0.834647 5.37392 1.32386 5.37392 1.62559 5.07219L3.39717 3.3006V12.5613C3.39717 14.6949 5.12679 16.4245 7.26038 16.4245H12.2053C12.632 16.4245 12.9779 16.0786 12.9779 15.6519C12.9779 15.2252 12.632 14.8792 12.2053 14.8792H7.26038C5.98023 14.8792 4.94246 13.8415 4.94246 12.5613V3.3006L6.71404 5.07219C7.01578 5.37392 7.50499 5.37392 7.80672 5.07219C8.10846 4.77045 8.10846 4.28124 7.80672 3.97951L4.60689 0.779674Z" fill="black"/>
<path d="M18.1039 16.462C18.3453 16.7034 18.7366 16.7034 18.978 16.462L22.1778 13.2621C22.4796 12.9604 22.4796 12.4712 22.1778 12.1695C21.8761 11.8677 21.3869 11.8677 21.0852 12.1695L19.3136 13.941V4.68033C19.3136 2.54674 17.584 0.817122 15.4504 0.817122H10.5055C10.0788 0.817122 9.73283 1.16305 9.73283 1.58976C9.73283 2.01648 10.0788 2.3624 10.5055 2.3624H15.4504C16.7305 2.3624 17.7683 3.40017 17.7683 4.68033V13.941L15.9967 12.1695C15.695 11.8677 15.2058 11.8677 14.904 12.1695C14.6023 12.4712 14.6023 12.9604 14.904 13.2621L18.1039 16.462Z" fill="black"/>
</svg>
